<?xml version="1.0" encoding="utf-8"?>
<!-- Generator: Adobe Illustrator 19.0.0, SVG Export Plug-In . SVG Version: 6.00 Build 0)  -->
<svg version="1.1" xmlns="http://www.w3.org/2000/svg" xmlns:xlink="http://www.w3.org/1999/xlink" x="0px" y="0px"
	 viewBox="-93 319.5 514 389.6" style="enable-background:new -93 319.5 514 389.6;" xml:space="preserve">
<style type="text/css">
	.st0{display:none;}
	.st1{display:inline;}
	.st2{fill:#F52C2F;}
	.st3{fill:#FFFFFF;}
</style>
<g id="Layer_1" class="st0">
	<g id="Layer_2" class="st1">
	</g>
	<g class="st1">
		<path d="M-116.2,656.3l-0.7-260.5c-0.1-14.2,11.4-25.8,25.7-25.8l260.5-0.7c14.2-0.1,25.8,11.4,25.8,25.7l0.6,260.5
			c0.1,14.2-11.4,25.8-25.7,25.8L-90.4,682C-104.6,682-116.1,670.5-116.2,656.3z"/>
		<g>
			<path class="st2" d="M-106.8,670.5c-15.8,0-28.7-12.9-28.8-28.7l-0.7-260.5c-0.1-15.8,12.8-28.8,28.7-28.8l260.6-0.7
				c15.7,0,28.6,12.9,28.7,28.7l0.6,260.5c0.1,15.8-12.8,28.8-28.7,28.8L-106.8,670.5L-106.8,670.5z"/>
			<path d="M153,354.8c14.1,0,25.6,11.5,25.7,25.7l0.6,260.5c0.1,14.2-11.4,25.8-25.7,25.8l-260.5,0.7c-14.1,0-25.7-11.5-25.8-25.7
				l-0.7-260.5c-0.1-14.2,11.4-25.8,25.7-25.8l260.5-0.7C153,354.8,153,354.8,153,354.8 M153.1,348.8v6V348.8L153.1,348.8l-0.1,0
				l-260.5,0.7c-17.5,0.1-31.7,14.4-31.7,31.9l0.7,260.5c0.1,17.4,14.3,31.6,31.8,31.7l260.5-0.7c17.5-0.1,31.7-14.4,31.7-31.9
				l-0.6-260.5C184.7,363,170.4,348.8,153.1,348.8L153.1,348.8z"/>
		</g>
	</g>
	<g class="st1">
		<path class="st3" d="M128.6,439.9c-3.4,3.5-8,5.9-13.8,6.8c-4,0.5-7.2,0.4-10.1-0.5c-2.8-1-5.2-2.4-7.1-4.3l-10.6-10.7
			c-3.6-1.5-6.2-4.1-8-7.6c-1.8-3.5-2.6-7.1-2.7-11.1c0-2.7,0.5-5.4,1.6-8.2c1-2.7,2.5-4.9,4.5-6.8c1.9-1.9,4.5-3.3,7.5-4.2
			c3.2-0.9,6.5-1,10.5-0.4c9.3,2,15.1,6.2,17.7,12.5l9.7,9.8c-0.1-0.2,0-0.3-0.2-0.3c-0.1,0-0.2-0.2-0.2-0.3l0.9,0.8
			c3.3,3.4,5,7.3,5,11.8C133.7,432.1,132,436.2,128.6,439.9z"/>
		<path class="st3" d="M146,622c-0.4,2.7-2.8,4.8-7.5,6.1c-4.5,1.4-9.7,2-15.5,2c-6-0.1-11.9-0.7-18-2.1c-6.1-1.4-10.3-3.4-12.9-6.2
			l-11.8-11.9c-2.6-1.6-4.2-3.1-5.1-4.5c-0.1-1.4,0.2-2.8,0.2-4.3c0-1.5,0.2-3,0.2-4.6l0.1-16.6c0.2-9.4,0.5-18,0.6-26
			c0.1-8.1,0.3-16.2,0.3-24.3c0.1-6,0-12.1,0-18.1c0-4.7-0.1-9.3-0.1-13.8c-0.1-4.2-0.1-8.6-0.2-13.2c-0.1-6.8-0.3-14.1-0.5-21.6
			l-0.1-1.5c0.8-3.9,3.8-6.7,9-8.3c5.2-1.7,10.7-2.5,16.6-2.5c6,0.1,11.4,0.8,16.6,2.6c5.1,1.8,7.9,4,8.6,7l12.1,12.2
			c1,0.9,1.7,1.9,1.7,2.9c0.3,14.4,0.7,27.5,1.1,39.3c0.3,11.8,0.9,23.2,1.5,34.2c0.5,10,0.9,20,1.4,30.6c0.1,1.2,0.2,2.3,0.2,3.6
			c0.4,7.3,0.7,15.3,0.8,23.9C145.8,611.5,145.8,616.7,146,622z"/>
		<path id="XMLID_19_" d="M145.5,606.7c-0.3-8.6-0.6-16.5-0.8-23.9c-0.1-1.3-0.1-2.3-0.2-3.6c-0.5-10.4-0.9-20.6-1.4-30.6
			c-0.5-11.1-1-22.4-1.5-34.2c-0.3-11.8-0.8-24.9-1.1-39.3c-0.2-1-0.8-2-1.7-2.9l-12.1-12.2c-0.6-3-3.5-5.3-8.6-7
			c-5.1-1.8-10.7-2.5-16.6-2.6c-6-0.1-11.5,0.7-16.6,2.5c-5.2,1.7-8.1,4.5-9,8.3l0.1,1.5c0.3,7.7,0.3,14.7,0.5,21.6
			c0,4.7,0.2,9,0.2,13.2c0,4.7,0.1,9.3,0.1,13.8c-0.1,6,0,12.1,0,18.1c0,8-0.2,16.3-0.3,24.3c-0.1,8.1-0.3,16.8-0.6,26l-0.1,16.6
			c0,1.6-0.1,3.1-0.2,4.6c0,1.5-0.2,3-0.2,4.3c0.8,1.4,2.4,2.9,5.1,4.5l11.8,11.9c2.6,2.8,6.8,4.8,12.9,6.2c6.1,1.4,11.9,2,18,2.1
			c5.7,0.1,10.8-0.6,15.5-2c4.5-1.4,7-3.5,7.5-6.1C145.8,616.7,145.8,611.5,145.5,606.7z M119.6,609.4c-4.2,0.6-9,0.8-14.3,0.7
			c-5.4-0.2-10.4-0.7-15.2-1.7c-4.8-1-7.6-2.4-8.5-4.3c0.3-13.8,0.4-26.5,0.6-38.2c0.1-11.6,0.2-22.9,0.2-33.8c0-11,0.1-22.1,0-33.1
			c-0.1-11.1-0.2-23.3-0.5-36.3c0.3-2.2,2.7-3.7,6.7-4.7c4.1-1,8.3-1.5,13-1.4c4.7,0,8.9,0.5,12.8,1.4c3.8,0.9,6,2,6.1,3.5
			c0.3,14.4,0.7,27.4,1.2,38.9c0.5,11.5,1,22.8,1.5,33.8c0.5,10.9,1,22.2,1.5,33.8c0.5,11.6,1,24.5,1.2,38.9
			C126,607.9,123.8,608.8,119.6,609.4z M133.8,427.5c0-4.5-1.6-8.5-5-11.8l-0.9-0.8c0.1,0.2,0,0.3,0.2,0.3c0.1,0,0.2,0.2,0.2,0.3
			l-9.7-9.8c-2.4-6.3-8.4-10.5-17.7-12.5c-3.9-0.6-7.4-0.6-10.5,0.4c-3.2,0.9-5.6,2.3-7.5,4.2c-2,1.9-3.4,4.1-4.5,6.8
			c-1,2.7-1.5,5.5-1.6,8.2c0,4,0.8,7.7,2.7,11.1c1.8,3.4,4.4,6,8,7.6l10.6,10.7c2,2,4.4,3.4,7.1,4.3c2.8,1,6,1.1,10.1,0.5
			c5.8-1,10.3-3.2,13.8-6.8C132,436.2,133.7,432.1,133.8,427.5z M109.5,422.1c-2.6,2.5-6,4.2-10,4.6c-5.7,0.8-10-0.3-12.6-3.7
			c-2.8-3.2-4.1-6.7-4-10.7c0-4,1.5-7.3,4.2-10.6c2.8-3,7.1-4.1,12.8-3c5.4,1,9.1,2.9,11.4,5.9c2.3,2.9,3.2,5.8,3,9
			C113.5,416.7,112,419.5,109.5,422.1z"/>
	</g>
	<g class="st1">
		<path class="st3" d="M101.8,610.7c-4.1-5.8-7.6-10.9-10.8-15.7c-3.3-4.7-6.1-9.4-8.9-13.9c-4.7-7.2-9.3-14.1-13.8-20.7
			c-4.6-6.7-9.9-13.6-16.2-21c12.6-7.7,22.5-18.1,29.8-31.3c7.3-13.2,11-28.8,11-47.2c0.1-11.7-1.4-21.8-4.6-30.3
			c-3.1-8.5-7.2-15.3-12.5-20.7l-8.6-8.3c-5.9-9.2-13.9-15.9-24.1-19.8c-10.1-4-21.8-5.9-34.8-6.1c-8.8-0.1-16.7,0.7-24,2.2
			c-7.1,1.5-14.3,3.3-21.4,5.3l-6.3,1.6l-3.9,1.2l-4.3-4c0-0.5,0.1-0.7,0.1-1c0.2-0.2,0.1-0.5,0.1-1c-4.7-0.7-9.6-1.1-15-1.7
			c-5.2-0.4-9.9-0.7-14-0.7c-7.8,0-14.3,1.1-19.7,3.5c-5.3,2.3-7.9,5.9-7.3,10.5c-0.5,10.4-0.7,20.1-0.9,28.7
			c-0.1,8.7-0.2,17.4-0.3,26c0,12.5,0,24.4,0.1,35.8c0.1,11.5,0.4,22.9,0.7,34.5l0,5.2c0.4,11.3,0.5,23,0.5,35.2
			c0.1,12.2,0.1,25.5,0.2,40.2l0.1,0.6c0.6,4.5,3.1,7.6,7.4,9.5l12,12.1c1.9,1.9,4.3,3.2,7.2,3.9c3.1,0.7,6.4,1.2,10.3,1.2
			c5-0.1,10.7-0.6,17.5-1.8c6.8-1.1,12.6-2.7,18-4.5c-0.1-11.1-0.2-22.1-0.3-33.2c0-10.9-0.3-21.2-0.6-30.6c1.5,0,2.5,0,3.5,0
			c0.9,0,1.8,0,2.5,0.1c0.7,0.1,1.5,0.1,2.3,0.1c0.9,0,2,0,3.4,0l17,0.1l0.3,0.6l4,7.1c3.5,6.1,7,12.6,10.8,19.6
			c3.7,6.9,8.1,13.4,13,19.3c0.8,1.2,2.4,2.4,4.6,3.4l12.2,12.4c2.5,2.4,6.5,4.2,12.3,5.4c5.7,1.1,12,1.7,18.4,1.8
			c5-0.1,9.5-0.4,13.8-1.1s8-1.9,11.1-3.2c3.1-1.3,5.2-2.9,6.8-4.6C102.3,614.4,102.5,612.6,101.8,610.7z M15.9,478.7
			c-3.5,4.5-7.9,8-13.2,10.6c-5.1,2.5-10.9,4.2-17,5.2c-6.2,0.9-11.8,1.4-16.9,1.3l-6.2-0.1c-0.3-6.5-0.3-13.3-0.3-20
			c0-6.7,0-13.7,0-20.9l0.1-6.4c5.9-1.8,12.6-3.4,20-4.7c7.5-1.4,14.2-2.1,20.7-2.1c5.3,0,10.2,1,14.4,2.8c2.6,5.3,3.9,10.8,4,16.6
			C21.2,468.3,19.4,474.3,15.9,478.7z"/>
		<g>
			<path d="M27.3,460.9c0.1-11.7-3.5-21.3-10.9-28.8c-7.3-7.5-17-11.2-29-11.3c-3.5,0-7.3,0.2-11.2,0.7c-4,0.5-8,1.3-12.1,2.2
				c-4.1,0.9-8.1,1.9-12,2.8c-3.9,1-7.3,1.9-10.4,2.8c-0.3,13-0.2,25.1,0.1,36.4c0.4,11.4,0.7,22.8,1,34.3c9.1,1.3,17.9,1.9,25.8,2
				c5.7,0,12-0.4,18.9-1.5c6.8-1,13.2-3,19.1-6.1c5.9-3,10.7-7.2,14.7-12.6C25.2,476.5,27.2,469.5,27.3,460.9z M15.9,478.7
				c-3.5,4.5-7.9,8-13.2,10.6c-5.1,2.5-10.9,4.2-17,5.2c-6.2,0.9-11.8,1.4-16.9,1.3l-6.2-0.1c-0.3-6.5-0.3-13.3-0.3-20
				c0-6.7,0-13.7,0-20.9l0.1-6.4c5.9-1.8,12.6-3.4,20-4.7c7.5-1.4,14.2-2.1,20.7-2.1c5.3,0,10.2,1,14.4,2.8c2.6,5.3,3.9,10.8,4,16.6
				C21.2,468.3,19.4,474.3,15.9,478.7z M27.3,460.9c0.1-11.7-3.5-21.3-10.9-28.8c-7.3-7.5-17-11.2-29-11.3c-3.5,0-7.3,0.2-11.2,0.7
				c-4,0.5-8,1.3-12.1,2.2c-4.1,0.9-8.1,1.9-12,2.8c-3.9,1-7.3,1.9-10.4,2.8c-0.3,13-0.2,25.1,0.1,36.4c0.4,11.4,0.7,22.8,1,34.3
				c9.1,1.3,17.9,1.9,25.8,2c5.7,0,12-0.4,18.9-1.5c6.8-1,13.2-3,19.1-6.1c5.9-3,10.7-7.2,14.7-12.6
				C25.2,476.5,27.2,469.5,27.3,460.9z M15.9,478.7c-3.5,4.5-7.9,8-13.2,10.6c-5.1,2.5-10.9,4.2-17,5.2c-6.2,0.9-11.8,1.4-16.9,1.3
				l-6.2-0.1c-0.3-6.5-0.3-13.3-0.3-20c0-6.7,0-13.7,0-20.9l0.1-6.4c5.9-1.8,12.6-3.4,20-4.7c7.5-1.4,14.2-2.1,20.7-2.1
				c5.3,0,10.2,1,14.4,2.8c2.6,5.3,3.9,10.8,4,16.6C21.2,468.3,19.4,474.3,15.9,478.7z M101.8,610.7c-4.1-5.8-7.6-10.9-10.8-15.7
				c-3.3-4.7-6.1-9.4-8.9-13.9c-4.7-7.2-9.3-14.1-13.8-20.7c-4.6-6.7-9.9-13.6-16.2-21c12.6-7.7,22.5-18.1,29.8-31.3
				c7.3-13.2,11-28.8,11-47.2c0.1-11.7-1.4-21.8-4.6-30.3c-3.1-8.5-7.2-15.3-12.5-20.7l-8.6-8.3c-5.9-9.2-13.9-15.9-24.1-19.8
				c-10.1-4-21.8-5.9-34.8-6.1c-8.8-0.1-16.7,0.7-24,2.2c-7.1,1.5-14.3,3.3-21.4,5.3l-6.3,1.6l-3.9,1.2l-4.3-4c0-0.5,0.1-0.7,0.1-1
				c0.2-0.2,0.1-0.5,0.1-1c-4.7-0.7-9.6-1.1-15-1.7c-5.2-0.4-9.9-0.7-14-0.7c-7.8,0-14.3,1.1-19.7,3.5c-5.3,2.3-7.9,5.9-7.3,10.5
				c-0.5,10.4-0.7,20.1-0.9,28.7c-0.1,8.7-0.2,17.4-0.3,26c0,12.5,0,24.4,0.1,35.8c0.1,11.5,0.4,22.9,0.7,34.5l0,5.2
				c0.4,11.3,0.5,23,0.5,35.2c0.1,12.2,0.1,25.5,0.2,40.2l0.1,0.6c0.6,4.5,3.1,7.6,7.4,9.5l12,12.1c1.9,1.9,4.3,3.2,7.2,3.9
				c3.1,0.7,6.4,1.2,10.3,1.2c5-0.1,10.7-0.6,17.5-1.8c6.8-1.1,12.6-2.7,18-4.5c-0.1-11.1-0.2-22.1-0.3-33.2
				c0-10.9-0.3-21.2-0.6-30.6c1.5,0,2.5,0,3.5,0c0.9,0,1.8,0,2.5,0.1c0.7,0.1,1.5,0.1,2.3,0.1c0.9,0,2,0,3.4,0l17,0.1l0.3,0.6l4,7.1
				c3.5,6.1,7,12.6,10.8,19.6c3.7,6.9,8.1,13.4,13,19.3c0.8,1.2,2.4,2.4,4.6,3.4l12.2,12.4c2.5,2.4,6.5,4.2,12.3,5.4
				c5.7,1.1,12,1.7,18.4,1.8c5-0.1,9.5-0.4,13.8-1.1s8-1.9,11.1-3.2c3.1-1.3,5.2-2.9,6.8-4.6C102.3,614.4,102.5,612.6,101.8,610.7z
				 M79.8,601.1c-2.2,0.9-5.1,1.4-8.9,2c-3.6,0.5-7.8,0.8-12.7,1c-4.9,0.2-9.2,0.1-13.5-0.2c-4.4-0.4-8.2-0.9-11.7-1.8
				s-5.8-2.1-6.7-3.5C21.9,593,18,587,14.4,580.9c-3.7-6.2-7-12.1-10.2-17.7c-3.1-5.7-6.1-11-8.7-15.9c-2.7-5-5-9-7.1-12.3
				c-2,0.1-4.1,0.3-6,0.3c-2,0-4,0-6-0.1c-5.3,0-10.6,0-15.8-0.3c-5.3-0.1-10.9-0.3-16.7-0.2c0.4,9.8,0.6,20.1,0.7,30.6
				c0.2,10.6,0.3,22.2,0.5,34.4c-3.9,1.2-8.4,2.3-13.5,3.2c-5.1,0.9-10,1.5-14.6,1.7c-4.5,0.2-8.6-0.3-12.1-1.3
				c-3.3-1-5.1-2.8-5.3-5.2c-0.1-20.5-0.3-38.9-0.8-55.3c-0.5-16.4-0.7-32.4-0.9-47.8c-0.3-15.5-0.3-31.4-0.3-47.8
				s0.5-34.8,1.1-55.4c-0.6-2.3,0.5-4,3.3-4.9c2.7-0.9,6.4-1.7,10.8-1.9c4.6-0.3,9.3-0.3,14.7-0.2s10.3,0.7,14.9,1.4
				c-0.2,1.6-0.3,3.1-0.3,4.6c0,1.5-0.1,2.9,0.1,4.5c6.3-1.3,12.2-2.8,17.6-4.4c5.4-1.5,10.4-2.9,15.5-4.3
				c4.9-1.3,10.2-2.4,15.6-3.2c5.3-0.9,11.1-1.2,17.2-1.1c9.5,0,18.1,1.2,26,3.4c7.9,2.3,14.7,6.1,20.3,11
				c5.6,5.1,9.9,11.5,13.2,19.7c3.1,8,4.7,17.8,4.6,29.2C71.9,464.3,68,480.1,60,493c-7.8,12.9-18.4,22.8-31.7,29.9
				c5.7,6.6,10.7,12.7,14.9,18.6c4.4,5.7,8.4,11.6,12,17.4c3.8,5.8,7.7,11.9,11.9,18.4c4.2,6.4,8.9,13.5,14.6,21.3
				C82.7,599.4,82,600.3,79.8,601.1z M16.6,432c-7.3-7.5-17-11.2-29-11.3c-3.5,0-7.3,0.2-11.2,0.7c-4,0.5-8,1.3-12.1,2.2
				c-4.1,0.9-8.1,1.9-12,2.8c-3.9,1-7.3,1.9-10.4,2.8c-0.3,13-0.2,25.1,0.1,36.4c0.4,11.4,0.7,22.8,1,34.3c9.1,1.3,17.9,1.9,25.8,2
				c5.7,0,12-0.4,18.9-1.5c6.8-1,13.2-3,19.1-6.1c5.9-3,10.7-7.2,14.7-12.6c3.9-5.4,5.9-12.3,5.9-20.8
				C27.4,449.2,23.8,439.7,16.6,432z M15.9,478.7c-3.5,4.5-7.9,8-13.2,10.6c-5.1,2.5-10.9,4.2-17,5.2c-6.2,0.9-11.8,1.4-16.9,1.3
				l-6.2-0.1c-0.3-6.5-0.3-13.3-0.3-20c0-6.7,0-13.7,0-20.9l0.1-6.4c5.9-1.8,12.6-3.4,20-4.7c7.5-1.4,14.2-2.1,20.7-2.1
				c5.3,0,10.2,1,14.4,2.8c2.6,5.3,3.9,10.8,4,16.6C21.2,468.3,19.4,474.3,15.9,478.7z M27.3,460.9c0.1-11.7-3.5-21.3-10.9-28.8
				c-7.3-7.5-17-11.2-29-11.3c-3.5,0-7.3,0.2-11.2,0.7c-4,0.5-8,1.3-12.1,2.2c-4.1,0.9-8.1,1.9-12,2.8c-3.9,1-7.3,1.9-10.4,2.8
				c-0.3,13-0.2,25.1,0.1,36.4c0.4,11.4,0.7,22.8,1,34.3c9.1,1.3,17.9,1.9,25.8,2c5.7,0,12-0.4,18.9-1.5c6.8-1,13.2-3,19.1-6.1
				c5.9-3,10.7-7.2,14.7-12.6C25.2,476.5,27.2,469.5,27.3,460.9z M15.9,478.7c-3.5,4.5-7.9,8-13.2,10.6c-5.1,2.5-10.9,4.2-17,5.2
				c-6.2,0.9-11.8,1.4-16.9,1.3l-6.2-0.1c-0.3-6.5-0.3-13.3-0.3-20c0-6.7,0-13.7,0-20.9l0.1-6.4c5.9-1.8,12.6-3.4,20-4.7
				c7.5-1.4,14.2-2.1,20.7-2.1c5.3,0,10.2,1,14.4,2.8c2.6,5.3,3.9,10.8,4,16.6C21.2,468.3,19.4,474.3,15.9,478.7z M27.3,460.9
				c0.1-11.7-3.5-21.3-10.9-28.8c-7.3-7.5-17-11.2-29-11.3c-3.5,0-7.3,0.2-11.2,0.7c-4,0.5-8,1.3-12.1,2.2c-4.1,0.9-8.1,1.9-12,2.8
				c-3.9,1-7.3,1.9-10.4,2.8c-0.3,13-0.2,25.1,0.1,36.4c0.4,11.4,0.7,22.8,1,34.3c9.1,1.3,17.9,1.9,25.8,2c5.7,0,12-0.4,18.9-1.5
				c6.8-1,13.2-3,19.1-6.1c5.9-3,10.7-7.2,14.7-12.6C25.2,476.5,27.2,469.5,27.3,460.9z M15.9,478.7c-3.5,4.5-7.9,8-13.2,10.6
				c-5.1,2.5-10.9,4.2-17,5.2c-6.2,0.9-11.8,1.4-16.9,1.3l-6.2-0.1c-0.3-6.5-0.3-13.3-0.3-20c0-6.7,0-13.7,0-20.9l0.1-6.4
				c5.9-1.8,12.6-3.4,20-4.7c7.5-1.4,14.2-2.1,20.7-2.1c5.3,0,10.2,1,14.4,2.8c2.6,5.3,3.9,10.8,4,16.6
				C21.2,468.3,19.4,474.3,15.9,478.7z"/>
		</g>
	</g>
	<g class="st1">
		<path class="st2" d="M424.7,523.9c0,0.4,0,0.8,0,1.3c-0.1,4.5-1.3,8.9-3.4,13.6c-7.1,8.8-13.6,16.9-19.2,24.3
			c-5.7,7.4-11.1,14.4-16.2,21.3l0.3,0l-13.9,19.1l5-0.9l7.5-1c2.7-0.5,5.5-0.8,8.3-1.2c2.7-0.3,5.8-0.8,9.1-1.2
			c5-0.1,8.6,2.1,10.8,6.7l3,2.8l4.2,3.9l4.6,4.4c1.6,1.5,2.7,3.5,3.5,5.9c0.8,2.4,1.2,5,1.2,8c0.1,2.8-0.4,6.1-1,9.5
			c-0.2,0.7-0.3,1.5-0.4,2.2c-0.7,2.5-1.4,4.7-2.2,6.8c-0.7,1.6-1.5,3.2-2.2,4.7c-11.7,0.2-23,0.8-33.6,1.5
			c-10.6,0.7-20.7,1.7-30.1,2.6c-9.4,1-19.3,1.8-29.4,2.6c-10.1,0.8-21,1.3-32.6,1.5c-3.7-0.5-6.7-1.9-9.1-4.2l-11.2-10.8
			c-2.3-1-4.2-2.5-5.7-4.4c-0.7-0.8-1.3-1.7-1.7-2.7c-1.7-3.3-2.5-6.9-2.7-11c-0.1-3.2,0.4-6.5,1.4-9.8c0.3-1.2,0.8-2.2,1.3-3.3
			c1-2.1,2.3-4.3,4.1-6.4c5.3-6.7,10.1-12.7,14.5-18.4c4.4-5.6,8.5-10.9,12.5-15.9c4-5,7.9-9.9,11.9-14.7c4-4.9,8.1-9.8,12.5-15.1
			c-3.3-0.1-6.9-0.3-10.8-0.4c-4-0.2-8.1-0.1-12.3,0c-1.2,0-2.3-0.5-3.6-1.7l-12.4-11.6c-1.4-0.3-2.7-1.3-3.8-2.7
			c-1.2-1.5-2.3-3.2-3.2-5.3c-0.9-2.1-1.6-4.4-2.2-7c-0.5-2.6-0.8-5.1-0.8-7.6c-0.1-5.1,0.7-9.5,2.5-13.5c1.8-3.9,4.8-6,9.3-6.1
			l0.3,0c5.2,0.3,10.2,0.5,14.8,0.7c4.6,0.2,9.1,0.5,13.4,0.7c1-0.1,2.1,0,3.5,0.2c1.3,0.2,2.5,0.3,3.5,0.2c8.1,0.5,16,1.1,23.5,1.4
			c7.5,0.3,15.4,0.5,23.5,0.2c7.1-0.1,15-0.6,23.5-1.3c6.4-0.7,11.1,1.9,14.4,7.8l10.7,10.2c0-0.2-0.1-0.3-0.1-0.3
			c-0.1,0-0.1-0.1-0.1-0.3l0.9,0.8c0.1,0.1,0.1,0.2,0.2,0.2C422.9,513.6,424.6,518.1,424.7,523.9z"/>
		<path id="XMLID_1_" d="M419.7,510.3c-0.1-0.1-0.1-0.2-0.2-0.2l-0.9-0.8c0,0.2,0.1,0.3,0.1,0.3s0.1,0.1,0.1,0.3l-10.6-10.2
			c-3.2-6-8-8.5-14.4-7.8c-8.5,0.7-16.4,1.1-23.5,1.3c-8.1,0.1-15.9,0-23.5-0.2c-7.5-0.2-15.4-0.8-23.5-1.4c-1,0.1-2.1,0-3.5-0.2
			s-2.5-0.3-3.5-0.2c-4.3-0.3-8.7-0.5-13.4-0.7c-4.6-0.2-9.6-0.5-14.8-0.7l-0.3,0c-4.5,0.1-7.5,2.1-9.3,6.1c-1.7,4-2.6,8.5-2.5,13.5
			c0.1,2.5,0.3,5.1,0.8,7.6c0.5,2.6,1.3,5,2.2,7c0.9,2.1,2,3.9,3.2,5.3c1.2,1.5,2.5,2.3,3.8,2.7l12.4,11.6c1.2,1.1,2.4,1.7,3.6,1.7
			c4.3-0.1,8.4-0.1,12.3,0c4,0.2,7.5,0.2,10.8,0.4c-4.4,5.4-8.4,10.4-12.5,15.1c-4,4.9-7.9,9.7-11.9,14.7c-4,5-8.1,10.3-12.5,15.9
			c-4.4,5.6-9.1,11.8-14.5,18.4c-1.7,2.1-3,4.3-4.1,6.4c-0.5,1.2-1,2.2-1.3,3.3c-1,3.2-1.5,6.5-1.4,9.8c0.1,4,1,7.7,2.7,11
			c0.5,0.9,1.2,1.9,1.7,2.7c1.5,2,3.4,3.4,5.7,4.4l11.2,10.8c2.3,2.2,5.4,3.7,9.1,4.2c11.6-0.2,22.4-0.8,32.6-1.5
			c10.2-0.7,19.9-1.7,29.4-2.6c9.4-1,19.5-1.8,30.1-2.6c10.6-0.7,21.8-1.3,33.6-1.5c0.8-1.5,1.6-3,2.2-4.7c0.9-2.1,1.6-4.5,2.2-6.8
			c0.2-0.7,0.3-1.5,0.4-2.2c0.7-3.5,1-6.8,1-9.5c-0.1-2.8-0.4-5.5-1.2-8c-0.8-2.4-1.9-4.4-3.5-5.9l-4.6-4.4l-4.2-3.9l-3-2.8
			c-2.2-4.5-5.8-6.8-10.8-6.7c-3.3,0.5-6.3,0.8-9.1,1.2c-2.8,0.3-5.6,0.8-8.3,1.2l-7.5,1l-5,0.9l13.9-19.1l-0.3,0
			c5.1-6.8,10.5-14,16.2-21.3c5.7-7.4,12-15.4,19.2-24.3c2.2-4.7,3.3-9.2,3.4-13.6c0-0.4,0-0.8,0-1.3
			C424.6,518.1,422.9,513.6,419.7,510.3z M404.9,512.4c-0.2,3.1-1,6.3-2.6,9.3c-7.1,8.8-13.4,16.9-18.9,24.1
			c-5.5,7.2-10.8,14.4-16,21.3c-5.2,6.9-10.5,14.1-16,21.3c-5.5,7.2-11.8,15.3-18.9,24.1c7.1-0.1,13.5-0.5,19.2-1s11.1-1.2,16.4-1.9
			c5.2-0.8,10.5-1.6,16.1-2.5s11.7-1.7,18.7-2.4c2.3,0,4,1,5.1,3.2c1.1,2.2,1.7,4.9,1.8,8.1c0,3.2-0.4,6.5-1,9.8
			c-0.7,3.4-1.7,6.3-3,8.9c-11.6,0.2-22.3,0.7-32.1,1.5c-9.9,0.8-19.5,1.7-28.9,2.6c-9.4,1-19.1,1.8-28.9,2.6
			c-9.9,0.8-20.5,1.3-32.1,1.5c-2.7-0.4-5-1.5-6.8-3.5c-1.8-2.1-3-4.5-3.5-7.3c-0.5-2.9-0.4-6.1,0.4-9.4c0.8-3.4,2.4-6.6,4.9-9.8
			c7-9,13.2-17.1,18.7-24c5.5-6.9,10.8-13.6,16.1-20c5.2-6.4,10.7-13,16.4-19.7c5.7-6.8,12.1-14.6,19.5-23.4
			c-6.3,0.5-12.1,0.7-17.1,0.6c-5-0.1-9.9-0.2-14.4-0.3c-4.6-0.1-9.3-0.2-14.1-0.3c-4.9-0.1-10.4-0.1-16.5,0c-1.2,0-2.2-1.5-3.3-4.7
			c-1.1-3.2-1.7-6.7-1.9-10.5c-0.2-3.9,0-7.4,1-10.6c0.9-3.2,2.6-4.9,5.2-4.9c10.6,0.4,20.2,0.8,28.9,1.5c8.7,0.6,17,1.1,25,1.5
			c8.1,0.5,16.3,0.6,24.7,0.5c8.4-0.1,17.8-0.5,28.2-1.3c2.1-0.4,4,0,5.6,1.4c1.6,1.4,2.8,3.1,3.6,5.5
			C404.8,506.6,405.1,509.4,404.9,512.4z"/>
	</g>
	<g class="st1">
		<path class="st2" d="M334.1,440.1c0,0.5,0,1.1-0.1,1.8c-0.2,6.3-2,12.5-5.1,18.9c-10.2,12.2-19.3,23.3-27.3,33.5
			c-8.1,10.2-15.8,19.9-23,29.5l0.4,0l-19.8,26.5l6.9-1.2l10.5-1.3c3.8-0.6,7.7-1,11.5-1.5c3.8-0.4,8.1-1,12.7-1.5
			c7-0.1,12,3.2,15,9.6l4.1,4l5.8,5.5l6.4,6.2c2.2,2.2,3.7,4.9,4.7,8.3c1,3.4,1.5,7.1,1.5,11.1c0.1,4-0.6,8.5-1.6,13.3
			c-0.2,1-0.5,2.1-0.6,3c-1,3.4-2,6.5-3.3,9.5c-1,2.3-2.1,4.4-3.2,6.5c-16.4,0-32.1,0.6-47,1.4c-14.9,0.8-28.9,1.9-42.1,3.1
			c-13.2,1.2-27,2.1-41.1,3c-14.1,0.8-29.3,1.3-45.5,1.4c-5.2-0.7-9.3-2.8-12.6-6l-15.4-15.3c-3.2-1.5-5.8-3.6-7.9-6.2
			c-0.9-1.2-1.8-2.5-2.4-3.8c-2.3-4.6-3.4-9.7-3.5-15.4c0-4.5,0.7-9.1,2.2-13.6c0.5-1.7,1.2-3.1,1.9-4.6c1.5-2.9,3.4-5.9,5.9-8.9
			c7.5-9.2,14.4-17.6,20.6-25.4c6.2-7.7,12-15,17.7-21.9c5.7-6.9,11.3-13.7,16.9-20.3c5.7-6.7,11.6-13.6,17.8-20.9
			c-4.6-0.3-9.6-0.6-15.1-0.8c-5.5-0.3-11.3-0.3-17.2-0.3c-1.7,0-3.2-0.7-4.9-2.5l-17.1-16.5c-2-0.5-3.7-1.8-5.3-3.9
			c-1.7-2.2-3.1-4.5-4.3-7.5c-1.1-3-2.2-6.2-2.9-9.8c-0.7-3.6-1-7.1-1-10.7c-0.1-7.1,1.2-13.2,3.7-18.8c2.6-5.4,6.9-8.3,13.2-8.3
			l0.4,0c7.3,0.5,14.2,0.9,20.6,1.3c6.5,0.4,12.7,0.9,18.7,1.3c1.4-0.1,2.9,0.1,4.9,0.4c1.9,0.3,3.5,0.4,4.9,0.4
			c11.4,0.9,22.3,1.9,32.8,2.5c10.4,0.6,21.5,1,32.8,0.8c9.9-0.1,20.9-0.5,32.9-1.3c8.9-0.8,15.5,2.9,20,11.2l14.7,14.5
			c0-0.3-0.1-0.4-0.2-0.4c-0.1,0-0.2-0.1-0.2-0.4l1.2,1.2c0.1,0.1,0.2,0.2,0.3,0.3C331.8,425.6,334.1,431.9,334.1,440.1z"/>
		<path id="XMLID_24_" d="M327.4,421c-0.1-0.1-0.2-0.2-0.3-0.3l-1.2-1.2c0,0.3,0.1,0.4,0.2,0.4s0.2,0.1,0.2,0.4l-14.6-14.5
			c-4.4-8.4-10.9-12.1-20-11.2c-11.8,0.8-22.9,1.3-32.9,1.3c-11.3,0-22.2-0.3-32.8-0.8c-10.5-0.5-21.5-1.4-32.8-2.5
			c-1.4,0.1-2.9-0.1-4.9-0.4c-2-0.3-3.5-0.4-4.9-0.4c-5.9-0.5-12.1-0.9-18.7-1.3c-6.5-0.3-13.3-0.9-20.6-1.3l-0.4,0
			c-6.3,0.1-10.6,2.8-13.2,8.3c-2.5,5.6-3.8,11.8-3.7,18.8c0.1,3.6,0.3,7.1,1,10.7c0.7,3.7,1.7,7,2.9,9.8c1.1,3,2.7,5.5,4.3,7.5
			c1.7,2.2,3.4,3.3,5.3,3.9l17.1,16.5c1.7,1.6,3.3,2.4,4.9,2.5c6,0,11.7,0,17.2,0.3c5.5,0.3,10.5,0.5,15.1,0.8
			c-6.2,7.4-12,14.3-17.8,20.9c-5.7,6.7-11.3,13.4-16.9,20.3c-5.7,6.9-11.6,14.2-17.7,21.9c-6.2,7.7-13,16.2-20.6,25.4
			c-2.4,2.9-4.3,6-5.9,8.9c-0.8,1.6-1.5,3.1-1.9,4.6c-1.4,4.4-2.2,9-2.2,13.6c0,5.6,1.3,10.8,3.5,15.4c0.7,1.3,1.6,2.7,2.4,3.8
			c2.1,2.8,4.7,4.8,7.9,6.2l15.4,15.3c3.2,3.1,7.4,5.3,12.6,6c16.2,0,31.3-0.6,45.5-1.4s27.9-1.9,41.1-3c13.1-1.2,27.2-2.1,42.1-3.1
			c14.8-0.8,30.5-1.4,47-1.4c1.1-2,2.2-4.2,3.2-6.5c1.3-2.9,2.3-6.2,3.3-9.5c0.2-1,0.5-2.1,0.6-3c1-4.9,1.6-9.5,1.6-13.3
			c-0.1-4-0.5-7.6-1.5-11.1c-1-3.4-2.6-6.2-4.7-8.3l-6.4-6.2l-5.8-5.5l-4.1-4c-3-6.4-8-9.6-15-9.6c-4.6,0.6-8.8,1-12.7,1.5
			c-3.9,0.4-7.8,1-11.5,1.5l-10.5,1.3l-6.9,1.2l19.8-26.5l-0.4,0c7.2-9.5,14.9-19.3,23-29.5c8.1-10.2,17.1-21.3,27.3-33.5
			c3.2-6.5,4.9-12.8,5.1-18.9c0-0.5,0-1.1,0.1-1.8C334.1,431.9,331.8,425.6,327.4,421z M306.7,423.6c-0.4,4.4-1.6,8.7-3.8,12.9
			c-10.2,12.2-19.1,23.3-26.9,33.3s-15.4,19.8-22.8,29.5c-7.5,9.6-15,19.4-22.8,29.5c-7.8,10-16.8,21.1-26.9,33.3
			c9.9-0.1,18.9-0.4,26.9-1c8-0.7,15.5-1.4,23-2.3c7.2-1,14.7-2.1,22.5-3.2c7.8-1.1,16.4-2.1,26.1-2.9c3.2,0,5.6,1.5,7,4.6
			c1.5,3.1,2.3,6.9,2.3,11.4c-0.1,4.5-0.7,9.1-1.7,13.7c-1,4.8-2.5,8.8-4.4,12.4c-16.2,0-31.2,0.5-44.9,1.4
			c-13.8,0.9-27.2,1.9-40.4,3c-13.1,1.2-26.7,2.2-40.4,3c-13.8,0.9-28.7,1.4-44.9,1.4c-3.7-0.6-6.9-2.2-9.4-5
			c-2.4-2.9-4.1-6.3-4.7-10.3c-0.7-4-0.4-8.5,0.8-13.1c1.2-4.8,3.5-9.2,7.1-13.5c10-12.5,18.8-23.6,26.6-33.1
			c7.8-9.5,15.4-18.8,23-27.6c7.4-8.8,15.3-17.9,23.4-27.2c8.1-9.3,17.2-20.2,27.7-32.2c-8.8,0.5-17,0.7-23.8,0.5
			c-7-0.3-13.8-0.5-20.1-0.7c-6.4-0.2-12.9-0.5-19.6-0.7c-6.8-0.2-14.5-0.3-23.1-0.3c-1.7,0-3.1-2.2-4.5-6.6
			c-1.4-4.4-2.2-9.4-2.5-14.7c-0.2-5.4,0.2-10.3,1.6-14.8c1.3-4.4,3.8-6.8,7.4-6.7c14.8,0.7,28.3,1.6,40.3,2.7
			c12.1,1,23.7,1.9,34.9,2.6c11.3,0.8,22.7,1.2,34.4,1.3s24.9-0.3,39.4-1.3c2.9-0.5,5.5,0.1,7.8,2.1c2.2,2,3.8,4.4,4.9,7.7
			C306.7,415.5,307.1,419.5,306.7,423.6z"/>
	</g>
</g>
<g id="Layer_1_copy">
	<g id="Layer_2_1_">
	</g>
	<g>
		<path class="st2" d="M417.1,598.7c0,0.3,0,0.6,0,1c-0.1,3.5-1,6.9-2.6,10.5c-5.5,6.8-10.5,13-14.8,18.7
			c-4.4,5.7-8.5,11.1-12.5,16.5l0.2,0l-10.7,14.8l3.8-0.7l5.8-0.8c2.1-0.4,4.2-0.6,6.4-0.9c2.1-0.2,4.5-0.6,7-0.9
			c3.9-0.1,6.7,1.6,8.4,5.2l2.3,2.2l3.2,3l3.6,3.4c1.2,1.2,2.1,2.7,2.7,4.6c0.6,1.9,0.9,3.9,0.9,6.1c0.1,2.2-0.3,4.7-0.8,7.4
			c-0.1,0.6-0.3,1.1-0.3,1.7c-0.5,1.9-1.1,3.6-1.7,5.3c-0.5,1.3-1.1,2.5-1.7,3.6c-9.1,0.2-17.7,0.6-25.9,1.2
			c-8.2,0.6-15.9,1.3-23.2,2c-7.3,0.8-14.9,1.4-22.7,2c-7.8,0.6-16.2,1-25.1,1.1c-2.9-0.3-5.2-1.5-7-3.2l-8.6-8.3
			c-1.8-0.8-3.2-1.9-4.4-3.4c-0.5-0.6-1-1.3-1.3-2.1c-1.3-2.5-2-5.3-2.1-8.5c-0.1-2.5,0.3-5,1.1-7.5c0.3-0.9,0.6-1.7,1-2.6
			c0.8-1.6,1.8-3.3,3.2-5c4.1-5.2,7.8-9.8,11.1-14.2c3.4-4.3,6.5-8.4,9.6-12.3c3.1-3.9,6.1-7.7,9.2-11.3c3.1-3.7,6.3-7.6,9.7-11.7
			c-2.5-0.1-5.3-0.2-8.4-0.3c-3.1-0.1-6.2-0.1-9.5,0c-0.9,0-1.8-0.4-2.7-1.3l-9.6-9c-1.1-0.3-2.1-1-3-2.1c-1-1.2-1.7-2.5-2.5-4.1
			c-0.7-1.6-1.3-3.4-1.7-5.4s-0.6-3.9-0.6-5.9c-0.1-3.9,0.6-7.3,1.9-10.4c1.4-3,3.7-4.7,7.2-4.7l0.2,0c4,0.2,7.8,0.4,11.4,0.5
			c3.6,0.2,7,0.4,10.3,0.6c0.8,0,1.6,0,2.7,0.2c1,0.1,2,0.2,2.7,0.2c6.3,0.4,12.3,0.8,18.1,1.1c5.8,0.2,11.9,0.4,18.1,0.2
			c5.5-0.1,11.5-0.4,18.1-1c4.9-0.5,8.6,1.5,11.1,6l8.3,7.9c0-0.2-0.1-0.2-0.1-0.2c-0.1,0-0.1-0.1-0.1-0.2l0.7,0.6
			c0.1,0.1,0.1,0.1,0.2,0.2C415.7,590.7,417.1,594.2,417.1,598.7z"/>
		<path id="XMLID_3_" d="M413.3,588.3c-0.1-0.1-0.1-0.1-0.2-0.2l-0.7-0.6c0,0.2,0.1,0.2,0.1,0.2c0.1,0,0.1,0.1,0.1,0.2l-8.2-7.9
			c-2.5-4.6-6.1-6.6-11.1-6c-6.5,0.6-12.7,0.9-18.1,1c-6.2,0.1-12.3,0-18.1-0.2c-5.8-0.2-11.9-0.6-18.1-1.1c-0.8,0-1.6,0-2.7-0.2
			c-1.1-0.1-2-0.2-2.7-0.2c-3.3-0.2-6.7-0.4-10.3-0.6c-3.6-0.1-7.4-0.4-11.4-0.5l-0.2,0c-3.5,0.1-5.8,1.6-7.2,4.7
			c-1.3,3.1-2,6.5-1.9,10.4c0.1,2,0.2,3.9,0.6,5.9c0.4,2,1,3.8,1.7,5.4c0.7,1.6,1.6,3,2.5,4.1c1,1.2,1.9,1.8,3,2.1l9.6,9
			c1,0.9,1.8,1.3,2.7,1.3c3.3,0,6.5-0.1,9.5,0c3.1,0.1,5.8,0.2,8.4,0.3c-3.4,4.1-6.5,8-9.7,11.7c-3.1,3.7-6.1,7.5-9.2,11.3
			c-3.1,3.9-6.3,7.9-9.6,12.3c-3.4,4.3-7.1,9.1-11.1,14.2c-1.3,1.6-2.3,3.4-3.2,5c-0.4,0.9-0.8,1.7-1,2.6c-0.7,2.5-1.1,5-1.1,7.5
			c0,3.1,0.8,6,2.1,8.5c0.4,0.7,0.9,1.5,1.3,2.1c1.2,1.5,2.7,2.6,4.4,3.4l8.6,8.3c1.8,1.7,4.1,2.9,7,3.2c8.9-0.2,17.3-0.6,25.1-1.1
			c7.9-0.5,15.4-1.3,22.7-2c7.2-0.8,15-1.4,23.2-2c8.1-0.6,16.8-1,25.9-1.2c0.6-1.1,1.2-2.3,1.7-3.6c0.7-1.6,1.2-3.4,1.7-5.3
			c0.1-0.6,0.3-1.1,0.3-1.7c0.5-2.7,0.8-5.2,0.8-7.4c-0.1-2.2-0.3-4.2-0.9-6.1c-0.6-1.9-1.5-3.4-2.7-4.6l-3.6-3.4l-3.2-3l-2.3-2.2
			c-1.7-3.5-4.5-5.2-8.4-5.2c-2.5,0.3-4.9,0.6-7,0.9c-2.1,0.2-4.3,0.6-6.4,0.9l-5.8,0.8l-3.8,0.7l10.7-14.8l-0.2,0
			c3.9-5.3,8.1-10.8,12.5-16.5c4.4-5.7,9.3-11.9,14.8-18.7c1.7-3.6,2.6-7.1,2.6-10.5c0-0.3,0-0.6,0-1
			C417.1,594.2,415.7,590.7,413.3,588.3z M401.9,589.9c-0.2,2.4-0.8,4.8-2,7.2c-5.5,6.8-10.4,13-14.6,18.6
			c-4.2,5.6-8.3,11.1-12.3,16.5c-4,5.3-8.1,10.8-12.3,16.5c-4.2,5.6-9.1,11.8-14.6,18.6c5.5-0.1,10.4-0.4,14.8-0.8
			c4.4-0.4,8.6-0.9,12.7-1.5c4-0.6,8.1-1.3,12.4-1.9c4.3-0.7,9-1.3,14.4-1.8c1.8,0,3.1,0.8,3.9,2.5c0.8,1.7,1.3,3.8,1.4,6.3
			c0,2.5-0.3,5-0.8,7.6c-0.5,2.6-1.3,4.9-2.3,6.9c-8.9,0.2-17.2,0.6-24.8,1.1c-7.6,0.6-15,1.3-22.3,2c-7.2,0.8-14.7,1.4-22.3,2
			c-7.6,0.6-15.8,1-24.8,1.1c-2.1-0.3-3.8-1.2-5.2-2.7c-1.4-1.6-2.3-3.5-2.7-5.7c-0.4-2.2-0.3-4.7,0.3-7.3c0.6-2.6,1.8-5.1,3.8-7.5
			c5.4-7,10.2-13.2,14.4-18.5c4.2-5.3,8.4-10.5,12.4-15.4c4-4.9,8.3-10,12.7-15.2c4.4-5.2,9.4-11.3,15-18c-4.9,0.4-9.4,0.6-13.2,0.5
			c-3.9-0.1-7.6-0.2-11.1-0.2c-3.5-0.1-7.1-0.2-10.8-0.2c-3.7-0.1-8-0.1-12.7,0c-0.9,0-1.7-1.2-2.5-3.6s-1.3-5.2-1.5-8.1
			c-0.2-3,0-5.7,0.8-8.2c0.7-2.5,2-3.8,4-3.8c8.2,0.3,15.6,0.6,22.3,1.2c6.7,0.4,13.1,0.9,19.3,1.2c6.2,0.4,12.6,0.5,19,0.4
			s13.7-0.4,21.8-1c1.6-0.3,3.1,0,4.3,1.1c1.2,1.1,2.1,2.4,2.8,4.2C401.8,585.4,402,587.6,401.9,589.9z"/>
	</g>
	<g>
		<path class="st2" d="M347.3,534.1c0,0.4,0,0.9,0,1.4c-0.2,4.8-1.6,9.6-3.9,14.6c-7.8,9.4-14.9,18-21.1,25.8
			c-6.3,7.8-12.2,15.4-17.8,22.7l0.3,0L289.5,619l5.4-0.9l8.1-1c2.9-0.5,5.9-0.8,8.9-1.1c2.9-0.3,6.2-0.7,9.8-1.2
			c5.4,0,9.3,2.4,11.6,7.4l3.2,3.1l4.4,4.3l4.9,4.8c1.7,1.7,2.8,3.8,3.6,6.4c0.8,2.6,1.2,5.4,1.1,8.6c0,3.1-0.5,6.6-1.3,10.3
			c-0.2,0.8-0.4,1.6-0.5,2.3c-0.7,2.6-1.6,5-2.5,7.3c-0.8,1.7-1.7,3.4-2.4,5c-12.7,0-24.8,0.5-36.2,1.1c-11.5,0.6-22.3,1.4-32.5,2.4
			c-10.2,0.9-20.9,1.7-31.7,2.3c-10.9,0.7-22.6,1-35.1,1.1c-4-0.5-7.2-2.2-9.7-4.6l-11.9-11.8c-2.5-1.1-4.5-2.7-6.1-4.8
			c-0.7-0.9-1.4-1.9-1.8-3c-1.8-3.5-2.6-7.5-2.7-11.9c0-3.5,0.6-7,1.7-10.5c0.4-1.3,0.9-2.4,1.5-3.6c1.1-2.2,2.6-4.6,4.5-6.8
			c5.8-7.1,11.1-13.5,15.9-19.6c4.8-6,9.3-11.6,13.7-16.9c4.4-5.3,8.7-10.6,13.1-15.6c4.4-5.2,8.9-10.5,13.7-16.1
			c-3.5-0.2-7.4-0.4-11.7-0.6c-4.3-0.2-8.7-0.2-13.3-0.2c-1.3,0-2.5-0.6-3.8-1.9l-13.2-12.7c-1.5-0.4-2.9-1.4-4.1-3
			c-1.3-1.7-2.4-3.5-3.3-5.8c-0.9-2.3-1.7-4.8-2.2-7.6c-0.5-2.8-0.8-5.5-0.7-8.2c0-5.5,0.9-10.2,2.9-14.5c2-4.2,5.3-6.4,10.1-6.4
			l0.3,0c5.6,0.4,10.9,0.7,15.9,1c5,0.3,9.8,0.7,14.4,1c1,0,2.3,0.1,3.8,0.3c1.4,0.2,2.7,0.3,3.8,0.3c8.8,0.7,17.2,1.4,25.3,1.9
			c8,0.5,16.6,0.8,25.3,0.6c7.7,0,16.1-0.4,25.3-1c6.9-0.6,11.9,2.2,15.4,8.6l11.4,11.2c0-0.2-0.1-0.3-0.1-0.3
			c-0.1,0-0.2-0.1-0.1-0.3l0.9,0.9c0.1,0.1,0.2,0.2,0.2,0.3C345.5,522.9,347.2,527.8,347.3,534.1z"/>
		<path id="XMLID_2_" d="M342.1,519.4c-0.1-0.1-0.2-0.2-0.2-0.3l-0.9-0.9c0,0.2,0.1,0.3,0.1,0.3s0.2,0.1,0.1,0.3l-11.3-11.2
			c-3.4-6.5-8.4-9.3-15.4-8.6c-9.1,0.6-17.7,1-25.3,1c-8.7,0-17.2-0.2-25.3-0.6c-8.1-0.4-16.6-1.1-25.3-1.9c-1,0-2.3-0.1-3.8-0.3
			c-1.5-0.2-2.7-0.3-3.8-0.3c-4.6-0.4-9.3-0.7-14.4-1c-5-0.3-10.3-0.7-15.9-1l-0.3,0c-4.8,0.1-8.1,2.1-10.1,6.4
			c-1.9,4.3-2.9,9.1-2.9,14.5c0.1,2.7,0.2,5.5,0.7,8.2c0.5,2.8,1.3,5.4,2.2,7.6c0.9,2.3,2.1,4.3,3.3,5.8c1.3,1.7,2.6,2.5,4.1,3
			l13.2,12.7c1.3,1.3,2.5,1.9,3.8,1.9c4.6,0,9,0,13.3,0.2c4.3,0.2,8.1,0.4,11.7,0.6c-4.8,5.7-9.3,11-13.7,16.1
			c-4.4,5.2-8.7,10.3-13.1,15.6c-4.4,5.3-8.9,11-13.7,16.9c-4.8,6-10,12.5-15.9,19.6c-1.9,2.3-3.3,4.6-4.5,6.8
			c-0.6,1.3-1.1,2.4-1.5,3.6c-1.1,3.4-1.7,7-1.7,10.5c0,4.4,1,8.3,2.7,11.9c0.5,1,1.2,2.1,1.8,3c1.6,2.2,3.7,3.7,6.1,4.8l11.9,11.8
			c2.5,2.4,5.7,4.1,9.7,4.6c12.5,0,24.1-0.5,35.1-1.1s21.5-1.5,31.7-2.3c10.1-0.9,21-1.7,32.5-2.4c11.4-0.6,23.5-1.1,36.2-1.1
			c0.9-1.6,1.7-3.2,2.4-5c1-2.2,1.8-4.8,2.5-7.3c0.2-0.8,0.4-1.6,0.5-2.3c0.8-3.8,1.2-7.3,1.3-10.3c0-3.1-0.3-5.9-1.1-8.6
			c-0.8-2.6-2-4.7-3.6-6.4l-4.9-4.8l-4.4-4.3l-3.2-3.1c-2.3-4.9-6.2-7.4-11.6-7.4c-3.6,0.4-6.8,0.8-9.8,1.2c-3,0.3-6,0.7-8.9,1.1
			l-8.1,1l-5.4,0.9l15.3-20.4l-0.3,0c5.6-7.3,11.5-14.9,17.8-22.7s13.2-16.4,21.1-25.8c2.4-5,3.7-9.9,3.9-14.6c0-0.4,0-0.9,0-1.4
			C347.2,527.8,345.5,522.9,342.1,519.4z M326.1,521.4c-0.3,3.4-1.2,6.7-2.9,10c-7.8,9.4-14.8,18-20.8,25.7
			c-6,7.7-11.8,15.3-17.6,22.7c-5.8,7.4-11.6,15-17.6,22.7c-6,7.7-12.9,16.3-20.8,25.7c7.7,0,14.6-0.3,20.7-0.8
			c6.1-0.5,12-1.1,17.7-1.8c5.6-0.8,11.3-1.6,17.3-2.4c6-0.8,12.6-1.6,20.2-2.2c2.5,0,4.3,1.1,5.4,3.6c1.1,2.4,1.7,5.3,1.8,8.8
			c0,3.5-0.6,7-1.3,10.6c-0.8,3.7-1.9,6.8-3.4,9.5c-12.5,0-24,0.4-34.6,1.1c-10.7,0.7-21,1.5-31.2,2.3c-10.1,0.9-20.6,1.7-31.2,2.3
			c-10.7,0.7-22.1,1-34.6,1.1c-2.9-0.4-5.3-1.7-7.3-3.9c-1.9-2.2-3.1-4.9-3.7-8c-0.5-3.1-0.3-6.5,0.6-10.1c0.9-3.7,2.7-7.1,5.5-10.4
			c7.7-9.6,14.5-18.2,20.5-25.5s11.9-14.5,17.7-21.3c5.7-6.8,11.8-13.8,18-20.9c6.2-7.2,13.3-15.6,21.4-24.9
			c-6.8,0.4-13.1,0.6-18.4,0.4c-5.4-0.2-10.6-0.4-15.5-0.6c-4.9-0.2-10-0.4-15.1-0.6c-5.2-0.2-11.2-0.2-17.8-0.2
			c-1.3,0-2.4-1.7-3.4-5.1c-1.1-3.4-1.7-7.2-1.9-11.4c-0.2-4.2,0.1-8,1.2-11.4c1-3.4,2.9-5.2,5.7-5.2c11.4,0.6,21.8,1.2,31.1,2.1
			c9.3,0.7,18.2,1.5,26.9,2c8.7,0.6,17.5,1,26.6,1c9,0,19.2-0.3,30.4-1c2.3-0.4,4.3,0.1,6,1.6s2.9,3.4,3.8,5.9
			C326.1,515.1,326.4,518.2,326.1,521.4z"/>
	</g>
	<g>
		<path class="st2" d="M187.8,425.2c-4.1,4.2-9.6,7-16.5,8.2c-4.8,0.7-8.7,0.5-12.1-0.6c-3.4-1.1-6.2-2.8-8.6-5.2l-12.7-12.8
			c-4.3-1.8-7.4-4.9-9.6-9.1c-2.2-4.2-3.1-8.5-3.2-13.3c0-3.3,0.6-6.5,1.9-9.8c1.2-3.2,3-5.9,5.4-8.1c2.2-2.3,5.4-3.9,9-5
			c3.8-1,7.8-1.2,12.6-0.5c11.2,2.4,18.2,7.4,21.2,15l11.6,11.7c-0.1-0.3,0-0.4-0.2-0.3c-0.1,0-0.2-0.2-0.2-0.3l1.1,1
			c4,4,6,8.8,6,14.2C193.9,415.9,191.8,420.8,187.8,425.2z"/>
		<path class="st3" d="M208.7,643.7c-0.4,3.3-3.4,5.8-9,7.3c-5.3,1.7-11.6,2.4-18.5,2.4c-7.2-0.1-14.3-0.9-21.6-2.5
			c-7.3-1.6-12.4-4-15.5-7.4l-14.2-14.3c-3.2-1.9-5-3.7-6.1-5.4c-0.1-1.7,0.2-3.3,0.2-5.1c0-1.8,0.3-3.6,0.2-5.5l0.2-19.9
			c0.2-11.2,0.6-21.6,0.8-31.2c0.1-9.8,0.3-19.5,0.4-29.1c0.1-7.2,0-14.5-0.1-21.7c0-5.6-0.1-11.2-0.2-16.6
			c-0.2-5.1-0.2-10.4-0.2-15.8c-0.2-8.2-0.4-16.9-0.6-26l-0.1-1.8c0.9-4.6,4.5-8.1,10.7-10c6.2-2,12.9-3,19.9-3
			c7.2,0.1,13.7,1,20,3.2c6.1,2.1,9.5,4.8,10.3,8.4l14.5,14.6c1.2,1.1,2,2.3,2.1,3.5c0.4,17.2,0.8,32.9,1.3,47.2
			c0.4,14.1,1,27.8,1.8,41.1c0.6,12,1.1,24,1.7,36.7c0.2,1.4,0.2,2.8,0.2,4.3c0.4,8.8,0.8,18.4,1,28.6
			C208.4,631,208.4,637.3,208.7,643.7z"/>
		<path id="XMLID_4_" d="M208,625.3c-0.3-10.3-0.7-19.7-1-28.6c-0.1-1.5-0.1-2.7-0.2-4.3c-0.6-12.5-1-24.7-1.7-36.7
			c-0.6-13.3-1.2-26.9-1.8-41.1c-0.4-14.1-0.9-29.9-1.3-47.2c-0.2-1.2-1-2.4-2.1-3.5l-14.5-14.6c-0.7-3.6-4.2-6.4-10.3-8.4
			c-6.1-2.1-12.8-3.1-20-3.2s-13.8,0.9-19.9,3c-6.2,2-9.7,5.4-10.7,10l0.1,1.8c0.3,9.2,0.3,17.6,0.6,26c0,5.6,0.2,10.8,0.2,15.8
			c0,5.6,0.1,11.2,0.2,16.6c-0.1,7.2,0,14.5,0.1,21.7c-0.1,9.6-0.2,19.5-0.4,29.1c-0.1,9.8-0.3,20.1-0.8,31.2l-0.2,19.9
			c0,1.9-0.2,3.8-0.2,5.5c0,1.8-0.3,3.6-0.2,5.1c0.9,1.7,2.9,3.5,6.1,5.4l14.2,14.3c3.1,3.4,8.1,5.8,15.5,7.4
			c7.3,1.6,14.3,2.4,21.6,2.5c6.9,0.2,13-0.7,18.5-2.4c5.3-1.7,8.4-4.2,9-7.3C208.4,637.3,208.4,631,208,625.3z M176.9,628.5
			c-5.1,0.7-10.8,1-17.2,0.8c-6.5-0.2-12.4-0.8-18.2-2c-5.8-1.2-9.2-2.9-10.2-5.1c0.4-16.6,0.5-31.8,0.8-45.8
			c0.1-14,0.2-27.5,0.2-40.6c0-13.2,0.1-26.5,0-39.7c-0.1-13.3-0.2-27.9-0.6-43.5c0.4-2.6,3.2-4.5,8-5.7c4.9-1.2,10-1.8,15.6-1.6
			c5.6,0,10.7,0.6,15.3,1.7c4.6,1.1,7.2,2.4,7.3,4.2c0.4,17.2,0.8,32.8,1.4,46.7c0.6,13.7,1.2,27.3,1.8,40.5
			c0.5,13,1.2,26.7,1.8,40.5c0.6,13.9,1.2,29.4,1.4,46.7C184.7,626.7,182,627.8,176.9,628.5z M193.9,410.3c0.1-5.4-2-10.2-6-14.2
			l-1.1-1c0.1,0.3,0,0.4,0.2,0.3c0.1,0,0.2,0.2,0.2,0.3l-11.6-11.7c-2.9-7.6-10-12.7-21.2-15c-4.7-0.7-8.9-0.7-12.6,0.5
			c-3.8,1-6.7,2.7-9,5c-2.3,2.2-4.1,4.9-5.4,8.1c-1.2,3.2-1.8,6.6-1.9,9.8c0,4.8,1,9.2,3.2,13.3c2.2,4.1,5.3,7.2,9.6,9.1l12.7,12.8
			c2.4,2.4,5.3,4.1,8.6,5.2c3.4,1.1,7.3,1.3,12.1,0.6c7-1.2,12.4-3.8,16.5-8.2C191.8,420.8,193.9,415.9,193.9,410.3z M164.8,403.9
			c-3.1,3-7.2,5.1-12,5.6c-6.9,0.9-12-0.4-15.1-4.5c-3.3-3.9-5-8.1-4.8-12.8c0-4.8,1.7-8.8,5.1-12.7c3.4-3.6,8.5-4.9,15.3-3.6
			c6.5,1.1,10.9,3.5,13.6,7.1c2.8,3.4,3.9,7,3.6,10.8C169.6,397.4,167.8,400.7,164.8,403.9z"/>
	</g>
	<g>
		<path class="st3" d="M155.8,598.8c-4.8-6.8-8.9-12.8-12.6-18.4c-3.8-5.5-7.2-11-10.4-16.2c-5.5-8.4-10.8-16.4-16.1-24.2
			c-5.4-7.8-11.5-15.9-18.9-24.5c14.7-9,26.3-21.2,34.7-36.5c8.5-15.3,12.8-33.7,12.9-55.1c0.1-13.6-1.7-25.4-5.3-35.3
			c-3.7-9.9-8.4-17.9-14.6-24.1l-10.1-9.7c-6.9-10.8-16.2-18.6-28.1-23.1c-11.8-4.7-25.5-6.9-40.7-7.1c-10.3-0.1-19.5,0.9-28,2.6
			c-8.3,1.8-16.7,3.8-25,6.1l-7.3,1.9l-4.6,1.4l-5-4.6c0-0.6,0.1-0.9,0.1-1.1c0.2-0.2,0.1-0.5,0.1-1.1c-5.4-0.8-11.3-1.3-17.5-1.9
			c-6.1-0.4-11.5-0.8-16.3-0.8c-9.1-0.1-16.7,1.3-23,4c-6.2,2.7-9.2,6.9-8.6,12.3c-0.6,12.2-0.9,23.4-1,33.5
			c-0.2,10.1-0.2,20.3-0.4,30.4c0,14.6,0,28.4,0.2,41.8c0.1,13.4,0.5,26.7,0.8,40.3l0,6.1c0.5,13.2,0.6,26.8,0.6,41.1
			c0.1,14.2,0.1,29.8,0.3,46.9l0.1,0.8c0.7,5.3,3.6,8.9,8.6,11.1l14,14.1c2.2,2.2,5,3.8,8.4,4.5c3.6,0.8,7.5,1.4,12,1.4
			c5.8-0.1,12.5-0.7,20.4-2.1c7.9-1.3,14.7-3.1,21-5.3c-0.1-12.9-0.3-25.8-0.4-38.7c0-12.8-0.4-24.8-0.7-35.7c1.7,0,2.9,0,4.1,0
			c1,0,2,0,2.9,0.2c0.9,0.1,1.7,0.2,2.7,0.1c1,0,2.3,0,3.9,0l19.9,0.1l0.4,0.7l4.7,8.3c4.1,7.2,8.2,14.8,12.6,22.9
			c4.3,8.1,9.4,15.7,15.2,22.5c0.9,1.4,2.8,2.8,5.3,4l14.2,14.4c2.9,2.8,7.6,4.9,14.3,6.3c6.6,1.3,14,2,21.5,2.1
			c5.8-0.1,11.1-0.4,16.2-1.3s9.3-2.2,13-3.7c3.6-1.5,6.1-3.3,7.9-5.3C156.4,603.2,156.6,601.1,155.8,598.8z M55.5,444.8
			c-4.1,5.3-9.2,9.3-15.4,12.4c-6,2.9-12.8,5-19.8,6c-7.2,1-13.8,1.6-19.7,1.6l-7.2-0.1C-7,457-7,449.1-7,441.3c0-7.8-0.1-16,0-24.4
			l0.1-7.5c6.9-2.1,14.7-4,23.3-5.5c8.7-1.7,16.6-2.5,24.1-2.4c6.2,0,11.9,1.2,16.9,3.2c3,6.2,4.5,12.6,4.7,19.4
			C61.7,432.6,59.6,439.6,55.5,444.8z"/>
		<g>
			<path d="M68.9,424c0.1-13.6-4.1-24.9-12.7-33.6c-8.5-8.7-19.8-13.1-33.9-13.2c-4.1,0-8.5,0.3-13.1,0.8c-4.6,0.5-9.4,1.5-14.2,2.6
				c-4.8,1.1-9.4,2.2-14.1,3.3c-4.5,1.1-8.6,2.3-12.2,3.2c-0.3,15.2-0.2,29.3,0.1,42.5c0.5,13.3,0.8,26.6,1.2,40.1
				c10.6,1.5,20.9,2.2,30.2,2.3c6.7,0,14-0.4,22.1-1.8c8-1.1,15.4-3.5,22.3-7.1c6.8-3.4,12.5-8.4,17.2-14.7
				C66.5,442.3,68.7,434,68.9,424z M55.5,444.8c-4.1,5.3-9.2,9.3-15.4,12.4c-6,2.9-12.8,5-19.8,6c-7.2,1-13.8,1.6-19.7,1.6l-7.2-0.1
				C-7,457-7,449.1-7,441.3c0-7.8-0.1-16,0-24.4l0.1-7.5c6.9-2.1,14.7-4,23.3-5.5c8.7-1.7,16.6-2.5,24.1-2.4
				c6.2,0,11.9,1.2,16.9,3.2c3,6.2,4.5,12.6,4.7,19.4C61.7,432.6,59.6,439.6,55.5,444.8z M68.9,424c0.1-13.6-4.1-24.9-12.7-33.6
				c-8.5-8.7-19.8-13.1-33.9-13.2c-4.1,0-8.5,0.3-13.1,0.8c-4.6,0.5-9.4,1.5-14.2,2.6c-4.8,1.1-9.4,2.2-14.1,3.3
				c-4.5,1.1-8.6,2.3-12.2,3.2c-0.3,15.2-0.2,29.3,0.1,42.5c0.5,13.3,0.8,26.6,1.2,40.1c10.6,1.5,20.9,2.2,30.2,2.3
				c6.7,0,14-0.4,22.1-1.8c8-1.1,15.4-3.5,22.3-7.1c6.8-3.4,12.5-8.4,17.2-14.7C66.5,442.3,68.7,434,68.9,424z M55.5,444.8
				c-4.1,5.3-9.2,9.3-15.4,12.4c-6,2.9-12.8,5-19.8,6c-7.2,1-13.8,1.6-19.7,1.6l-7.2-0.1C-7,457-7,449.1-7,441.3
				c0-7.8-0.1-16,0-24.4l0.1-7.5c6.9-2.1,14.7-4,23.3-5.5c8.7-1.7,16.6-2.5,24.1-2.4c6.2,0,11.9,1.2,16.9,3.2
				c3,6.2,4.5,12.6,4.7,19.4C61.7,432.6,59.6,439.6,55.5,444.8z M155.8,598.8c-4.8-6.8-8.9-12.8-12.6-18.4
				c-3.8-5.5-7.2-11-10.4-16.2c-5.5-8.4-10.8-16.4-16.1-24.2c-5.4-7.8-11.5-15.9-18.9-24.5c14.7-9,26.3-21.2,34.7-36.5
				c8.5-15.3,12.8-33.7,12.9-55.1c0.1-13.6-1.7-25.4-5.3-35.3c-3.7-9.9-8.4-17.9-14.6-24.1l-10.1-9.7c-6.9-10.8-16.2-18.6-28.1-23.1
				c-11.8-4.7-25.5-6.9-40.7-7.1c-10.3-0.1-19.5,0.9-28,2.6c-8.3,1.8-16.7,3.8-25,6.1l-7.3,1.9l-4.6,1.4l-5-4.6
				c0-0.6,0.1-0.9,0.1-1.1c0.2-0.2,0.1-0.5,0.1-1.1c-5.4-0.8-11.3-1.3-17.5-1.9c-6.1-0.4-11.5-0.8-16.3-0.8c-9.1-0.1-16.7,1.3-23,4
				c-6.2,2.7-9.2,6.9-8.6,12.3c-0.6,12.2-0.9,23.4-1,33.5c-0.2,10.1-0.2,20.3-0.4,30.4c0,14.6,0,28.4,0.2,41.8
				c0.1,13.4,0.5,26.7,0.8,40.3l0,6.1c0.5,13.2,0.6,26.8,0.6,41.1c0.1,14.2,0.1,29.8,0.3,46.9l0.1,0.8c0.7,5.3,3.6,8.9,8.6,11.1
				l14,14.1c2.2,2.2,5,3.8,8.4,4.5c3.6,0.8,7.5,1.4,12,1.4c5.8-0.1,12.5-0.7,20.4-2.1c7.9-1.3,14.7-3.1,21-5.3
				c-0.1-12.9-0.3-25.8-0.4-38.7c0-12.8-0.4-24.8-0.7-35.7c1.7,0,2.9,0,4.1,0c1,0,2,0,2.9,0.2c0.9,0.1,1.7,0.2,2.7,0.1
				c1,0,2.3,0,3.9,0l19.9,0.1l0.4,0.7l4.7,8.3c4.1,7.2,8.2,14.8,12.6,22.9c4.3,8.1,9.4,15.7,15.2,22.5c0.9,1.4,2.8,2.8,5.3,4
				l14.2,14.4c2.9,2.8,7.6,4.9,14.3,6.3c6.6,1.3,14,2,21.5,2.1c5.8-0.1,11.1-0.4,16.2-1.3s9.3-2.2,13-3.7c3.6-1.5,6.1-3.3,7.9-5.3
				C156.4,603.2,156.6,601.1,155.8,598.8z M130.1,587.6c-2.6,1.1-5.9,1.6-10.3,2.4c-4.2,0.6-9.1,1-14.8,1.2
				c-5.7,0.3-10.8,0.1-15.8-0.2c-5.1-0.5-9.6-1-13.7-2.1c-4.1-1.1-6.8-2.5-7.8-4.1c-5.1-6.7-9.6-13.7-13.9-20.9
				c-4.4-7.2-8.2-14.2-11.9-20.6c-3.7-6.6-7.1-12.9-10.1-18.6c-3.1-5.9-5.8-10.5-8.3-14.3c-2.4,0.1-4.7,0.4-7.1,0.3
				c-2.3,0-4.6,0-6.9-0.1c-6.2,0-12.3,0-18.5-0.3c-6.2-0.2-12.7-0.4-19.5-0.3c0.5,11.4,0.7,23.4,0.9,35.8
				c0.3,12.4,0.4,25.9,0.6,40.2c-4.6,1.4-9.8,2.7-15.8,3.7c-5.9,1.1-11.6,1.8-17,2c-5.3,0.2-10.1-0.3-14.1-1.5
				c-3.9-1.2-6-3.3-6.2-6.1c-0.2-24-0.4-45.4-0.9-64.5c-0.5-19.1-0.8-37.8-1-55.8c-0.4-18.1-0.3-36.6-0.3-55.8
				c0-19.1,0.6-40.6,1.3-64.7c-0.8-2.7,0.6-4.6,3.8-5.7c3.2-1.1,7.5-2,12.6-2.2c5.3-0.4,10.8-0.4,17.2-0.2s12,0.8,17.4,1.6
				c-0.2,1.8-0.4,3.7-0.4,5.4c0,1.7-0.2,3.4,0.1,5.2c7.4-1.6,14.2-3.3,20.5-5.1c6.2-1.7,12.2-3.4,18.1-5c5.8-1.5,11.9-2.9,18.2-3.7
				c6.2-1,13-1.4,20.1-1.3c11,0,21.1,1.4,30.3,4c9.2,2.7,17.2,7.1,23.7,12.8c6.6,5.9,11.6,13.5,15.3,23c3.7,9.4,5.5,20.7,5.4,34
				c-0.1,21.7-4.8,40.1-14.1,55.2c-9.1,15-21.4,26.6-36.9,34.9c6.7,7.7,12.5,14.9,17.4,21.7c5.1,6.7,9.8,13.6,14,20.3
				c4.5,6.8,9,13.9,13.9,21.5c4.9,7.5,10.4,15.8,17,24.9C133.5,585.6,132.6,586.7,130.1,587.6z M56.3,390.3
				c-8.5-8.7-19.8-13.1-33.9-13.2c-4.1,0-8.5,0.3-13.1,0.8c-4.6,0.5-9.4,1.5-14.2,2.6c-4.8,1.1-9.4,2.2-14.1,3.3
				c-4.5,1.1-8.6,2.3-12.2,3.2c-0.3,15.2-0.2,29.3,0.1,42.5c0.5,13.3,0.8,26.6,1.2,40.1c10.6,1.5,20.9,2.2,30.2,2.3
				c6.7,0,14-0.4,22.1-1.8c8-1.1,15.4-3.5,22.3-7.1c6.8-3.4,12.5-8.4,17.2-14.7c4.6-6.4,6.9-14.3,6.9-24.3
				C68.9,410.4,64.7,399.3,56.3,390.3z M55.5,444.8c-4.1,5.3-9.2,9.3-15.4,12.4c-6,2.9-12.8,5-19.8,6c-7.2,1-13.8,1.6-19.7,1.6
				l-7.2-0.1C-7,457-7,449.1-7,441.3c0-7.8-0.1-16,0-24.4l0.1-7.5c6.9-2.1,14.7-4,23.3-5.5c8.7-1.7,16.6-2.5,24.1-2.4
				c6.2,0,11.9,1.2,16.9,3.2c3,6.2,4.5,12.6,4.7,19.4C61.7,432.6,59.6,439.6,55.5,444.8z M68.9,424c0.1-13.6-4.1-24.9-12.7-33.6
				c-8.5-8.7-19.8-13.1-33.9-13.2c-4.1,0-8.5,0.3-13.1,0.8c-4.6,0.5-9.4,1.5-14.2,2.6c-4.8,1.1-9.4,2.2-14.1,3.3
				c-4.5,1.1-8.6,2.3-12.2,3.2c-0.3,15.2-0.2,29.3,0.1,42.5c0.5,13.3,0.8,26.6,1.2,40.1c10.6,1.5,20.9,2.2,30.2,2.3
				c6.7,0,14-0.4,22.1-1.8c8-1.1,15.4-3.5,22.3-7.1c6.8-3.4,12.5-8.4,17.2-14.7C66.5,442.3,68.7,434,68.9,424z M55.5,444.8
				c-4.1,5.3-9.2,9.3-15.4,12.4c-6,2.9-12.8,5-19.8,6c-7.2,1-13.8,1.6-19.7,1.6l-7.2-0.1C-7,457-7,449.1-7,441.3
				c0-7.8-0.1-16,0-24.4l0.1-7.5c6.9-2.1,14.7-4,23.3-5.5c8.7-1.7,16.6-2.5,24.1-2.4c6.2,0,11.9,1.2,16.9,3.2
				c3,6.2,4.5,12.6,4.7,19.4C61.7,432.6,59.6,439.6,55.5,444.8z M68.9,424c0.1-13.6-4.1-24.9-12.7-33.6
				c-8.5-8.7-19.8-13.1-33.9-13.2c-4.1,0-8.5,0.3-13.1,0.8c-4.6,0.5-9.4,1.5-14.2,2.6c-4.8,1.1-9.4,2.2-14.1,3.3
				c-4.5,1.1-8.6,2.3-12.2,3.2c-0.3,15.2-0.2,29.3,0.1,42.5c0.5,13.3,0.8,26.6,1.2,40.1c10.6,1.5,20.9,2.2,30.2,2.3
				c6.7,0,14-0.4,22.1-1.8c8-1.1,15.4-3.5,22.3-7.1c6.8-3.4,12.5-8.4,17.2-14.7C66.5,442.3,68.7,434,68.9,424z M55.5,444.8
				c-4.1,5.3-9.2,9.3-15.4,12.4c-6,2.9-12.8,5-19.8,6c-7.2,1-13.8,1.6-19.7,1.6l-7.2-0.1C-7,457-7,449.1-7,441.3
				c0-7.8-0.1-16,0-24.4l0.1-7.5c6.9-2.1,14.7-4,23.3-5.5c8.7-1.7,16.6-2.5,24.1-2.4c6.2,0,11.9,1.2,16.9,3.2
				c3,6.2,4.5,12.6,4.7,19.4C61.7,432.6,59.6,439.6,55.5,444.8z"/>
		</g>
	</g>
</g>
</svg>
