<?xml version="1.0" encoding="utf-8"?>
<!-- Generator: Adobe Illustrator 19.0.0, SVG Export Plug-In . SVG Version: 6.00 Build 0)  -->
<svg version="1.1" id="Layer_1" xmlns="http://www.w3.org/2000/svg" xmlns:xlink="http://www.w3.org/1999/xlink" x="0px" y="0px"
	 viewBox="-282 394.7 514 293.3" style="enable-background:new -282 394.7 514 293.3;" xml:space="preserve">
<style type="text/css">
	.st0{display:none;}
	.st1{display:inline;}
	.st2{fill:#F52C2F;}
	.st3{fill:#FFFFFF;}
</style>
<g id="Layer_1_1_" class="st0">
	<g id="Layer_2" class="st1">
	</g>
	<g class="st1">
		<path d="M-1244.2,2186.8l-0.7-260.5c-0.1-14.2,11.4-25.8,25.7-25.8l260.5-0.7c14.2-0.1,25.8,11.4,25.8,25.7l0.6,260.5
			c0.1,14.2-11.4,25.8-25.7,25.8l-260.4,0.7C-1232.6,2212.5-1244.1,2201-1244.2,2186.8z"/>
		<g>
			<path class="st2" d="M-1234.8,2201c-15.8,0-28.7-12.9-28.8-28.7l-0.7-260.5c-0.1-15.8,12.8-28.8,28.7-28.8l260.6-0.7
				c15.7,0,28.6,12.9,28.7,28.7l0.6,260.5c0.1,15.8-12.8,28.8-28.7,28.8L-1234.8,2201L-1234.8,2201z"/>
			<path d="M-975,1885.3c14.1,0,25.6,11.5,25.7,25.7l0.6,260.5c0.1,14.2-11.4,25.8-25.7,25.8l-260.5,0.7
				c-14.1,0-25.7-11.5-25.8-25.7l-0.7-260.5c-0.1-14.2,11.4-25.8,25.7-25.8l260.5-0.7C-975,1885.3-975,1885.3-975,1885.3
				 M-974.9,1879.3v6V1879.3L-974.9,1879.3L-974.9,1879.3l-260.6,0.7c-17.5,0.1-31.7,14.4-31.7,31.9l0.7,260.5
				c0.1,17.4,14.3,31.6,31.8,31.7l260.5-0.7c17.5-0.1,31.7-14.4,31.7-31.9l-0.6-260.5C-943.3,1893.5-957.6,1879.3-974.9,1879.3
				L-974.9,1879.3z"/>
		</g>
	</g>
	<g class="st1">
		<path class="st3" d="M-999.4,1970.4c-3.4,3.5-8,5.9-13.8,6.8c-4,0.5-7.2,0.4-10.1-0.5c-2.8-1-5.2-2.4-7.1-4.3l-10.6-10.7
			c-3.6-1.5-6.2-4.1-8-7.6s-2.6-7.1-2.7-11.1c0-2.7,0.5-5.4,1.6-8.2c1-2.7,2.5-4.9,4.5-6.8c1.9-1.9,4.5-3.3,7.5-4.2
			c3.2-0.9,6.5-1,10.5-0.4c9.3,2,15.1,6.2,17.7,12.5l9.7,9.8c-0.1-0.2,0-0.3-0.2-0.3c-0.1,0-0.2-0.2-0.2-0.3l0.9,0.8
			c3.3,3.4,5,7.3,5,11.8C-994.3,1962.6-996,1966.7-999.4,1970.4z"/>
		<path class="st3" d="M-982,2152.5c-0.4,2.7-2.8,4.8-7.5,6.1c-4.5,1.4-9.7,2-15.5,2c-6-0.1-11.9-0.7-18-2.1
			c-6.1-1.4-10.3-3.4-12.9-6.2l-11.8-11.9c-2.6-1.6-4.2-3.1-5.1-4.5c-0.1-1.4,0.2-2.8,0.2-4.3s0.2-3,0.2-4.6l0.1-16.6
			c0.2-9.4,0.5-18,0.6-26c0.1-8.1,0.3-16.2,0.3-24.3c0.1-6,0-12.1,0-18.1c0-4.7-0.1-9.3-0.1-13.8c-0.1-4.2-0.1-8.6-0.2-13.2
			c-0.1-6.8-0.3-14.1-0.5-21.6l-0.1-1.5c0.8-3.9,3.8-6.7,9-8.3c5.2-1.7,10.7-2.5,16.6-2.5c6,0.1,11.4,0.8,16.6,2.6
			c5.1,1.8,7.9,4,8.6,7l12.1,12.2c1,0.9,1.7,1.9,1.7,2.9c0.3,14.4,0.7,27.5,1.1,39.3c0.3,11.8,0.9,23.2,1.5,34.2
			c0.5,10,0.9,20,1.4,30.6c0.1,1.2,0.2,2.3,0.2,3.6c0.4,7.3,0.7,15.3,0.8,23.9C-982.2,2142-982.2,2147.2-982,2152.5z"/>
		<path id="XMLID_19_" d="M-982.5,2137.2c-0.3-8.6-0.6-16.5-0.8-23.9c-0.1-1.3-0.1-2.3-0.2-3.6c-0.5-10.4-0.9-20.6-1.4-30.6
			c-0.5-11.1-1-22.4-1.5-34.2c-0.3-11.8-0.8-24.9-1.1-39.3c-0.2-1-0.8-2-1.7-2.9l-12.1-12.2c-0.6-3-3.5-5.3-8.6-7
			c-5.1-1.8-10.7-2.5-16.6-2.6c-6-0.1-11.5,0.7-16.6,2.5c-5.2,1.7-8.1,4.5-9,8.3l0.1,1.5c0.3,7.7,0.3,14.7,0.5,21.6
			c0,4.7,0.2,9,0.2,13.2c0,4.7,0.1,9.3,0.1,13.8c-0.1,6,0,12.1,0,18.1c0,8-0.2,16.3-0.3,24.3c-0.1,8.1-0.3,16.8-0.6,26l-0.1,16.6
			c0,1.6-0.1,3.1-0.2,4.6c0,1.5-0.2,3-0.2,4.3c0.8,1.4,2.4,2.9,5.1,4.5l11.8,11.9c2.6,2.8,6.8,4.8,12.9,6.2c6.1,1.4,11.9,2,18,2.1
			c5.7,0.1,10.8-0.6,15.5-2c4.5-1.4,7-3.5,7.5-6.1C-982.2,2147.2-982.2,2142-982.5,2137.2z M-1008.4,2139.9c-4.2,0.6-9,0.8-14.3,0.7
			c-5.4-0.2-10.4-0.7-15.2-1.7s-7.6-2.4-8.5-4.3c0.3-13.8,0.4-26.5,0.6-38.2c0.1-11.6,0.2-22.9,0.2-33.8c0-11,0.1-22.1,0-33.1
			c-0.1-11.1-0.2-23.3-0.5-36.3c0.3-2.2,2.7-3.7,6.7-4.7c4.1-1,8.3-1.5,13-1.4c4.7,0,8.9,0.5,12.8,1.4c3.8,0.9,6,2,6.1,3.5
			c0.3,14.4,0.7,27.4,1.2,38.9s1,22.8,1.5,33.8c0.5,10.9,1,22.2,1.5,33.8s1,24.5,1.2,38.9C-1002,2138.4-1004.2,2139.3-1008.4,2139.9
			z M-994.2,1958c0-4.5-1.6-8.5-5-11.8l-0.9-0.8c0.1,0.2,0,0.3,0.2,0.3c0.1,0,0.2,0.2,0.2,0.3l-9.7-9.8c-2.4-6.3-8.4-10.5-17.7-12.5
			c-3.9-0.6-7.4-0.6-10.5,0.4c-3.2,0.9-5.6,2.3-7.5,4.2c-2,1.9-3.4,4.1-4.5,6.8c-1,2.7-1.5,5.5-1.6,8.2c0,4,0.8,7.7,2.7,11.1
			c1.8,3.4,4.4,6,8,7.6l10.6,10.7c2,2,4.4,3.4,7.1,4.3c2.8,1,6,1.1,10.1,0.5c5.8-1,10.3-3.2,13.8-6.8
			C-996,1966.7-994.3,1962.6-994.2,1958z M-1018.5,1952.6c-2.6,2.5-6,4.2-10,4.6c-5.7,0.8-10-0.3-12.6-3.7c-2.8-3.2-4.1-6.7-4-10.7
			c0-4,1.5-7.3,4.2-10.6c2.8-3,7.1-4.1,12.8-3c5.4,1,9.1,2.9,11.4,5.9c2.3,2.9,3.2,5.8,3,9C-1014.5,1947.2-1016,1950-1018.5,1952.6z
			"/>
	</g>
	<g class="st1">
		<path class="st3" d="M-1026.2,2141.2c-4.1-5.8-7.6-10.9-10.8-15.7c-3.3-4.7-6.1-9.4-8.9-13.9c-4.7-7.2-9.3-14.1-13.8-20.7
			c-4.6-6.7-9.9-13.6-16.2-21c12.6-7.7,22.5-18.1,29.8-31.3c7.3-13.2,11-28.8,11-47.2c0.1-11.7-1.4-21.8-4.6-30.3
			c-3.1-8.5-7.2-15.3-12.5-20.7l-8.6-8.3c-5.9-9.2-13.9-15.9-24.1-19.8c-10.1-4-21.8-5.9-34.8-6.1c-8.8-0.1-16.7,0.7-24,2.2
			c-7.1,1.5-14.3,3.3-21.4,5.3l-6.3,1.6l-3.9,1.2l-4.3-4c0-0.5,0.1-0.7,0.1-1c0.2-0.2,0.1-0.5,0.1-1c-4.7-0.7-9.6-1.1-15-1.7
			c-5.2-0.4-9.9-0.7-14-0.7c-7.8,0-14.3,1.1-19.7,3.5c-5.3,2.3-7.9,5.9-7.3,10.5c-0.5,10.4-0.7,20.1-0.9,28.7
			c-0.1,8.7-0.2,17.4-0.3,26c0,12.5,0,24.4,0.1,35.8c0.1,11.5,0.4,22.9,0.7,34.5v5.2c0.4,11.3,0.5,23,0.5,35.2
			c0.1,12.2,0.1,25.5,0.2,40.2l0.1,0.6c0.6,4.5,3.1,7.6,7.4,9.5l12,12.1c1.9,1.9,4.3,3.2,7.2,3.9c3.1,0.7,6.4,1.2,10.3,1.2
			c5-0.1,10.7-0.6,17.5-1.8c6.8-1.1,12.6-2.7,18-4.5c-0.1-11.1-0.2-22.1-0.3-33.2c0-10.9-0.3-21.2-0.6-30.6c1.5,0,2.5,0,3.5,0
			c0.9,0,1.8,0,2.5,0.1c0.7,0.1,1.5,0.1,2.3,0.1c0.9,0,2,0,3.4,0l17,0.1l0.3,0.6l4,7.1c3.5,6.1,7,12.6,10.8,19.6
			c3.7,6.9,8.1,13.4,13,19.3c0.8,1.2,2.4,2.4,4.6,3.4l12.2,12.4c2.5,2.4,6.5,4.2,12.3,5.4c5.7,1.1,12,1.7,18.4,1.8
			c5-0.1,9.5-0.4,13.8-1.1s8-1.9,11.1-3.2c3.1-1.3,5.2-2.9,6.8-4.6C-1025.7,2144.9-1025.5,2143.1-1026.2,2141.2z M-1112.1,2009.2
			c-3.5,4.5-7.9,8-13.2,10.6c-5.1,2.5-10.9,4.2-17,5.2c-6.2,0.9-11.8,1.4-16.9,1.3l-6.2-0.1c-0.3-6.5-0.3-13.3-0.3-20s0-13.7,0-20.9
			l0.1-6.4c5.9-1.8,12.6-3.4,20-4.7c7.5-1.4,14.2-2.1,20.7-2.1c5.3,0,10.2,1,14.4,2.8c2.6,5.3,3.9,10.8,4,16.6
			C-1106.8,1998.8-1108.6,2004.8-1112.1,2009.2z"/>
		<g>
			<path d="M-1100.7,1991.4c0.1-11.7-3.5-21.3-10.9-28.8c-7.3-7.5-17-11.2-29-11.3c-3.5,0-7.3,0.2-11.2,0.7c-4,0.5-8,1.3-12.1,2.2
				s-8.1,1.9-12,2.8c-3.9,1-7.3,1.9-10.4,2.8c-0.3,13-0.2,25.1,0.1,36.4c0.4,11.4,0.7,22.8,1,34.3c9.1,1.3,17.9,1.9,25.8,2
				c5.7,0,12-0.4,18.9-1.5c6.8-1,13.2-3,19.1-6.1c5.9-3,10.7-7.2,14.7-12.6C-1102.8,2007-1100.8,2000-1100.7,1991.4z
				 M-1112.1,2009.2c-3.5,4.5-7.9,8-13.2,10.6c-5.1,2.5-10.9,4.2-17,5.2c-6.2,0.9-11.8,1.4-16.9,1.3l-6.2-0.1
				c-0.3-6.5-0.3-13.3-0.3-20s0-13.7,0-20.9l0.1-6.4c5.9-1.8,12.6-3.4,20-4.7c7.5-1.4,14.2-2.1,20.7-2.1c5.3,0,10.2,1,14.4,2.8
				c2.6,5.3,3.9,10.8,4,16.6C-1106.8,1998.8-1108.6,2004.8-1112.1,2009.2z M-1100.7,1991.4c0.1-11.7-3.5-21.3-10.9-28.8
				c-7.3-7.5-17-11.2-29-11.3c-3.5,0-7.3,0.2-11.2,0.7c-4,0.5-8,1.3-12.1,2.2s-8.1,1.9-12,2.8c-3.9,1-7.3,1.9-10.4,2.8
				c-0.3,13-0.2,25.1,0.1,36.4c0.4,11.4,0.7,22.8,1,34.3c9.1,1.3,17.9,1.9,25.8,2c5.7,0,12-0.4,18.9-1.5c6.8-1,13.2-3,19.1-6.1
				c5.9-3,10.7-7.2,14.7-12.6C-1102.8,2007-1100.8,2000-1100.7,1991.4z M-1112.1,2009.2c-3.5,4.5-7.9,8-13.2,10.6
				c-5.1,2.5-10.9,4.2-17,5.2c-6.2,0.9-11.8,1.4-16.9,1.3l-6.2-0.1c-0.3-6.5-0.3-13.3-0.3-20s0-13.7,0-20.9l0.1-6.4
				c5.9-1.8,12.6-3.4,20-4.7c7.5-1.4,14.2-2.1,20.7-2.1c5.3,0,10.2,1,14.4,2.8c2.6,5.3,3.9,10.8,4,16.6
				C-1106.8,1998.8-1108.6,2004.8-1112.1,2009.2z M-1026.2,2141.2c-4.1-5.8-7.6-10.9-10.8-15.7c-3.3-4.7-6.1-9.4-8.9-13.9
				c-4.7-7.2-9.3-14.1-13.8-20.7c-4.6-6.7-9.9-13.6-16.2-21c12.6-7.7,22.5-18.1,29.8-31.3c7.3-13.2,11-28.8,11-47.2
				c0.1-11.7-1.4-21.8-4.6-30.3c-3.1-8.5-7.2-15.3-12.5-20.7l-8.6-8.3c-5.9-9.2-13.9-15.9-24.1-19.8c-10.1-4-21.8-5.9-34.8-6.1
				c-8.8-0.1-16.7,0.7-24,2.2c-7.1,1.5-14.3,3.3-21.4,5.3l-6.3,1.6l-3.9,1.2l-4.3-4c0-0.5,0.1-0.7,0.1-1c0.2-0.2,0.1-0.5,0.1-1
				c-4.7-0.7-9.6-1.1-15-1.7c-5.2-0.4-9.9-0.7-14-0.7c-7.8,0-14.3,1.1-19.7,3.5c-5.3,2.3-7.9,5.9-7.3,10.5
				c-0.5,10.4-0.7,20.1-0.9,28.7c-0.1,8.7-0.2,17.4-0.3,26c0,12.5,0,24.4,0.1,35.8c0.1,11.5,0.4,22.9,0.7,34.5v5.2
				c0.4,11.3,0.5,23,0.5,35.2c0.1,12.2,0.1,25.5,0.2,40.2l0.1,0.6c0.6,4.5,3.1,7.6,7.4,9.5l12,12.1c1.9,1.9,4.3,3.2,7.2,3.9
				c3.1,0.7,6.4,1.2,10.3,1.2c5-0.1,10.7-0.6,17.5-1.8c6.8-1.1,12.6-2.7,18-4.5c-0.1-11.1-0.2-22.1-0.3-33.2
				c0-10.9-0.3-21.2-0.6-30.6c1.5,0,2.5,0,3.5,0c0.9,0,1.8,0,2.5,0.1c0.7,0.1,1.5,0.1,2.3,0.1c0.9,0,2,0,3.4,0l17,0.1l0.3,0.6l4,7.1
				c3.5,6.1,7,12.6,10.8,19.6c3.7,6.9,8.1,13.4,13,19.3c0.8,1.2,2.4,2.4,4.6,3.4l12.2,12.4c2.5,2.4,6.5,4.2,12.3,5.4
				c5.7,1.1,12,1.7,18.4,1.8c5-0.1,9.5-0.4,13.8-1.1s8-1.9,11.1-3.2c3.1-1.3,5.2-2.9,6.8-4.6
				C-1025.7,2144.9-1025.5,2143.1-1026.2,2141.2z M-1048.2,2131.6c-2.2,0.9-5.1,1.4-8.9,2c-3.6,0.5-7.8,0.8-12.7,1
				s-9.2,0.1-13.5-0.2c-4.4-0.4-8.2-0.9-11.7-1.8c-3.5-0.9-5.8-2.1-6.7-3.5c-4.4-5.6-8.3-11.6-11.9-17.7c-3.7-6.2-7-12.1-10.2-17.7
				c-3.1-5.7-6.1-11-8.7-15.9c-2.7-5-5-9-7.1-12.3c-2,0.1-4.1,0.3-6,0.3c-2,0-4,0-6-0.1c-5.3,0-10.6,0-15.8-0.3
				c-5.3-0.1-10.9-0.3-16.7-0.2c0.4,9.8,0.6,20.1,0.7,30.6c0.2,10.6,0.3,22.2,0.5,34.4c-3.9,1.2-8.4,2.3-13.5,3.2
				c-5.1,0.9-10,1.5-14.6,1.7c-4.5,0.2-8.6-0.3-12.1-1.3c-3.3-1-5.1-2.8-5.3-5.2c-0.1-20.5-0.3-38.9-0.8-55.3
				c-0.5-16.4-0.7-32.4-0.9-47.8c-0.3-15.5-0.3-31.4-0.3-47.8c0-16.4,0.5-34.8,1.1-55.4c-0.6-2.3,0.5-4,3.3-4.9
				c2.7-0.9,6.4-1.7,10.8-1.9c4.6-0.3,9.3-0.3,14.7-0.2c5.4,0.1,10.3,0.7,14.9,1.4c-0.2,1.6-0.3,3.1-0.3,4.6s-0.1,2.9,0.1,4.5
				c6.3-1.3,12.2-2.8,17.6-4.4c5.4-1.5,10.4-2.9,15.5-4.3c4.9-1.3,10.2-2.4,15.6-3.2c5.3-0.9,11.1-1.2,17.2-1.1
				c9.5,0,18.1,1.2,26,3.4c7.9,2.3,14.7,6.1,20.3,11c5.6,5.1,9.9,11.5,13.2,19.7c3.1,8,4.7,17.8,4.6,29.2
				c-0.3,18.7-4.2,34.5-12.2,47.4c-7.8,12.9-18.4,22.8-31.7,29.9c5.7,6.6,10.7,12.7,14.9,18.6c4.4,5.7,8.4,11.6,12,17.4
				c3.8,5.8,7.7,11.9,11.9,18.4c4.2,6.4,8.9,13.5,14.6,21.3C-1045.3,2129.9-1046,2130.8-1048.2,2131.6z M-1111.4,1962.5
				c-7.3-7.5-17-11.2-29-11.3c-3.5,0-7.3,0.2-11.2,0.7c-4,0.5-8,1.3-12.1,2.2c-4.1,0.9-8.1,1.9-12,2.8c-3.9,1-7.3,1.9-10.4,2.8
				c-0.3,13-0.2,25.1,0.1,36.4c0.4,11.4,0.7,22.8,1,34.3c9.1,1.3,17.9,1.9,25.8,2c5.7,0,12-0.4,18.9-1.5c6.8-1,13.2-3,19.1-6.1
				c5.9-3,10.7-7.2,14.7-12.6c3.9-5.4,5.9-12.3,5.9-20.8C-1100.6,1979.7-1104.2,1970.2-1111.4,1962.5z M-1112.1,2009.2
				c-3.5,4.5-7.9,8-13.2,10.6c-5.1,2.5-10.9,4.2-17,5.2c-6.2,0.9-11.8,1.4-16.9,1.3l-6.2-0.1c-0.3-6.5-0.3-13.3-0.3-20
				s0-13.7,0-20.9l0.1-6.4c5.9-1.8,12.6-3.4,20-4.7c7.5-1.4,14.2-2.1,20.7-2.1c5.3,0,10.2,1,14.4,2.8c2.6,5.3,3.9,10.8,4,16.6
				C-1106.8,1998.8-1108.6,2004.8-1112.1,2009.2z M-1100.7,1991.4c0.1-11.7-3.5-21.3-10.9-28.8c-7.3-7.5-17-11.2-29-11.3
				c-3.5,0-7.3,0.2-11.2,0.7c-4,0.5-8,1.3-12.1,2.2s-8.1,1.9-12,2.8c-3.9,1-7.3,1.9-10.4,2.8c-0.3,13-0.2,25.1,0.1,36.4
				c0.4,11.4,0.7,22.8,1,34.3c9.1,1.3,17.9,1.9,25.8,2c5.7,0,12-0.4,18.9-1.5c6.8-1,13.2-3,19.1-6.1c5.9-3,10.7-7.2,14.7-12.6
				C-1102.8,2007-1100.8,2000-1100.7,1991.4z M-1112.1,2009.2c-3.5,4.5-7.9,8-13.2,10.6c-5.1,2.5-10.9,4.2-17,5.2
				c-6.2,0.9-11.8,1.4-16.9,1.3l-6.2-0.1c-0.3-6.5-0.3-13.3-0.3-20s0-13.7,0-20.9l0.1-6.4c5.9-1.8,12.6-3.4,20-4.7
				c7.5-1.4,14.2-2.1,20.7-2.1c5.3,0,10.2,1,14.4,2.8c2.6,5.3,3.9,10.8,4,16.6C-1106.8,1998.8-1108.6,2004.8-1112.1,2009.2z
				 M-1100.7,1991.4c0.1-11.7-3.5-21.3-10.9-28.8c-7.3-7.5-17-11.2-29-11.3c-3.5,0-7.3,0.2-11.2,0.7c-4,0.5-8,1.3-12.1,2.2
				s-8.1,1.9-12,2.8c-3.9,1-7.3,1.9-10.4,2.8c-0.3,13-0.2,25.1,0.1,36.4c0.4,11.4,0.7,22.8,1,34.3c9.1,1.3,17.9,1.9,25.8,2
				c5.7,0,12-0.4,18.9-1.5c6.8-1,13.2-3,19.1-6.1c5.9-3,10.7-7.2,14.7-12.6C-1102.8,2007-1100.8,2000-1100.7,1991.4z
				 M-1112.1,2009.2c-3.5,4.5-7.9,8-13.2,10.6c-5.1,2.5-10.9,4.2-17,5.2c-6.2,0.9-11.8,1.4-16.9,1.3l-6.2-0.1
				c-0.3-6.5-0.3-13.3-0.3-20s0-13.7,0-20.9l0.1-6.4c5.9-1.8,12.6-3.4,20-4.7c7.5-1.4,14.2-2.1,20.7-2.1c5.3,0,10.2,1,14.4,2.8
				c2.6,5.3,3.9,10.8,4,16.6C-1106.8,1998.8-1108.6,2004.8-1112.1,2009.2z"/>
		</g>
	</g>
	<g class="st1">
		<path class="st2" d="M-703.3,2054.4c0,0.4,0,0.8,0,1.3c-0.1,4.5-1.3,8.9-3.4,13.6c-7.1,8.8-13.6,16.9-19.2,24.3
			c-5.7,7.4-11.1,14.4-16.2,21.3h0.3l-13.9,19.1l5-0.9l7.5-1c2.7-0.5,5.5-0.8,8.3-1.2c2.7-0.3,5.8-0.8,9.1-1.2
			c5-0.1,8.6,2.1,10.8,6.7l3,2.8l4.2,3.9l4.6,4.4c1.6,1.5,2.7,3.5,3.5,5.9c0.8,2.4,1.2,5,1.2,8c0.1,2.8-0.4,6.1-1,9.5
			c-0.2,0.7-0.3,1.5-0.4,2.2c-0.7,2.5-1.4,4.7-2.2,6.8c-0.7,1.6-1.5,3.2-2.2,4.7c-11.7,0.2-23,0.8-33.6,1.5s-20.7,1.7-30.1,2.6
			c-9.4,1-19.3,1.8-29.4,2.6c-10.1,0.8-21,1.3-32.6,1.5c-3.7-0.5-6.7-1.9-9.1-4.2l-11.2-10.8c-2.3-1-4.2-2.5-5.7-4.4
			c-0.7-0.8-1.3-1.7-1.7-2.7c-1.7-3.3-2.5-6.9-2.7-11c-0.1-3.2,0.4-6.5,1.4-9.8c0.3-1.2,0.8-2.2,1.3-3.3c1-2.1,2.3-4.3,4.1-6.4
			c5.3-6.7,10.1-12.7,14.5-18.4c4.4-5.6,8.5-10.9,12.5-15.9s7.9-9.9,11.9-14.7c4-4.9,8.1-9.8,12.5-15.1c-3.3-0.1-6.9-0.3-10.8-0.4
			c-4-0.2-8.1-0.1-12.3,0c-1.2,0-2.3-0.5-3.6-1.7l-12.4-11.6c-1.4-0.3-2.7-1.3-3.8-2.7c-1.2-1.5-2.3-3.2-3.2-5.3s-1.6-4.4-2.2-7
			c-0.5-2.6-0.8-5.1-0.8-7.6c-0.1-5.1,0.7-9.5,2.5-13.5c1.8-3.9,4.8-6,9.3-6.1h0.3c5.2,0.3,10.2,0.5,14.8,0.7s9.1,0.5,13.4,0.7
			c1-0.1,2.1,0,3.5,0.2c1.3,0.2,2.5,0.3,3.5,0.2c8.1,0.5,16,1.1,23.5,1.4s15.4,0.5,23.5,0.2c7.1-0.1,15-0.6,23.5-1.3
			c6.4-0.7,11.1,1.9,14.4,7.8l10.7,10.2c0-0.2-0.1-0.3-0.1-0.3c-0.1,0-0.1-0.1-0.1-0.3l0.9,0.8c0.1,0.1,0.1,0.2,0.2,0.2
			C-705.1,2044.1-703.4,2048.6-703.3,2054.4z"/>
		<path id="XMLID_1_" d="M-708.3,2040.8c-0.1-0.1-0.1-0.2-0.2-0.2l-0.9-0.8c0,0.2,0.1,0.3,0.1,0.3s0.1,0.1,0.1,0.3l-10.6-10.2
			c-3.2-6-8-8.5-14.4-7.8c-8.5,0.7-16.4,1.1-23.5,1.3c-8.1,0.1-15.9,0-23.5-0.2c-7.5-0.2-15.4-0.8-23.5-1.4c-1,0.1-2.1,0-3.5-0.2
			s-2.5-0.3-3.5-0.2c-4.3-0.3-8.7-0.5-13.4-0.7c-4.6-0.2-9.6-0.5-14.8-0.7h-0.3c-4.5,0.1-7.5,2.1-9.3,6.1c-1.7,4-2.6,8.5-2.5,13.5
			c0.1,2.5,0.3,5.1,0.8,7.6c0.5,2.6,1.3,5,2.2,7c0.9,2.1,2,3.9,3.2,5.3c1.2,1.5,2.5,2.3,3.8,2.7l12.4,11.6c1.2,1.1,2.4,1.7,3.6,1.7
			c4.3-0.1,8.4-0.1,12.3,0c4,0.2,7.5,0.2,10.8,0.4c-4.4,5.4-8.4,10.4-12.5,15.1c-4,4.9-7.9,9.7-11.9,14.7s-8.1,10.3-12.5,15.9
			c-4.4,5.6-9.1,11.8-14.5,18.4c-1.7,2.1-3,4.3-4.1,6.4c-0.5,1.2-1,2.2-1.3,3.3c-1,3.2-1.5,6.5-1.4,9.8c0.1,4,1,7.7,2.7,11
			c0.5,0.9,1.2,1.9,1.7,2.7c1.5,2,3.4,3.4,5.7,4.4l11.2,10.8c2.3,2.2,5.4,3.7,9.1,4.2c11.6-0.2,22.4-0.8,32.6-1.5s19.9-1.7,29.4-2.6
			c9.4-1,19.5-1.8,30.1-2.6c10.6-0.7,21.8-1.3,33.6-1.5c0.8-1.5,1.6-3,2.2-4.7c0.9-2.1,1.6-4.5,2.2-6.8c0.2-0.7,0.3-1.5,0.4-2.2
			c0.7-3.5,1-6.8,1-9.5c-0.1-2.8-0.4-5.5-1.2-8c-0.8-2.4-1.9-4.4-3.5-5.9l-4.6-4.4l-4.2-3.9l-3-2.8c-2.2-4.5-5.8-6.8-10.8-6.7
			c-3.3,0.5-6.3,0.8-9.1,1.2c-2.8,0.3-5.6,0.8-8.3,1.2l-7.5,1l-5,0.9l13.9-19.1h-0.3c5.1-6.8,10.5-14,16.2-21.3
			c5.7-7.4,12-15.4,19.2-24.3c2.2-4.7,3.3-9.2,3.4-13.6c0-0.4,0-0.8,0-1.3C-703.4,2048.6-705.1,2044.1-708.3,2040.8z M-723.1,2042.9
			c-0.2,3.1-1,6.3-2.6,9.3c-7.1,8.8-13.4,16.9-18.9,24.1s-10.8,14.4-16,21.3c-5.2,6.9-10.5,14.1-16,21.3
			c-5.5,7.2-11.8,15.3-18.9,24.1c7.1-0.1,13.5-0.5,19.2-1s11.1-1.2,16.4-1.9c5.2-0.8,10.5-1.6,16.1-2.5c5.6-0.9,11.7-1.7,18.7-2.4
			c2.3,0,4,1,5.1,3.2c1.1,2.2,1.7,4.9,1.8,8.1c0,3.2-0.4,6.5-1,9.8c-0.7,3.4-1.7,6.3-3,8.9c-11.6,0.2-22.3,0.7-32.1,1.5
			c-9.9,0.8-19.5,1.7-28.9,2.6c-9.4,1-19.1,1.8-28.9,2.6c-9.9,0.8-20.5,1.3-32.1,1.5c-2.7-0.4-5-1.5-6.8-3.5c-1.8-2.1-3-4.5-3.5-7.3
			c-0.5-2.9-0.4-6.1,0.4-9.4c0.8-3.4,2.4-6.6,4.9-9.8c7-9,13.2-17.1,18.7-24c5.5-6.9,10.8-13.6,16.1-20c5.2-6.4,10.7-13,16.4-19.7
			c5.7-6.8,12.1-14.6,19.5-23.4c-6.3,0.5-12.1,0.7-17.1,0.6c-5-0.1-9.9-0.2-14.4-0.3c-4.6-0.1-9.3-0.2-14.1-0.3
			c-4.9-0.1-10.4-0.1-16.5,0c-1.2,0-2.2-1.5-3.3-4.7s-1.7-6.7-1.9-10.5c-0.2-3.9,0-7.4,1-10.6c0.9-3.2,2.6-4.9,5.2-4.9
			c10.6,0.4,20.2,0.8,28.9,1.5c8.7,0.6,17,1.1,25,1.5c8.1,0.5,16.3,0.6,24.7,0.5c8.4-0.1,17.8-0.5,28.2-1.3c2.1-0.4,4,0,5.6,1.4
			c1.6,1.4,2.8,3.1,3.6,5.5C-723.2,2037.1-722.9,2039.9-723.1,2042.9z"/>
	</g>
	<g class="st1">
		<path class="st2" d="M-793.9,1970.6c0,0.5,0,1.1-0.1,1.8c-0.2,6.3-2,12.5-5.1,18.9c-10.2,12.2-19.3,23.3-27.3,33.5
			c-8.1,10.2-15.8,19.9-23,29.5h0.4l-19.8,26.5l6.9-1.2l10.5-1.3c3.8-0.6,7.7-1,11.5-1.5c3.8-0.4,8.1-1,12.7-1.5
			c7-0.1,12,3.2,15,9.6l4.1,4l5.8,5.5l6.4,6.2c2.2,2.2,3.7,4.9,4.7,8.3c1,3.4,1.5,7.1,1.5,11.1c0.1,4-0.6,8.5-1.6,13.3
			c-0.2,1-0.5,2.1-0.6,3c-1,3.4-2,6.5-3.3,9.5c-1,2.3-2.1,4.4-3.2,6.5c-16.4,0-32.1,0.6-47,1.4s-28.9,1.9-42.1,3.1s-27,2.1-41.1,3
			c-14.1,0.8-29.3,1.3-45.5,1.4c-5.2-0.7-9.3-2.8-12.6-6l-15.4-15.3c-3.2-1.5-5.8-3.6-7.9-6.2c-0.9-1.2-1.8-2.5-2.4-3.8
			c-2.3-4.6-3.4-9.7-3.5-15.4c0-4.5,0.7-9.1,2.2-13.6c0.5-1.7,1.2-3.1,1.9-4.6c1.5-2.9,3.4-5.9,5.9-8.9c7.5-9.2,14.4-17.6,20.6-25.4
			c6.2-7.7,12-15,17.7-21.9c5.7-6.9,11.3-13.7,16.9-20.3c5.7-6.7,11.6-13.6,17.8-20.9c-4.6-0.3-9.6-0.6-15.1-0.8
			c-5.5-0.3-11.3-0.3-17.2-0.3c-1.7,0-3.2-0.7-4.9-2.5l-17.1-16.5c-2-0.5-3.7-1.8-5.3-3.9c-1.7-2.2-3.1-4.5-4.3-7.5
			c-1.1-3-2.2-6.2-2.9-9.8s-1-7.1-1-10.7c-0.1-7.1,1.2-13.2,3.7-18.8c2.6-5.4,6.9-8.3,13.2-8.3h0.4c7.3,0.5,14.2,0.9,20.6,1.3
			c6.5,0.4,12.7,0.9,18.7,1.3c1.4-0.1,2.9,0.1,4.9,0.4c1.9,0.3,3.5,0.4,4.9,0.4c11.4,0.9,22.3,1.9,32.8,2.5
			c10.4,0.6,21.5,1,32.8,0.8c9.9-0.1,20.9-0.5,32.9-1.3c8.9-0.8,15.5,2.9,20,11.2l14.7,14.5c0-0.3-0.1-0.4-0.2-0.4s-0.2-0.1-0.2-0.4
			l1.2,1.2c0.1,0.1,0.2,0.2,0.3,0.3C-796.2,1956.1-793.9,1962.4-793.9,1970.6z"/>
		<path id="XMLID_24_" d="M-800.6,1951.5c-0.1-0.1-0.2-0.2-0.3-0.3l-1.2-1.2c0,0.3,0.1,0.4,0.2,0.4s0.2,0.1,0.2,0.4l-14.6-14.5
			c-4.4-8.4-10.9-12.1-20-11.2c-11.8,0.8-22.9,1.3-32.9,1.3c-11.3,0-22.2-0.3-32.8-0.8c-10.5-0.5-21.5-1.4-32.8-2.5
			c-1.4,0.1-2.9-0.1-4.9-0.4s-3.5-0.4-4.9-0.4c-5.9-0.5-12.1-0.9-18.7-1.3c-6.5-0.3-13.3-0.9-20.6-1.3h-0.4
			c-6.3,0.1-10.6,2.8-13.2,8.3c-2.5,5.6-3.8,11.8-3.7,18.8c0.1,3.6,0.3,7.1,1,10.7c0.7,3.7,1.7,7,2.9,9.8c1.1,3,2.7,5.5,4.3,7.5
			c1.7,2.2,3.4,3.3,5.3,3.9l17.1,16.5c1.7,1.6,3.3,2.4,4.9,2.5c6,0,11.7,0,17.2,0.3s10.5,0.5,15.1,0.8c-6.2,7.4-12,14.3-17.8,20.9
			c-5.7,6.7-11.3,13.4-16.9,20.3c-5.7,6.9-11.6,14.2-17.7,21.9c-6.2,7.7-13,16.2-20.6,25.4c-2.4,2.9-4.3,6-5.9,8.9
			c-0.8,1.6-1.5,3.1-1.9,4.6c-1.4,4.4-2.2,9-2.2,13.6c0,5.6,1.3,10.8,3.5,15.4c0.7,1.3,1.6,2.7,2.4,3.8c2.1,2.8,4.7,4.8,7.9,6.2
			l15.4,15.3c3.2,3.1,7.4,5.3,12.6,6c16.2,0,31.3-0.6,45.5-1.4s27.9-1.9,41.1-3c13.1-1.2,27.2-2.1,42.1-3.1
			c14.8-0.8,30.5-1.4,47-1.4c1.1-2,2.2-4.2,3.2-6.5c1.3-2.9,2.3-6.2,3.3-9.5c0.2-1,0.5-2.1,0.6-3c1-4.9,1.6-9.5,1.6-13.3
			c-0.1-4-0.5-7.6-1.5-11.1c-1-3.4-2.6-6.2-4.7-8.3l-6.4-6.2l-5.8-5.5l-4.1-4c-3-6.4-8-9.6-15-9.6c-4.6,0.6-8.8,1-12.7,1.5
			c-3.9,0.4-7.8,1-11.5,1.5l-10.5,1.3l-6.9,1.2l19.8-26.5h-0.4c7.2-9.5,14.9-19.3,23-29.5s17.1-21.3,27.3-33.5
			c3.2-6.5,4.9-12.8,5.1-18.9c0-0.5,0-1.1,0.1-1.8C-793.9,1962.4-796.2,1956.1-800.6,1951.5z M-821.3,1954.1
			c-0.4,4.4-1.6,8.7-3.8,12.9c-10.2,12.2-19.1,23.3-26.9,33.3c-7.8,10-15.4,19.8-22.8,29.5c-7.5,9.6-15,19.4-22.8,29.5
			c-7.8,10-16.8,21.1-26.9,33.3c9.9-0.1,18.9-0.4,26.9-1c8-0.7,15.5-1.4,23-2.3c7.2-1,14.7-2.1,22.5-3.2c7.8-1.1,16.4-2.1,26.1-2.9
			c3.2,0,5.6,1.5,7,4.6c1.5,3.1,2.3,6.9,2.3,11.4c-0.1,4.5-0.7,9.1-1.7,13.7c-1,4.8-2.5,8.8-4.4,12.4c-16.2,0-31.2,0.5-44.9,1.4
			c-13.8,0.9-27.2,1.9-40.4,3c-13.1,1.2-26.7,2.2-40.4,3c-13.8,0.9-28.7,1.4-44.9,1.4c-3.7-0.6-6.9-2.2-9.4-5
			c-2.4-2.9-4.1-6.3-4.7-10.3c-0.7-4-0.4-8.5,0.8-13.1c1.2-4.8,3.5-9.2,7.1-13.5c10-12.5,18.8-23.6,26.6-33.1s15.4-18.8,23-27.6
			c7.4-8.8,15.3-17.9,23.4-27.2c8.1-9.3,17.2-20.2,27.7-32.2c-8.8,0.5-17,0.7-23.8,0.5c-7-0.3-13.8-0.5-20.1-0.7
			c-6.4-0.2-12.9-0.5-19.6-0.7c-6.8-0.2-14.5-0.3-23.1-0.3c-1.7,0-3.1-2.2-4.5-6.6c-1.4-4.4-2.2-9.4-2.5-14.7
			c-0.2-5.4,0.2-10.3,1.6-14.8c1.3-4.4,3.8-6.8,7.4-6.7c14.8,0.7,28.3,1.6,40.3,2.7c12.1,1,23.7,1.9,34.9,2.6
			c11.3,0.8,22.7,1.2,34.4,1.3c11.7,0.1,24.9-0.3,39.4-1.3c2.9-0.5,5.5,0.1,7.8,2.1c2.2,2,3.8,4.4,4.9,7.7
			C-821.3,1946-820.9,1950-821.3,1954.1z"/>
	</g>
</g>
<g id="Layer_2_1_">
</g>
<g>
	<path d="M-2.4,683.3h-233.8c-10,0-18.1-8.1-18.1-18.1V431.4c0-10,8.1-18.1,18.1-18.1H-2.4c10,0,18.1,8.1,18.1,18.1v233.8
		C15.7,675.2,7.6,683.3-2.4,683.3z"/>
	<g>
		<path class="st2" d="M-12.4,673h-233.8c-10,0-18.1-8.1-18.1-18.1V421.1c0-10,8.1-18.1,18.1-18.1h233.8c10,0,18.1,8.1,18.1,18.1
			v233.8C5.6,664.9-2.4,673-12.4,673z"/>
		<path d="M-20.6,676.6H-238c-16.5,0-29.9-13.4-29.9-29.9V429.3c0-16.5,13.4-29.9,29.9-29.9h217.4c16.5,0,29.9,13.4,29.9,29.9v217.4
			C9.3,663.2-4.1,676.6-20.6,676.6z M-238,406.7c-12.5,0-22.6,10.1-22.6,22.6v217.4c0,12.5,10.1,22.6,22.6,22.6h217.4
			c12.5,0,22.6-10.1,22.6-22.6V429.3c0-12.5-10.1-22.6-22.6-22.6H-238z"/>
	</g>
	<g>
		<path class="st2" d="M-34.4,495.2c-2.3,2.4-5.6,4.1-9.6,4.7c-2.7,0.4-5,0.3-7.1-0.3c-1.9-0.7-3.6-1.6-5-3.1l-7.4-7.5
			c-2.4-1.1-4.3-2.8-5.6-5.3c-1.4-2.4-1.8-5-1.8-7.8c0-1.9,0.3-3.8,1.2-5.7c0.7-1.8,1.7-3.4,3.2-4.6c1.4-1.4,3.2-2.2,5.3-2.8
			c2.2-0.6,4.5-0.7,7.4-0.3c6.5,1.5,10.7,4.3,12.3,8.8l6.8,6.9c0-0.2,0-0.2-0.1-0.2c-0.1,0-0.1-0.1-0.1-0.2l0.6,0.6
			c2.3,2.3,3.5,5.1,3.5,8.2C-30.8,489.9-31.9,492.7-34.4,495.2z"/>
		<path class="st3" d="M-22.2,622.5c-0.3,1.9-1.9,3.4-5.2,4.3c-3.1,1.1-6.8,1.5-10.9,1.5c-4.2-0.1-8.3-0.5-12.6-1.5
			c-4.3-0.9-7.3-2.3-9-4.3l-8.2-8.2c-1.8-1.2-3-2.1-3.6-3.2c-0.1-0.9,0.1-1.9,0.1-3s0.1-2.1,0.1-3.2l0.1-11.6
			c0.1-6.5,0.3-12.6,0.4-18.1c0.1-5.7,0.2-11.3,0.2-17c0.1-4.2,0-8.4,0-12.7c0-3.3,0-6.5-0.1-9.7c-0.1-3-0.1-6-0.1-9.2
			c-0.1-4.7-0.2-9.9-0.3-15.1v-1.1c0.5-2.6,2.6-4.6,6.2-5.8c3.7-1.3,7.5-1.7,11.6-1.7c4.2,0.1,7.9,0.6,11.6,1.8
			c3.6,1.3,5.5,2.7,6,4.9l8.4,8.4c0.7,0.6,1.2,1.4,1.3,2c0.2,10,0.5,19.2,0.7,27.4c0.2,8.1,0.6,16.2,1.1,23.8
			c0.3,7,0.6,13.9,1.1,21.3c0.1,0.8,0.1,1.6,0.1,2.4c0.2,5.1,0.4,10.8,0.6,16.7C-22.3,615.1-22.3,618.8-22.2,622.5z"/>
		<path id="XMLID_4_" d="M-22.6,611.7c-0.2-6-0.4-11.5-0.6-16.7c-0.1-0.9-0.1-1.6-0.1-2.4c-0.3-7.3-0.6-14.3-1.1-21.3
			c-0.3-7.8-0.7-15.6-1.1-23.8c-0.2-8.1-0.5-17.3-0.7-27.4c-0.1-0.7-0.6-1.5-1.3-2l-8.5-8.6c-0.4-2-2.4-3.7-6-4.9
			c-3.6-1.3-7.5-1.7-11.6-1.8c-4.2-0.1-8,0.5-11.6,1.7c-3.7,1.3-5.6,3.2-6.2,5.8v1.1c0.2,5.3,0.2,10.2,0.3,15.1
			c0,3.3,0.1,6.2,0.1,9.2c0,3.3,0,6.5,0.1,9.7c-0.1,4.2,0,8.4,0,12.7c0,5.6-0.1,11.3-0.2,17c-0.1,5.7-0.2,11.7-0.4,18.1l-0.1,11.6
			c0,1.2-0.1,2.1-0.1,3.2s-0.1,2.1-0.1,3c0.5,1.1,1.7,2,3.6,3.2l8.2,8.2c1.7,1.9,4.6,3.4,9,4.3c4.3,0.9,8.3,1.4,12.6,1.5
			c4,0.1,7.6-0.4,10.9-1.5c3.1-1.1,4.9-2.4,5.2-4.3C-22.3,618.8-22.3,615.1-22.6,611.7z M-40.7,613.6c-3,0.4-6.3,0.6-10,0.5
			c-3.8-0.1-7.3-0.4-10.7-1.3c-3.4-0.7-5.3-1.7-5.9-3c0.2-9.7,0.3-18.5,0.4-26.6c0.1-8.1,0.1-16,0.1-23.5c0-7.7,0.1-15.4,0-23.1
			c0-7.8-0.1-16.2-0.4-25.3c0.2-1.6,1.8-2.5,4.6-3.3c2.8-0.7,5.8-1.1,9.1-0.9c3.3,0,6.2,0.3,8.9,1.1c2.6,0.7,4.2,1.5,4.3,2.4
			c0.2,10,0.5,19.1,0.8,27.1c0.4,7.9,0.7,15.9,1.1,23.5c0.3,7.6,0.7,15.5,1.1,23.5c0.3,8,0.7,17.1,0.8,27.1
			C-36.1,612.6-37.7,613.2-40.7,613.6z M-30.7,486.7c0-3.2-1.2-5.9-3.5-8.2l-0.6-0.6c0,0.2,0,0.2,0.1,0.2c0.1,0,0.1,0.1,0.1,0.2
			l-6.8-6.9c-1.7-4.4-5.8-7.4-12.3-8.8c-2.7-0.4-5.2-0.4-7.4,0.3c-2.2,0.6-3.9,1.6-5.3,2.8c-1.4,1.4-2.4,2.8-3.2,4.6
			c-0.7,1.8-1.2,3.9-1.2,5.7c0,2.7,0.6,5.4,1.8,7.8c1.4,2.3,3.1,4.2,5.6,5.3l7.4,7.5c1.5,1.5,3.1,2.3,5,3.1c1.9,0.7,4.2,0.8,7.1,0.3
			c4.1-0.7,7.3-2.2,9.6-4.7C-31.9,492.7-30.8,489.9-30.7,486.7z M-47.7,482.9c-1.8,1.7-4.2,3-7.1,3.3c-4,0.5-7-0.2-8.8-2.6
			c-1.9-2.2-2.8-4.6-2.7-7.5c0-2.7,1.1-5.1,3-7.4c1.9-2.1,4.9-2.8,8.9-2.1c3.8,0.7,6.3,2,7.9,4.1c1.6,2,2.2,4.1,2,6.3
			C-44.8,479.1-46,481.1-47.7,482.9z"/>
	</g>
	<g>
		<path class="st2" d="M217.9,515.6c0,0.3,0,0.7-0.1,1.2c-0.3,3.9-1.6,7.7-3.5,11.6c-6.5,7.4-12.4,14-17.5,20.3
			c-5.2,6.1-10.1,12-14.8,17.8h0.3l-12.7,16l4.3-0.5l6.5-0.5c2.3-0.3,4.7-0.4,7.1-0.7c2.3-0.1,5.1-0.4,7.9-0.7
			c4.3,0.1,7.4,2.2,9.1,6.2l2.5,2.5l3.5,3.5l3.8,3.9c1.4,1.4,2.2,3.1,2.7,5.3c0.5,2.2,0.8,4.4,0.7,7c0,2.5-0.5,5.3-1.3,8.2
			c-0.1,0.7-0.3,1.3-0.4,1.8c-0.7,2.1-1.4,4-2.2,5.8c-0.7,1.4-1.4,2.6-2.1,3.9c-10.1-0.3-19.8-0.3-29.1,0
			c-9.2,0.3-17.8,0.5-26.1,1.2c-8.2,0.5-16.8,0.8-25.5,1.2c-8.8,0.3-18.1,0.3-28.2,0c-3.2-0.5-5.7-1.9-7.7-3.9l-9.2-9.7
			c-1.9-0.9-3.5-2.3-4.7-4c-0.5-0.7-1.2-1.6-1.4-2.3c-1.4-3-1.9-6.1-1.9-9.6c0-2.7,0.7-5.6,1.6-8.3c0.3-0.9,0.8-1.9,1.3-2.7
			c0.9-1.8,2.2-3.6,3.8-5.5c4.9-5.6,9.2-10.5,13.3-15.3c4-4.6,7.7-9.1,11.4-13.3c3.6-4.2,7.3-8.2,10.9-12.2s7.4-8.2,11.4-12.6
			c-2.7-0.3-5.8-0.5-9.4-0.7c-3.4-0.3-7-0.4-10.5-0.5c-0.9,0-1.9-0.5-3.1-1.7l-10.1-10.4c-1.3-0.3-2.2-1.3-3.2-2.5
			c-0.9-1.4-1.8-2.7-2.5-4.7c-0.7-1.8-1.3-3.9-1.6-6.1c-0.4-2.2-0.4-4.4-0.4-6.6c0.1-4.4,0.9-8.2,2.6-11.6c1.7-3.4,4.4-5.1,8.2-4.9
			h0.3c4.4,0.4,8.8,0.8,12.7,1.2c4,0.4,7.8,0.8,11.6,1.2c0.8,0,1.8,0.1,3.1,0.3c1.2,0.1,2.2,0.3,3.1,0.3c7,0.8,13.8,1.6,20.3,2.1
			c6.4,0.5,13.3,0.9,20.3,1.2c6.1,0.1,13,0.1,20.4-0.1c5.6-0.3,9.5,2.1,12.1,7.3l8.8,9.2c0-0.1,0-0.3-0.1-0.3c0,0-0.1-0.1-0.1-0.3
			l0.7,0.7l0.1,0.1C216.8,506.6,218,510.5,217.9,515.6z"/>
		<path id="XMLID_3_" d="M214.1,503.6L214.1,503.6l-0.8-0.8c0,0.1,0,0.3,0.1,0.3c0,0,0.1,0.1,0.1,0.3l-8.8-9.2
			c-2.5-5.3-6.5-7.7-12.1-7.3c-7.4,0.3-14.2,0.4-20.4,0.1c-7-0.1-13.8-0.5-20.3-1.2c-6.5-0.5-13.3-1.3-20.3-2.1
			c-0.8,0-1.8-0.1-3.1-0.3c-1.3-0.3-2.2-0.3-3.1-0.3c-3.6-0.4-7.5-0.7-11.6-1.2c-4-0.3-8.2-0.8-12.7-1.2H101c-3.9,0-6.5,1.6-8.2,4.9
			c-1.7,3.4-2.5,7.3-2.6,11.6c0,2.2,0,4.4,0.4,6.6c0.4,2.2,0.9,4.3,1.6,6.1c0.7,1.8,1.6,3.5,2.5,4.7c0.9,1.4,2.1,2.1,3.2,2.5
			l10.1,10.4c0.9,0.9,1.9,1.6,3.1,1.7c3.6,0.1,7.3,0.3,10.5,0.5c3.4,0.3,6.5,0.5,9.4,0.7c-4,4.4-7.7,8.6-11.4,12.6
			c-3.6,4-7.3,8.1-10.9,12.2c-3.6,4.2-7.4,8.5-11.4,13.3c-4,4.6-8.3,9.7-13.3,15.3c-1.6,1.8-2.7,3.6-3.8,5.5
			c-0.5,0.9-0.9,1.8-1.3,2.7c-0.9,2.7-1.6,5.6-1.6,8.3c-0.1,3.5,0.5,6.6,1.9,9.6c0.4,0.8,0.9,1.7,1.4,2.3c1.3,1.8,2.7,3.1,4.7,4
			l9.2,9.7c1.9,1.9,4.4,3.4,7.7,3.9c10,0.3,19.4,0.1,28.2,0c8.8-0.1,17.3-0.7,25.5-1.2c8.1-0.5,16.9-0.8,26.1-1.2
			c9.2-0.3,18.8-0.3,29.1,0c0.7-1.3,1.6-2.5,2.1-3.9c0.8-1.8,1.6-3.8,2.2-5.8c0.1-0.7,0.3-1.3,0.4-1.8c0.7-3,1.2-5.8,1.3-8.2
			c0-2.5-0.1-4.7-0.7-7c-0.5-2.1-1.6-3.9-2.7-5.3l-3.8-3.9l-3.5-3.5l-2.5-2.5c-1.7-4-4.7-6.1-9.1-6.2c-3,0.3-5.5,0.4-7.9,0.7
			c-2.3,0.1-4.9,0.4-7.1,0.7l-6.5,0.5l-4.3,0.5l12.7-16h-0.3c4.6-5.7,9.6-11.7,14.8-17.8c5.2-6.1,11-12.9,17.5-20.3
			c2.1-3.9,3.2-7.8,3.5-11.6c0-0.3,0-0.7,0.1-1.2C218,510.5,216.8,506.6,214.1,503.6z M201.4,504.9c-0.3,2.6-1.2,5.3-2.6,7.9
			c-6.5,7.4-12.2,14-17.3,20s-9.9,12-14.7,17.8c-4.7,5.7-9.6,11.7-14.7,17.8c-5.1,6-10.8,12.7-17.3,20c6.1,0.1,11.7,0.1,16.6-0.1
			c4.9-0.3,9.6-0.5,14.2-0.9c4.4-0.4,9.2-0.9,13.9-1.6c4.9-0.5,10.1-0.9,16.1-1.3c1.9,0,3.5,0.9,4.3,3.1c0.8,1.9,1.3,4.3,1.3,7.1
			c-0.1,2.7-0.7,5.6-1.3,8.5c-0.7,3-1.7,5.5-3,7.5c-10-0.3-19.2-0.3-27.7,0c-8.5,0.3-16.9,0.7-25.1,1.2c-8.1,0.5-16.6,0.8-25.1,1.2
			c-8.5,0.3-17.7,0.3-27.7,0c-2.3-0.4-4.2-1.6-5.7-3.4c-1.4-1.8-2.3-4-2.7-6.4c-0.4-2.5-0.1-5.3,0.7-8.1c0.8-3,2.3-5.6,4.6-8.2
			c6.4-7.5,12.1-14.2,17-19.9c5.1-5.7,9.9-11.3,14.7-16.6s9.7-10.9,14.9-16.3c5.2-5.6,11-12.1,17.7-19.4c-5.5,0.1-10.4,0.1-14.8-0.1
			c-4.3-0.3-8.5-0.5-12.4-0.8c-3.9-0.3-7.9-0.5-12.1-0.8c-4.2-0.3-9-0.4-14.2-0.5c-0.9,0-1.8-1.4-2.6-4.2c-0.8-2.7-1.2-5.8-1.3-9.2
			c0-3.4,0.3-6.4,1.3-9.1c0.8-2.7,2.5-4,4.7-4c9.2,0.7,17.4,1.6,25,2.3c7.4,0.8,14.7,1.7,21.6,2.2c7,0.7,14,1.3,21.3,1.4
			c7.3,0.3,15.3,0.3,24.4,0c1.8-0.3,3.5,0.1,4.7,1.4c1.4,1.3,2.2,2.7,3,4.9C201.5,499.8,201.6,502.2,201.4,504.9z"/>
	</g>
	<g>
		<path class="st2" d="M155.8,488.9c0,0.4-0.1,0.9-0.1,1.6c-0.4,5.5-2.2,10.8-5.2,16.1c-9.2,10.1-17.5,19.4-25,27.8
			c-7.4,8.5-14.3,16.6-21.1,24.6h0.4l-18,21.9l6-0.8l9.1-0.7c3.4-0.4,6.6-0.5,10-0.8c3.2-0.1,7-0.5,11-0.8c6,0.3,10.1,3.2,12.6,9
			l3.5,3.6l4.7,5.1l5.3,5.6c1.8,1.9,3,4.4,3.8,7.4c0.7,3,0.9,6.1,0.8,9.6c-0.1,3.5-0.8,7.4-1.9,11.4c-0.3,0.8-0.5,1.8-0.7,2.5
			c-0.9,3-1.9,5.6-3.2,8.1c-0.9,1.9-2.1,3.8-3,5.5c-14.2-0.5-27.7-0.7-40.5-0.5c-12.9,0.1-25.1,0.4-36.5,0.9s-23.5,0.7-35.7,0.9
			c-12.2,0.1-25.3,0-39.3-0.5c-4.4-0.8-7.9-2.7-10.8-5.7l-12.7-13.8c-2.6-1.4-4.9-3.4-6.5-5.7c-0.7-1.2-1.4-2.2-1.9-3.4
			c-1.8-4-2.5-8.5-2.3-13.4c0.1-3.9,0.9-7.8,2.3-11.7c0.4-1.4,1.2-2.6,1.8-3.9c1.4-2.3,3.1-5.1,5.5-7.4c6.9-7.7,13.1-14.7,18.7-21.1
			c5.7-6.4,11-12.6,16.1-18.2c5.2-5.7,10.3-11.4,15.5-16.9c5.2-5.6,10.4-11.3,16.1-17.3c-3.9-0.4-8.2-0.8-13-1.3
			c-4.7-0.4-9.7-0.7-14.9-0.9c-1.4,0-2.7-0.8-4.2-2.3l-14-14.9c-1.7-0.5-3.1-1.7-4.4-3.5c-1.4-1.9-2.5-4-3.5-6.5
			c-0.8-2.6-1.7-5.5-2.1-8.6c-0.4-3.1-0.5-6.2-0.4-9.2c0.3-6.1,1.6-11.4,3.9-16c2.5-4.6,6.2-7,11.7-6.6h0.4
			c6.2,0.7,12.2,1.4,17.7,1.9c5.6,0.7,11,1.3,16,1.8c1.2,0,2.5,0.1,4.2,0.5c1.7,0.3,3.1,0.5,4.2,0.5c9.7,1.3,19.2,2.5,28.3,3.4
			c9,0.9,18.6,1.7,28.3,1.9c8.6,0.3,18.1,0.4,28.5,0.1c7.7-0.4,13.3,3.1,16.9,10.4l12.1,13.1c0-0.3,0-0.4-0.1-0.4
			c-0.1,0-0.1-0.1-0.1-0.4l0.9,1.2c0.1,0.1,0.1,0.1,0.3,0.3C154.3,476.2,156,481.9,155.8,488.9z"/>
		<path id="XMLID_2_" d="M150.7,472c-0.1-0.1-0.1-0.1-0.3-0.3l-0.9-1.2c0,0.3,0,0.4,0.1,0.4s0.1,0.1,0.1,0.4l-12-13.1
			c-3.5-7.4-9-10.9-16.9-10.4c-10.3,0.3-19.8,0.1-28.5-0.1c-9.7-0.4-19.2-1.2-28.3-1.9s-18.6-2.1-28.3-3.4c-1.2,0-2.5-0.1-4.2-0.5
			c-1.7-0.3-3.1-0.5-4.2-0.5c-5.2-0.7-10.4-1.3-16-1.8s-11.4-1.3-17.7-1.9h-0.4c-5.5-0.1-9.2,1.9-11.7,6.6c-2.3,4.7-3.8,10-3.9,16
			c-0.1,3.1,0,6.1,0.4,9.2c0.4,3.2,1.3,6.1,2.1,8.6c0.8,2.6,2.1,4.9,3.5,6.5c1.4,1.9,2.7,3,4.4,3.5l14,14.9c1.4,1.6,2.6,2.2,4.2,2.3
			c5.2,0.3,10,0.4,14.9,0.9c4.7,0.4,9.1,0.8,13,1.3c-5.7,6.1-10.9,11.8-16.1,17.3c-5.2,5.6-10.1,11.2-15.5,16.9
			c-5.3,5.7-10.5,11.8-16.1,18.2c-5.7,6.4-11.8,13.5-18.7,21.1c-2.2,2.5-3.9,5.1-5.5,7.4c-0.7,1.4-1.4,2.6-1.8,3.9
			c-1.4,3.8-2.2,7.7-2.3,11.7c-0.3,4.9,0.7,9.4,2.3,13.4c0.5,1.2,1.3,2.3,1.9,3.4c1.7,2.5,3.9,4.3,6.5,5.7l12.7,13.8
			c2.6,2.7,6.2,4.9,10.8,5.7c13.9,0.5,27,0.7,39.3,0.5c12.2-0.1,24.2-0.5,35.5-0.9c11.3-0.5,23.5-0.8,36.5-0.9
			c12.9-0.1,26.4,0,40.5,0.5c1.2-1.7,2.1-3.5,3-5.5c1.3-2.3,2.2-5.3,3.2-8.1c0.3-0.8,0.5-1.8,0.7-2.5c1.2-4.2,1.8-8.1,1.9-11.4
			c0.1-3.5-0.1-6.5-0.8-9.6c-0.7-3-1.9-5.5-3.8-7.4l-5.3-5.6l-4.7-5.1l-3.5-3.6c-2.3-5.6-6.5-8.6-12.6-9c-4,0.3-7.7,0.5-11,0.8
			c-3.4,0.1-6.6,0.5-10,0.8l-9.1,0.7l-6,0.8l18.1-22h-0.4c6.5-7.9,13.6-16,21.1-24.6c7.4-8.5,15.6-17.7,25-27.8
			c3-5.5,4.7-10.9,5.2-16.1c0-0.4,0.1-0.9,0.1-1.6C156,481.9,154.3,476.2,150.7,472z M132.8,473.5c-0.5,3.8-1.7,7.5-3.8,11
			c-9.2,10.1-17.4,19.4-24.6,27.7c-7.1,8.2-14,16.5-20.9,24.6c-6.9,7.9-13.6,16.1-20.9,24.6c-7.1,8.2-15.3,17.5-24.6,27.7
			c8.6,0.3,16.3,0.4,23.3,0.1c7-0.3,13.4-0.5,19.9-1.2c6.2-0.5,12.9-1.3,19.5-1.8s14.2-1.3,22.7-1.6c2.7,0.1,4.7,1.6,5.8,4.3
			c1.2,2.7,1.7,6,1.6,9.9c-0.3,3.9-0.9,7.8-1.9,11.8c-1.2,4-2.5,7.5-4.3,10.4c-13.9-0.5-26.9-0.7-38.7-0.5c-12,0.1-23.5,0.5-35,0.9
			c-11.3,0.5-23.1,0.8-35,0.9c-12,0.1-24.8,0-38.7-0.5c-3.2-0.5-5.8-2.2-7.9-4.7c-1.9-2.6-3.2-5.6-3.6-9.1c-0.4-3.5,0-7.4,1.3-11.3
			c1.3-4,3.4-7.8,6.6-11.4c9.1-10.4,17.2-19.6,24.3-27.6c7.1-7.9,14-15.6,20.9-22.9c6.6-7.4,13.9-14.9,21.2-22.6
			c7.4-7.7,15.6-16.8,25.2-26.8c-7.7,0.1-14.7,0-20.7-0.5s-11.8-0.9-17.4-1.4s-11.2-0.9-16.9-1.4c-5.8-0.4-12.6-0.8-19.9-1.2
			c-1.4,0-2.5-1.9-3.6-5.8c-0.9-3.9-1.6-8.2-1.6-12.9c0-4.7,0.5-9,1.9-12.7c1.3-3.8,3.5-5.7,6.5-5.6c12.9,1.3,24.4,2.5,34.7,3.9
			c10.4,1.3,20.4,2.5,30,3.6c9.6,1.2,19.5,1.9,29.6,2.3s21.4,0.7,34.2,0.4c2.5-0.3,4.7,0.3,6.5,2.1c1.8,1.8,3.1,3.9,3.9,6.9
			C133,466.5,133.2,469.9,132.8,473.5z"/>
	</g>
	<g>
		<path class="st3" d="M-70.2,618.4c-3.1-4.3-5.6-8-7.9-11.6c-2.4-3.5-4.5-7-6.6-10.2c-3.5-5.3-6.9-10.4-10.1-15.3
			c-3.4-4.9-7.3-10.1-11.9-15.5c9.3-5.6,16.7-13.4,21.9-23.1c5.4-9.7,8-21.3,8.1-34.9c0-8.5-1.1-16-3.4-22.4
			c-2.3-6.3-5.3-11.3-9.3-15.2l-6.4-6.1c-4.4-6.9-10.2-11.7-17.7-14.6c-7.5-3-16.1-4.4-25.7-4.5c-6.5,0-12.3,0.5-17.6,1.6
			c-5.2,1.2-10.5,2.4-15.8,3.9l-4.6,1.3l-2.8,0.9l-3.2-3c0-0.4,0-0.5,0.1-0.7c0.1-0.1,0.1-0.3,0.1-0.7c-3.5-0.5-7.2-0.8-11-1.3
			c-3.9-0.3-7.3-0.5-10.3-0.5c-5.8,0-10.7,0.8-14.5,2.5c-3.8,1.7-5.8,4.4-5.4,7.8c-0.3,7.8-0.5,14.8-0.6,21.2s-0.1,12.9-0.2,19.2
			c0,9.3,0,17.9,0.1,26.4s0.3,16.9,0.5,25.4v3.9c0.3,8.3,0.4,17,0.4,26.1c0,9,0.1,18.8,0.2,29.6l0.1,0.5c0.4,3.4,2.2,5.6,5.4,7.1
			l8.9,8.9c1.5,1.4,3.2,2.3,5.3,2.8c2.2,0.5,4.6,0.8,7.6,0.9c3.7-0.1,7.8-0.4,13-1.4c5-0.8,9.3-1.9,13.3-3.4
			c-0.1-8.1-0.2-16.3-0.2-24.5c0-8-0.2-15.6-0.4-22.6c1.2,0,1.8,0,2.5,0c0.6,0,1.4,0,1.8,0.1c0.5,0,1.2,0.1,1.7,0.1s1.5,0,2.4,0
			l12.6,0.1l0.2,0.4l3,5.3c2.5,4.5,5.2,9.3,7.9,14.5c2.7,5.1,5.9,9.9,9.6,14.2c0.6,0.9,1.7,1.7,3.4,2.5l9,9.1c1.8,1.7,4.7,3.1,9.1,4
			c4.2,0.8,8.9,1.4,13.6,1.4c3.7-0.1,7.1-0.3,10.2-0.8c3.2-0.5,5.9-1.5,8.2-2.3c2.2-0.9,3.9-2.1,5-3.4
			C-69.7,621-69.6,619.9-70.2,618.4z M-133.4,521.1c-2.6,3.4-5.8,5.9-9.7,7.8c-3.8,1.8-8,3.2-12.6,3.8c-4.6,0.6-8.6,1.1-12.4,1.1
			l-4.6-0.1c-0.2-4.7-0.2-9.8-0.2-14.7c0-5,0-10.1,0-15.4v-4.7c4.4-1.4,9.3-2.5,14.8-3.5c5.5-1.1,10.5-1.6,15.3-1.6
			c4,0,7.6,0.7,10.7,2c1.9,3.9,2.8,7.9,3,12.2C-129.5,513.3-130.9,517.9-133.4,521.1z"/>
		<g>
			<path d="M-125.1,508c0-8.5-2.6-15.7-8-21.2c-5.3-5.5-12.6-8.2-21.4-8.3c-2.5,0-5.4,0.2-8.2,0.5c-3,0.3-5.9,0.9-9,1.6
				c-3.1,0.7-5.9,1.5-8.9,2c-2.8,0.7-5.4,1.5-7.7,2c-0.2,9.6-0.1,18.5,0.1,26.9c0.3,8.4,0.5,16.9,0.7,25.3
				c6.8,0.9,13.2,1.5,19.1,1.5c4.2,0,8.9-0.3,13.9-1.2c5-0.7,9.8-2.2,14-4.5c4.3-2.1,7.8-5.3,10.9-9.3
				C-126.6,519.4-125.1,514.3-125.1,508z M-133.4,521.1c-2.6,3.4-5.8,5.9-9.7,7.8c-3.8,1.8-8,3.2-12.6,3.8
				c-4.6,0.6-8.6,1.1-12.4,1.1l-4.6-0.1c-0.2-4.7-0.2-9.8-0.2-14.7c0-5,0-10.1,0-15.4v-4.7c4.4-1.4,9.3-2.5,14.8-3.5
				c5.5-1.1,10.5-1.6,15.3-1.6c4,0,7.6,0.7,10.7,2c1.9,3.9,2.8,7.9,3,12.2C-129.5,513.3-130.9,517.9-133.4,521.1z M-125.1,508
				c0-8.5-2.6-15.7-8-21.2c-5.3-5.5-12.6-8.2-21.4-8.3c-2.5,0-5.4,0.2-8.2,0.5c-3,0.3-5.9,0.9-9,1.6c-3.1,0.7-5.9,1.5-8.9,2
				c-2.8,0.7-5.4,1.5-7.7,2c-0.2,9.6-0.1,18.5,0.1,26.9c0.3,8.4,0.5,16.9,0.7,25.3c6.8,0.9,13.2,1.5,19.1,1.5
				c4.2,0,8.9-0.3,13.9-1.2c5-0.7,9.8-2.2,14-4.5c4.3-2.1,7.8-5.3,10.9-9.3C-126.6,519.4-125.1,514.3-125.1,508z M-133.4,521.1
				c-2.6,3.4-5.8,5.9-9.7,7.8c-3.8,1.8-8,3.2-12.6,3.8c-4.6,0.6-8.6,1.1-12.4,1.1l-4.6-0.1c-0.2-4.7-0.2-9.8-0.2-14.7
				c0-5,0-10.1,0-15.4v-4.7c4.4-1.4,9.3-2.5,14.8-3.5c5.5-1.1,10.5-1.6,15.3-1.6c4,0,7.6,0.7,10.7,2c1.9,3.9,2.8,7.9,3,12.2
				C-129.5,513.3-130.9,517.9-133.4,521.1z M-70.2,618.4c-3.1-4.3-5.6-8-7.9-11.6c-2.4-3.5-4.5-7-6.6-10.2
				c-3.5-5.3-6.9-10.4-10.1-15.3c-3.4-4.9-7.3-10.1-11.9-15.5c9.3-5.6,16.7-13.4,21.9-23.1c5.4-9.7,8-21.3,8.1-34.9
				c0-8.5-1.1-16-3.4-22.4c-2.3-6.3-5.3-11.3-9.3-15.2l-6.4-6.1c-4.4-6.9-10.2-11.7-17.7-14.6c-7.5-3-16.1-4.4-25.7-4.5
				c-6.5,0-12.3,0.5-17.6,1.6c-5.2,1.2-10.5,2.4-15.8,3.9l-4.6,1.3l-2.8,0.9l-3.2-3c0-0.4,0-0.5,0.1-0.7c0.1-0.1,0.1-0.3,0.1-0.7
				c-3.5-0.5-7.2-0.8-11-1.3c-3.9-0.3-7.3-0.5-10.3-0.5c-5.8,0-10.7,0.8-14.5,2.5c-3.8,1.7-5.8,4.4-5.4,7.8
				c-0.3,7.8-0.5,14.8-0.6,21.2s-0.1,12.9-0.2,19.2c0,9.3,0,17.9,0.1,26.4s0.3,16.9,0.5,25.4v3.9c0.3,8.3,0.4,17,0.4,26.1
				c0,9,0.1,18.8,0.2,29.6l0.1,0.5c0.4,3.4,2.2,5.6,5.4,7.1l8.9,8.9c1.5,1.4,3.2,2.3,5.3,2.8c2.2,0.5,4.6,0.8,7.6,0.9
				c3.7-0.1,7.8-0.4,13-1.4c5-0.8,9.3-1.9,13.3-3.4c-0.1-8.1-0.2-16.3-0.2-24.5c0-8-0.2-15.6-0.4-22.6c1.2,0,1.8,0,2.5,0
				c0.6,0,1.4,0,1.8,0.1c0.5,0,1.2,0.1,1.7,0.1s1.5,0,2.4,0l12.6,0.1l0.2,0.4l3,5.3c2.5,4.5,5.2,9.3,7.9,14.5
				c2.7,5.1,5.9,9.9,9.6,14.2c0.6,0.9,1.7,1.7,3.4,2.5l9,9.1c1.8,1.7,4.7,3.1,9.1,4c4.2,0.8,8.9,1.4,13.6,1.4
				c3.7-0.1,7.1-0.3,10.2-0.8c3.2-0.5,5.9-1.5,8.2-2.3c2.2-0.9,3.9-2.1,5-3.4C-69.7,621-69.6,619.9-70.2,618.4z M-86.3,611.4
				c-1.6,0.7-3.8,1.1-6.5,1.6c-2.6,0.4-5.7,0.6-9.4,0.8c-3.6,0.2-6.9,0.1-10-0.1c-3.3-0.3-6-0.6-8.6-1.4c-2.5-0.7-4.3-1.6-4.9-2.5
				c-3.2-4.2-6.1-8.6-8.8-13.2c-2.7-4.6-5.2-9-7.6-13.1c-2.3-4.2-4.5-8.1-6.4-11.7c-1.9-3.7-3.7-6.6-5.3-9.1c-1.6,0.1-3,0.2-4.5,0.2
				c-1.5,0-3,0-4.4,0c-4,0-7.8,0-11.7-0.2c-3.9-0.1-7.9-0.2-12.3-0.2c0.3,7.3,0.5,14.8,0.5,22.7c0.2,7.8,0.2,16.5,0.4,25.4
				c-2.8,0.9-6.2,1.7-10,2.3c-3.8,0.7-7.4,1.2-10.9,1.3c-3.4,0.1-6.3-0.2-8.9-0.9c-2.4-0.7-3.8-2-4-3.9c-0.1-15.2-0.2-28.7-0.6-40.8
				c-0.3-12.1-0.5-23.8-0.6-35.3c-0.2-11.4-0.2-23.2-0.2-35.3s0.3-25.7,0.8-40.9c-0.5-1.7,0.4-3,2.4-3.6c2-0.7,4.6-1.3,7.9-1.5
				c3.4-0.2,6.9-0.2,10.9-0.1c4,0.1,7.6,0.5,11,1.1c-0.1,1.2-0.2,2.3-0.2,3.5c0,1.2-0.1,2.1,0.1,3.4c4.6-1.1,9-2,13-3.3
				c4-1.2,7.8-2.1,11.4-3.2c3.7-1.1,7.6-1.8,11.5-2.3c3.9-0.6,8.1-0.9,12.7-0.8c7,0,13.4,0.9,19.2,2.5c5.8,1.7,10.9,4.5,15,8
				c4.2,3.8,7.4,8.4,9.7,14.5c2.3,5.9,3.5,13.1,3.4,21.5c-0.1,13.8-3.1,25.4-8.9,34.9c-5.8,9.5-13.6,16.9-23.3,22
				c4.3,4.9,7.9,9.4,11,13.7c3.2,4.2,6.2,8.5,8.9,12.9c2.8,4.3,5.7,8.8,8.8,13.6c3.1,4.7,6.6,10,10.9,15.7
				C-84.2,610-84.7,610.8-86.3,611.4z M-132.9,486.5c-5.3-5.5-12.6-8.2-21.4-8.3c-2.5,0-5.4,0.2-8.2,0.5c-3,0.3-5.9,0.9-9,1.6
				c-3.1,0.7-5.9,1.5-8.9,2c-2.8,0.7-5.4,1.5-7.7,2c-0.2,9.6-0.1,18.5,0.1,26.9c0.3,8.4,0.5,16.9,0.7,25.3
				c6.8,0.9,13.2,1.5,19.1,1.5c4.2,0,8.9-0.3,13.9-1.2c5-0.7,9.8-2.2,14-4.5c4.3-2.1,7.8-5.3,10.9-9.3c2.8-4,4.4-9.1,4.4-15.4
				C-125,499.4-127.6,492.3-132.9,486.5z M-133.4,521.1c-2.6,3.4-5.8,5.9-9.7,7.8c-3.8,1.8-8,3.2-12.6,3.8
				c-4.6,0.6-8.6,1.1-12.4,1.1l-4.6-0.1c-0.2-4.7-0.2-9.8-0.2-14.7c0-5,0-10.1,0-15.4v-4.7c4.4-1.4,9.3-2.5,14.8-3.5
				c5.5-1.1,10.5-1.6,15.3-1.6c4,0,7.6,0.7,10.7,2c1.9,3.9,2.8,7.9,3,12.2C-129.5,513.3-130.9,517.9-133.4,521.1z M-125.1,508
				c0-8.5-2.6-15.7-8-21.2c-5.3-5.5-12.6-8.2-21.4-8.3c-2.5,0-5.4,0.2-8.2,0.5c-3,0.3-5.9,0.9-9,1.6c-3.1,0.7-5.9,1.5-8.9,2
				c-2.8,0.7-5.4,1.5-7.7,2c-0.2,9.6-0.1,18.5,0.1,26.9c0.3,8.4,0.5,16.9,0.7,25.3c6.8,0.9,13.2,1.5,19.1,1.5
				c4.2,0,8.9-0.3,13.9-1.2c5-0.7,9.8-2.2,14-4.5c4.3-2.1,7.8-5.3,10.9-9.3C-126.6,519.4-125.1,514.3-125.1,508z M-133.4,521.1
				c-2.6,3.4-5.8,5.9-9.7,7.8c-3.8,1.8-8,3.2-12.6,3.8c-4.6,0.6-8.6,1.1-12.4,1.1l-4.6-0.1c-0.2-4.7-0.2-9.8-0.2-14.7
				c0-5,0-10.1,0-15.4v-4.7c4.4-1.4,9.3-2.5,14.8-3.5c5.5-1.1,10.5-1.6,15.3-1.6c4,0,7.6,0.7,10.7,2c1.9,3.9,2.8,7.9,3,12.2
				C-129.5,513.3-130.9,517.9-133.4,521.1z M-125.1,508c0-8.5-2.6-15.7-8-21.2c-5.3-5.5-12.6-8.2-21.4-8.3c-2.5,0-5.4,0.2-8.2,0.5
				c-3,0.3-5.9,0.9-9,1.6c-3.1,0.7-5.9,1.5-8.9,2c-2.8,0.7-5.4,1.5-7.7,2c-0.2,9.6-0.1,18.5,0.1,26.9c0.3,8.4,0.5,16.9,0.7,25.3
				c6.8,0.9,13.2,1.5,19.1,1.5c4.2,0,8.9-0.3,13.9-1.2c5-0.7,9.8-2.2,14-4.5c4.3-2.1,7.8-5.3,10.9-9.3
				C-126.6,519.4-125.1,514.3-125.1,508z M-133.4,521.1c-2.6,3.4-5.8,5.9-9.7,7.8c-3.8,1.8-8,3.2-12.6,3.8
				c-4.6,0.6-8.6,1.1-12.4,1.1l-4.6-0.1c-0.2-4.7-0.2-9.8-0.2-14.7c0-5,0-10.1,0-15.4v-4.7c4.4-1.4,9.3-2.5,14.8-3.5
				c5.5-1.1,10.5-1.6,15.3-1.6c4,0,7.6,0.7,10.7,2c1.9,3.9,2.8,7.9,3,12.2C-129.5,513.3-130.9,517.9-133.4,521.1z"/>
		</g>
	</g>
</g>
</svg>
