<?xml version="1.0" encoding="utf-8"?>
<!-- Generator: Adobe Illustrator 19.0.0, SVG Export Plug-In . SVG Version: 6.00 Build 0)  -->
<svg version="1.1" xmlns="http://www.w3.org/2000/svg" xmlns:xlink="http://www.w3.org/1999/xlink" x="0px" y="0px"
	 viewBox="-93 319.5 514 389.6" style="enable-background:new -93 319.5 514 389.6;" xml:space="preserve">
<style type="text/css">
	.st0{display:none;}
	.st1{display:inline;}
	.st2{fill:#F52C2F;}
	.st3{fill:#FFFFFF;}
</style>
<g id="Layer_1" class="st0">
	<g id="Layer_2" class="st1">
	</g>
	<g class="st1">
		<path d="M-116.2,656.3l-0.7-260.5c-0.1-14.2,11.4-25.8,25.7-25.8l260.5-0.7c14.2-0.1,25.8,11.4,25.8,25.7l0.6,260.5
			c0.1,14.2-11.4,25.8-25.7,25.8L-90.4,682C-104.6,682-116.1,670.5-116.2,656.3z"/>
		<g>
			<path class="st2" d="M-106.8,670.5c-15.8,0-28.7-12.9-28.8-28.7l-0.7-260.5c-0.1-15.8,12.8-28.8,28.7-28.8l260.6-0.7
				c15.7,0,28.6,12.9,28.7,28.7l0.6,260.5c0.1,15.8-12.8,28.8-28.7,28.8L-106.8,670.5L-106.8,670.5z"/>
			<path d="M153,354.8c14.1,0,25.6,11.5,25.7,25.7l0.6,260.5c0.1,14.2-11.4,25.8-25.7,25.8l-260.5,0.7c-14.1,0-25.7-11.5-25.8-25.7
				l-0.7-260.5c-0.1-14.2,11.4-25.8,25.7-25.8l260.5-0.7C153,354.8,153,354.8,153,354.8 M153.1,348.8v6V348.8L153.1,348.8l-0.1,0
				l-260.5,0.7c-17.5,0.1-31.7,14.4-31.7,31.9l0.7,260.5c0.1,17.4,14.3,31.6,31.8,31.7l260.5-0.7c17.5-0.1,31.7-14.4,31.7-31.9
				l-0.6-260.5C184.7,363,170.4,348.8,153.1,348.8L153.1,348.8z"/>
		</g>
	</g>
	<g class="st1">
		<path class="st3" d="M128.6,439.9c-3.4,3.5-8,5.9-13.8,6.8c-4,0.5-7.2,0.4-10.1-0.5c-2.8-1-5.2-2.4-7.1-4.3l-10.6-10.7
			c-3.6-1.5-6.2-4.1-8-7.6c-1.8-3.5-2.6-7.1-2.7-11.1c0-2.7,0.5-5.4,1.6-8.2c1-2.7,2.5-4.9,4.5-6.8c1.9-1.9,4.5-3.3,7.5-4.2
			c3.2-0.9,6.5-1,10.5-0.4c9.3,2,15.1,6.2,17.7,12.5l9.7,9.8c-0.1-0.2,0-0.3-0.2-0.3c-0.1,0-0.2-0.2-0.2-0.3l0.9,0.8
			c3.3,3.4,5,7.3,5,11.8C133.7,432.1,132,436.2,128.6,439.9z"/>
		<path class="st3" d="M146,622c-0.4,2.7-2.8,4.8-7.5,6.1c-4.5,1.4-9.7,2-15.5,2c-6-0.1-11.9-0.7-18-2.1c-6.1-1.4-10.3-3.4-12.9-6.2
			l-11.8-11.9c-2.6-1.6-4.2-3.1-5.1-4.5c-0.1-1.4,0.2-2.8,0.2-4.3c0-1.5,0.2-3,0.2-4.6l0.1-16.6c0.2-9.4,0.5-18,0.6-26
			c0.1-8.1,0.3-16.2,0.3-24.3c0.1-6,0-12.1,0-18.1c0-4.7-0.1-9.3-0.1-13.8c-0.1-4.2-0.1-8.6-0.2-13.2c-0.1-6.8-0.3-14.1-0.5-21.6
			l-0.1-1.5c0.8-3.9,3.8-6.7,9-8.3c5.2-1.7,10.7-2.5,16.6-2.5c6,0.1,11.4,0.8,16.6,2.6c5.1,1.8,7.9,4,8.6,7l12.1,12.2
			c1,0.9,1.7,1.9,1.7,2.9c0.3,14.4,0.7,27.5,1.1,39.3c0.3,11.8,0.9,23.2,1.5,34.2c0.5,10,0.9,20,1.4,30.6c0.1,1.2,0.2,2.3,0.2,3.6
			c0.4,7.3,0.7,15.3,0.8,23.9C145.8,611.5,145.8,616.7,146,622z"/>
		<path id="XMLID_19_" d="M145.5,606.7c-0.3-8.6-0.6-16.5-0.8-23.9c-0.1-1.3-0.1-2.3-0.2-3.6c-0.5-10.4-0.9-20.6-1.4-30.6
			c-0.5-11.1-1-22.4-1.5-34.2c-0.3-11.8-0.8-24.9-1.1-39.3c-0.2-1-0.8-2-1.7-2.9l-12.1-12.2c-0.6-3-3.5-5.3-8.6-7
			c-5.1-1.8-10.7-2.5-16.6-2.6c-6-0.1-11.5,0.7-16.6,2.5c-5.2,1.7-8.1,4.5-9,8.3l0.1,1.5c0.3,7.7,0.3,14.7,0.5,21.6
			c0,4.7,0.2,9,0.2,13.2c0,4.7,0.1,9.3,0.1,13.8c-0.1,6,0,12.1,0,18.1c0,8-0.2,16.3-0.3,24.3c-0.1,8.1-0.3,16.8-0.6,26l-0.1,16.6
			c0,1.6-0.1,3.1-0.2,4.6c0,1.5-0.2,3-0.2,4.3c0.8,1.4,2.4,2.9,5.1,4.5l11.8,11.9c2.6,2.8,6.8,4.8,12.9,6.2c6.1,1.4,11.9,2,18,2.1
			c5.7,0.1,10.8-0.6,15.5-2c4.5-1.4,7-3.5,7.5-6.1C145.8,616.7,145.8,611.5,145.5,606.7z M119.6,609.4c-4.2,0.6-9,0.8-14.3,0.7
			c-5.4-0.2-10.4-0.7-15.2-1.7c-4.8-1-7.6-2.4-8.5-4.3c0.3-13.8,0.4-26.5,0.6-38.2c0.1-11.6,0.2-22.9,0.2-33.8c0-11,0.1-22.1,0-33.1
			c-0.1-11.1-0.2-23.3-0.5-36.3c0.3-2.2,2.7-3.7,6.7-4.7c4.1-1,8.3-1.5,13-1.4c4.7,0,8.9,0.5,12.8,1.4c3.8,0.9,6,2,6.1,3.5
			c0.3,14.4,0.7,27.4,1.2,38.9c0.5,11.5,1,22.8,1.5,33.8c0.5,10.9,1,22.2,1.5,33.8c0.5,11.6,1,24.5,1.2,38.9
			C126,607.9,123.8,608.8,119.6,609.4z M133.8,427.5c0-4.5-1.6-8.5-5-11.8l-0.9-0.8c0.1,0.2,0,0.3,0.2,0.3c0.1,0,0.2,0.2,0.2,0.3
			l-9.7-9.8c-2.4-6.3-8.4-10.5-17.7-12.5c-3.9-0.6-7.4-0.6-10.5,0.4c-3.2,0.9-5.6,2.3-7.5,4.2c-2,1.9-3.4,4.1-4.5,6.8
			c-1,2.7-1.5,5.5-1.6,8.2c0,4,0.8,7.7,2.7,11.1c1.8,3.4,4.4,6,8,7.6l10.6,10.7c2,2,4.4,3.4,7.1,4.3c2.8,1,6,1.1,10.1,0.5
			c5.8-1,10.3-3.2,13.8-6.8C132,436.2,133.7,432.1,133.8,427.5z M109.5,422.1c-2.6,2.5-6,4.2-10,4.6c-5.7,0.8-10-0.3-12.6-3.7
			c-2.8-3.2-4.1-6.7-4-10.7c0-4,1.5-7.3,4.2-10.6c2.8-3,7.1-4.1,12.8-3c5.4,1,9.1,2.9,11.4,5.9c2.3,2.9,3.2,5.8,3,9
			C113.5,416.7,112,419.5,109.5,422.1z"/>
	</g>
	<g class="st1">
		<path class="st3" d="M101.8,610.7c-4.1-5.8-7.6-10.9-10.8-15.7c-3.3-4.7-6.1-9.4-8.9-13.9c-4.7-7.2-9.3-14.1-13.8-20.7
			c-4.6-6.7-9.9-13.6-16.2-21c12.6-7.7,22.5-18.1,29.8-31.3c7.3-13.2,11-28.8,11-47.2c0.1-11.7-1.4-21.8-4.6-30.3
			c-3.1-8.5-7.2-15.3-12.5-20.7l-8.6-8.3c-5.9-9.2-13.9-15.9-24.1-19.8c-10.1-4-21.8-5.9-34.8-6.1c-8.8-0.1-16.7,0.7-24,2.2
			c-7.1,1.5-14.3,3.3-21.4,5.3l-6.3,1.6l-3.9,1.2l-4.3-4c0-0.5,0.1-0.7,0.1-1c0.2-0.2,0.1-0.5,0.1-1c-4.7-0.7-9.6-1.1-15-1.7
			c-5.2-0.4-9.9-0.7-14-0.7c-7.8,0-14.3,1.1-19.7,3.5c-5.3,2.3-7.9,5.9-7.3,10.5c-0.5,10.4-0.7,20.1-0.9,28.7
			c-0.1,8.7-0.2,17.4-0.3,26c0,12.5,0,24.4,0.1,35.8c0.1,11.5,0.4,22.9,0.7,34.5l0,5.2c0.4,11.3,0.5,23,0.5,35.2
			c0.1,12.2,0.1,25.5,0.2,40.2l0.1,0.6c0.6,4.5,3.1,7.6,7.4,9.5l12,12.1c1.9,1.9,4.3,3.2,7.2,3.9c3.1,0.7,6.4,1.2,10.3,1.2
			c5-0.1,10.7-0.6,17.5-1.8c6.8-1.1,12.6-2.7,18-4.5c-0.1-11.1-0.2-22.1-0.3-33.2c0-10.9-0.3-21.2-0.6-30.6c1.5,0,2.5,0,3.5,0
			c0.9,0,1.8,0,2.5,0.1c0.7,0.1,1.5,0.1,2.3,0.1c0.9,0,2,0,3.4,0l17,0.1l0.3,0.6l4,7.1c3.5,6.1,7,12.6,10.8,19.6
			c3.7,6.9,8.1,13.4,13,19.3c0.8,1.2,2.4,2.4,4.6,3.4l12.2,12.4c2.5,2.4,6.5,4.2,12.3,5.4c5.7,1.1,12,1.7,18.4,1.8
			c5-0.1,9.5-0.4,13.8-1.1s8-1.9,11.1-3.2c3.1-1.3,5.2-2.9,6.8-4.6C102.3,614.4,102.5,612.6,101.8,610.7z M15.9,478.7
			c-3.5,4.5-7.9,8-13.2,10.6c-5.1,2.5-10.9,4.2-17,5.2c-6.2,0.9-11.8,1.4-16.9,1.3l-6.2-0.1c-0.3-6.5-0.3-13.3-0.3-20
			c0-6.7,0-13.7,0-20.9l0.1-6.4c5.9-1.8,12.6-3.4,20-4.7c7.5-1.4,14.2-2.1,20.7-2.1c5.3,0,10.2,1,14.4,2.8c2.6,5.3,3.9,10.8,4,16.6
			C21.2,468.3,19.4,474.3,15.9,478.7z"/>
		<g>
			<path d="M27.3,460.9c0.1-11.7-3.5-21.3-10.9-28.8c-7.3-7.5-17-11.2-29-11.3c-3.5,0-7.3,0.2-11.2,0.7c-4,0.5-8,1.3-12.1,2.2
				c-4.1,0.9-8.1,1.9-12,2.8c-3.9,1-7.3,1.9-10.4,2.8c-0.3,13-0.2,25.1,0.1,36.4c0.4,11.4,0.7,22.8,1,34.3c9.1,1.3,17.9,1.9,25.8,2
				c5.7,0,12-0.4,18.9-1.5c6.8-1,13.2-3,19.1-6.1c5.9-3,10.7-7.2,14.7-12.6C25.2,476.5,27.2,469.5,27.3,460.9z M15.9,478.7
				c-3.5,4.5-7.9,8-13.2,10.6c-5.1,2.5-10.9,4.2-17,5.2c-6.2,0.9-11.8,1.4-16.9,1.3l-6.2-0.1c-0.3-6.5-0.3-13.3-0.3-20
				c0-6.7,0-13.7,0-20.9l0.1-6.4c5.9-1.8,12.6-3.4,20-4.7c7.5-1.4,14.2-2.1,20.7-2.1c5.3,0,10.2,1,14.4,2.8c2.6,5.3,3.9,10.8,4,16.6
				C21.2,468.3,19.4,474.3,15.9,478.7z M27.3,460.9c0.1-11.7-3.5-21.3-10.9-28.8c-7.3-7.5-17-11.2-29-11.3c-3.5,0-7.3,0.2-11.2,0.7
				c-4,0.5-8,1.3-12.1,2.2c-4.1,0.9-8.1,1.9-12,2.8c-3.9,1-7.3,1.9-10.4,2.8c-0.3,13-0.2,25.1,0.1,36.4c0.4,11.4,0.7,22.8,1,34.3
				c9.1,1.3,17.9,1.9,25.8,2c5.7,0,12-0.4,18.9-1.5c6.8-1,13.2-3,19.1-6.1c5.9-3,10.7-7.2,14.7-12.6
				C25.2,476.5,27.2,469.5,27.3,460.9z M15.9,478.7c-3.5,4.5-7.9,8-13.2,10.6c-5.1,2.5-10.9,4.2-17,5.2c-6.2,0.9-11.8,1.4-16.9,1.3
				l-6.2-0.1c-0.3-6.5-0.3-13.3-0.3-20c0-6.7,0-13.7,0-20.9l0.1-6.4c5.9-1.8,12.6-3.4,20-4.7c7.5-1.4,14.2-2.1,20.7-2.1
				c5.3,0,10.2,1,14.4,2.8c2.6,5.3,3.9,10.8,4,16.6C21.2,468.3,19.4,474.3,15.9,478.7z M101.8,610.7c-4.1-5.8-7.6-10.9-10.8-15.7
				c-3.3-4.7-6.1-9.4-8.9-13.9c-4.7-7.2-9.3-14.1-13.8-20.7c-4.6-6.7-9.9-13.6-16.2-21c12.6-7.7,22.5-18.1,29.8-31.3
				c7.3-13.2,11-28.8,11-47.2c0.1-11.7-1.4-21.8-4.6-30.3c-3.1-8.5-7.2-15.3-12.5-20.7l-8.6-8.3c-5.9-9.2-13.9-15.9-24.1-19.8
				c-10.1-4-21.8-5.9-34.8-6.1c-8.8-0.1-16.7,0.7-24,2.2c-7.1,1.5-14.3,3.3-21.4,5.3l-6.3,1.6l-3.9,1.2l-4.3-4c0-0.5,0.1-0.7,0.1-1
				c0.2-0.2,0.1-0.5,0.1-1c-4.7-0.7-9.6-1.1-15-1.7c-5.2-0.4-9.9-0.7-14-0.7c-7.8,0-14.3,1.1-19.7,3.5c-5.3,2.3-7.9,5.9-7.3,10.5
				c-0.5,10.4-0.7,20.1-0.9,28.7c-0.1,8.7-0.2,17.4-0.3,26c0,12.5,0,24.4,0.1,35.8c0.1,11.5,0.4,22.9,0.7,34.5l0,5.2
				c0.4,11.3,0.5,23,0.5,35.2c0.1,12.2,0.1,25.5,0.2,40.2l0.1,0.6c0.6,4.5,3.1,7.6,7.4,9.5l12,12.1c1.9,1.9,4.3,3.2,7.2,3.9
				c3.1,0.7,6.4,1.2,10.3,1.2c5-0.1,10.7-0.6,17.5-1.8c6.8-1.1,12.6-2.7,18-4.5c-0.1-11.1-0.2-22.1-0.3-33.2
				c0-10.9-0.3-21.2-0.6-30.6c1.5,0,2.5,0,3.5,0c0.9,0,1.8,0,2.5,0.1c0.7,0.1,1.5,0.1,2.3,0.1c0.9,0,2,0,3.4,0l17,0.1l0.3,0.6l4,7.1
				c3.5,6.1,7,12.6,10.8,19.6c3.7,6.9,8.1,13.4,13,19.3c0.8,1.2,2.4,2.4,4.6,3.4l12.2,12.4c2.5,2.4,6.5,4.2,12.3,5.4
				c5.7,1.1,12,1.7,18.4,1.8c5-0.1,9.5-0.4,13.8-1.1s8-1.9,11.1-3.2c3.1-1.3,5.2-2.9,6.8-4.6C102.3,614.4,102.5,612.6,101.8,610.7z
				 M79.8,601.1c-2.2,0.9-5.1,1.4-8.9,2c-3.6,0.5-7.8,0.8-12.7,1c-4.9,0.2-9.2,0.1-13.5-0.2c-4.4-0.4-8.2-0.9-11.7-1.8
				s-5.8-2.1-6.7-3.5C21.9,593,18,587,14.4,580.9c-3.7-6.2-7-12.1-10.2-17.7c-3.1-5.7-6.1-11-8.7-15.9c-2.7-5-5-9-7.1-12.3
				c-2,0.1-4.1,0.3-6,0.3c-2,0-4,0-6-0.1c-5.3,0-10.6,0-15.8-0.3c-5.3-0.1-10.9-0.3-16.7-0.2c0.4,9.8,0.6,20.1,0.7,30.6
				c0.2,10.6,0.3,22.2,0.5,34.4c-3.9,1.2-8.4,2.3-13.5,3.2c-5.1,0.9-10,1.5-14.6,1.7c-4.5,0.2-8.6-0.3-12.1-1.3
				c-3.3-1-5.1-2.8-5.3-5.2c-0.1-20.5-0.3-38.9-0.8-55.3c-0.5-16.4-0.7-32.4-0.9-47.8c-0.3-15.5-0.3-31.4-0.3-47.8
				s0.5-34.8,1.1-55.4c-0.6-2.3,0.5-4,3.3-4.9c2.7-0.9,6.4-1.7,10.8-1.9c4.6-0.3,9.3-0.3,14.7-0.2s10.3,0.7,14.9,1.4
				c-0.2,1.6-0.3,3.1-0.3,4.6c0,1.5-0.1,2.9,0.1,4.5c6.3-1.3,12.2-2.8,17.6-4.4c5.4-1.5,10.4-2.9,15.5-4.3
				c4.9-1.3,10.2-2.4,15.6-3.2c5.3-0.9,11.1-1.2,17.2-1.1c9.5,0,18.1,1.2,26,3.4c7.9,2.3,14.7,6.1,20.3,11
				c5.6,5.1,9.9,11.5,13.2,19.7c3.1,8,4.7,17.8,4.6,29.2C71.9,464.3,68,480.1,60,493c-7.8,12.9-18.4,22.8-31.7,29.9
				c5.7,6.6,10.7,12.7,14.9,18.6c4.4,5.7,8.4,11.6,12,17.4c3.8,5.8,7.7,11.9,11.9,18.4c4.2,6.4,8.9,13.5,14.6,21.3
				C82.7,599.4,82,600.3,79.8,601.1z M16.6,432c-7.3-7.5-17-11.2-29-11.3c-3.5,0-7.3,0.2-11.2,0.7c-4,0.5-8,1.3-12.1,2.2
				c-4.1,0.9-8.1,1.9-12,2.8c-3.9,1-7.3,1.9-10.4,2.8c-0.3,13-0.2,25.1,0.1,36.4c0.4,11.4,0.7,22.8,1,34.3c9.1,1.3,17.9,1.9,25.8,2
				c5.7,0,12-0.4,18.9-1.5c6.8-1,13.2-3,19.1-6.1c5.9-3,10.7-7.2,14.7-12.6c3.9-5.4,5.9-12.3,5.9-20.8
				C27.4,449.2,23.8,439.7,16.6,432z M15.9,478.7c-3.5,4.5-7.9,8-13.2,10.6c-5.1,2.5-10.9,4.2-17,5.2c-6.2,0.9-11.8,1.4-16.9,1.3
				l-6.2-0.1c-0.3-6.5-0.3-13.3-0.3-20c0-6.7,0-13.7,0-20.9l0.1-6.4c5.9-1.8,12.6-3.4,20-4.7c7.5-1.4,14.2-2.1,20.7-2.1
				c5.3,0,10.2,1,14.4,2.8c2.6,5.3,3.9,10.8,4,16.6C21.2,468.3,19.4,474.3,15.9,478.7z M27.3,460.9c0.1-11.7-3.5-21.3-10.9-28.8
				c-7.3-7.5-17-11.2-29-11.3c-3.5,0-7.3,0.2-11.2,0.7c-4,0.5-8,1.3-12.1,2.2c-4.1,0.9-8.1,1.9-12,2.8c-3.9,1-7.3,1.9-10.4,2.8
				c-0.3,13-0.2,25.1,0.1,36.4c0.4,11.4,0.7,22.8,1,34.3c9.1,1.3,17.9,1.9,25.8,2c5.7,0,12-0.4,18.9-1.5c6.8-1,13.2-3,19.1-6.1
				c5.9-3,10.7-7.2,14.7-12.6C25.2,476.5,27.2,469.5,27.3,460.9z M15.9,478.7c-3.5,4.5-7.9,8-13.2,10.6c-5.1,2.5-10.9,4.2-17,5.2
				c-6.2,0.9-11.8,1.4-16.9,1.3l-6.2-0.1c-0.3-6.5-0.3-13.3-0.3-20c0-6.7,0-13.7,0-20.9l0.1-6.4c5.9-1.8,12.6-3.4,20-4.7
				c7.5-1.4,14.2-2.1,20.7-2.1c5.3,0,10.2,1,14.4,2.8c2.6,5.3,3.9,10.8,4,16.6C21.2,468.3,19.4,474.3,15.9,478.7z M27.3,460.9
				c0.1-11.7-3.5-21.3-10.9-28.8c-7.3-7.5-17-11.2-29-11.3c-3.5,0-7.3,0.2-11.2,0.7c-4,0.5-8,1.3-12.1,2.2c-4.1,0.9-8.1,1.9-12,2.8
				c-3.9,1-7.3,1.9-10.4,2.8c-0.3,13-0.2,25.1,0.1,36.4c0.4,11.4,0.7,22.8,1,34.3c9.1,1.3,17.9,1.9,25.8,2c5.7,0,12-0.4,18.9-1.5
				c6.8-1,13.2-3,19.1-6.1c5.9-3,10.7-7.2,14.7-12.6C25.2,476.5,27.2,469.5,27.3,460.9z M15.9,478.7c-3.5,4.5-7.9,8-13.2,10.6
				c-5.1,2.5-10.9,4.2-17,5.2c-6.2,0.9-11.8,1.4-16.9,1.3l-6.2-0.1c-0.3-6.5-0.3-13.3-0.3-20c0-6.7,0-13.7,0-20.9l0.1-6.4
				c5.9-1.8,12.6-3.4,20-4.7c7.5-1.4,14.2-2.1,20.7-2.1c5.3,0,10.2,1,14.4,2.8c2.6,5.3,3.9,10.8,4,16.6
				C21.2,468.3,19.4,474.3,15.9,478.7z"/>
		</g>
	</g>
	<g class="st1">
		<path class="st2" d="M424.7,523.9c0,0.4,0,0.8,0,1.3c-0.1,4.5-1.3,8.9-3.4,13.6c-7.1,8.8-13.6,16.9-19.2,24.3
			c-5.7,7.4-11.1,14.4-16.2,21.3l0.3,0l-13.9,19.1l5-0.9l7.5-1c2.7-0.5,5.5-0.8,8.3-1.2c2.7-0.3,5.8-0.8,9.1-1.2
			c5-0.1,8.6,2.1,10.8,6.7l3,2.8l4.2,3.9l4.6,4.4c1.6,1.5,2.7,3.5,3.5,5.9c0.8,2.4,1.2,5,1.2,8c0.1,2.8-0.4,6.1-1,9.5
			c-0.2,0.7-0.3,1.5-0.4,2.2c-0.7,2.5-1.4,4.7-2.2,6.8c-0.7,1.6-1.5,3.2-2.2,4.7c-11.7,0.2-23,0.8-33.6,1.5
			c-10.6,0.7-20.7,1.7-30.1,2.6c-9.4,1-19.3,1.8-29.4,2.6c-10.1,0.8-21,1.3-32.6,1.5c-3.7-0.5-6.7-1.9-9.1-4.2l-11.2-10.8
			c-2.3-1-4.2-2.5-5.7-4.4c-0.7-0.8-1.3-1.7-1.7-2.7c-1.7-3.3-2.5-6.9-2.7-11c-0.1-3.2,0.4-6.5,1.4-9.8c0.3-1.2,0.8-2.2,1.3-3.3
			c1-2.1,2.3-4.3,4.1-6.4c5.3-6.7,10.1-12.7,14.5-18.4c4.4-5.6,8.5-10.9,12.5-15.9c4-5,7.9-9.9,11.9-14.7c4-4.9,8.1-9.8,12.5-15.1
			c-3.3-0.1-6.9-0.3-10.8-0.4c-4-0.2-8.1-0.1-12.3,0c-1.2,0-2.3-0.5-3.6-1.7l-12.4-11.6c-1.4-0.3-2.7-1.3-3.8-2.7
			c-1.2-1.5-2.3-3.2-3.2-5.3c-0.9-2.1-1.6-4.4-2.2-7c-0.5-2.6-0.8-5.1-0.8-7.6c-0.1-5.1,0.7-9.5,2.5-13.5c1.8-3.9,4.8-6,9.3-6.1
			l0.3,0c5.2,0.3,10.2,0.5,14.8,0.7c4.6,0.2,9.1,0.5,13.4,0.7c1-0.1,2.1,0,3.5,0.2c1.3,0.2,2.5,0.3,3.5,0.2c8.1,0.5,16,1.1,23.5,1.4
			c7.5,0.3,15.4,0.5,23.5,0.2c7.1-0.1,15-0.6,23.5-1.3c6.4-0.7,11.1,1.9,14.4,7.8l10.7,10.2c0-0.2-0.1-0.3-0.1-0.3
			c-0.1,0-0.1-0.1-0.1-0.3l0.9,0.8c0.1,0.1,0.1,0.2,0.2,0.2C422.9,513.6,424.6,518.1,424.7,523.9z"/>
		<path id="XMLID_1_" d="M419.7,510.3c-0.1-0.1-0.1-0.2-0.2-0.2l-0.9-0.8c0,0.2,0.1,0.3,0.1,0.3s0.1,0.1,0.1,0.3l-10.6-10.2
			c-3.2-6-8-8.5-14.4-7.8c-8.5,0.7-16.4,1.1-23.5,1.3c-8.1,0.1-15.9,0-23.5-0.2c-7.5-0.2-15.4-0.8-23.5-1.4c-1,0.1-2.1,0-3.5-0.2
			s-2.5-0.3-3.5-0.2c-4.3-0.3-8.7-0.5-13.4-0.7c-4.6-0.2-9.6-0.5-14.8-0.7l-0.3,0c-4.5,0.1-7.5,2.1-9.3,6.1c-1.7,4-2.6,8.5-2.5,13.5
			c0.1,2.5,0.3,5.1,0.8,7.6c0.5,2.6,1.3,5,2.2,7c0.9,2.1,2,3.9,3.2,5.3c1.2,1.5,2.5,2.3,3.8,2.7l12.4,11.6c1.2,1.1,2.4,1.7,3.6,1.7
			c4.3-0.1,8.4-0.1,12.3,0c4,0.2,7.5,0.2,10.8,0.4c-4.4,5.4-8.4,10.4-12.5,15.1c-4,4.9-7.9,9.7-11.9,14.7c-4,5-8.1,10.3-12.5,15.9
			c-4.4,5.6-9.1,11.8-14.5,18.4c-1.7,2.1-3,4.3-4.1,6.4c-0.5,1.2-1,2.2-1.3,3.3c-1,3.2-1.5,6.5-1.4,9.8c0.1,4,1,7.7,2.7,11
			c0.5,0.9,1.2,1.9,1.7,2.7c1.5,2,3.4,3.4,5.7,4.4l11.2,10.8c2.3,2.2,5.4,3.7,9.1,4.2c11.6-0.2,22.4-0.8,32.6-1.5
			c10.2-0.7,19.9-1.7,29.4-2.6c9.4-1,19.5-1.8,30.1-2.6c10.6-0.7,21.8-1.3,33.6-1.5c0.8-1.5,1.6-3,2.2-4.7c0.9-2.1,1.6-4.5,2.2-6.8
			c0.2-0.7,0.3-1.5,0.4-2.2c0.7-3.5,1-6.8,1-9.5c-0.1-2.8-0.4-5.5-1.2-8c-0.8-2.4-1.9-4.4-3.5-5.9l-4.6-4.4l-4.2-3.9l-3-2.8
			c-2.2-4.5-5.8-6.8-10.8-6.7c-3.3,0.5-6.3,0.8-9.1,1.2c-2.8,0.3-5.6,0.8-8.3,1.2l-7.5,1l-5,0.9l13.9-19.1l-0.3,0
			c5.1-6.8,10.5-14,16.2-21.3c5.7-7.4,12-15.4,19.2-24.3c2.2-4.7,3.3-9.2,3.4-13.6c0-0.4,0-0.8,0-1.3
			C424.6,518.1,422.9,513.6,419.7,510.3z M404.9,512.4c-0.2,3.1-1,6.3-2.6,9.3c-7.1,8.8-13.4,16.9-18.9,24.1
			c-5.5,7.2-10.8,14.4-16,21.3c-5.2,6.9-10.5,14.1-16,21.3c-5.5,7.2-11.8,15.3-18.9,24.1c7.1-0.1,13.5-0.5,19.2-1s11.1-1.2,16.4-1.9
			c5.2-0.8,10.5-1.6,16.1-2.5s11.7-1.7,18.7-2.4c2.3,0,4,1,5.1,3.2c1.1,2.2,1.7,4.9,1.8,8.1c0,3.2-0.4,6.5-1,9.8
			c-0.7,3.4-1.7,6.3-3,8.9c-11.6,0.2-22.3,0.7-32.1,1.5c-9.9,0.8-19.5,1.7-28.9,2.6c-9.4,1-19.1,1.8-28.9,2.6
			c-9.9,0.8-20.5,1.3-32.1,1.5c-2.7-0.4-5-1.5-6.8-3.5c-1.8-2.1-3-4.5-3.5-7.3c-0.5-2.9-0.4-6.1,0.4-9.4c0.8-3.4,2.4-6.6,4.9-9.8
			c7-9,13.2-17.1,18.7-24c5.5-6.9,10.8-13.6,16.1-20c5.2-6.4,10.7-13,16.4-19.7c5.7-6.8,12.1-14.6,19.5-23.4
			c-6.3,0.5-12.1,0.7-17.1,0.6c-5-0.1-9.9-0.2-14.4-0.3c-4.6-0.1-9.3-0.2-14.1-0.3c-4.9-0.1-10.4-0.1-16.5,0c-1.2,0-2.2-1.5-3.3-4.7
			c-1.1-3.2-1.7-6.7-1.9-10.5c-0.2-3.9,0-7.4,1-10.6c0.9-3.2,2.6-4.9,5.2-4.9c10.6,0.4,20.2,0.8,28.9,1.5c8.7,0.6,17,1.1,25,1.5
			c8.1,0.5,16.3,0.6,24.7,0.5c8.4-0.1,17.8-0.5,28.2-1.3c2.1-0.4,4,0,5.6,1.4c1.6,1.4,2.8,3.1,3.6,5.5
			C404.8,506.6,405.1,509.4,404.9,512.4z"/>
	</g>
	<g class="st1">
		<path class="st2" d="M334.1,440.1c0,0.5,0,1.1-0.1,1.8c-0.2,6.3-2,12.5-5.1,18.9c-10.2,12.2-19.3,23.3-27.3,33.5
			c-8.1,10.2-15.8,19.9-23,29.5l0.4,0l-19.8,26.5l6.9-1.2l10.5-1.3c3.8-0.6,7.7-1,11.5-1.5c3.8-0.4,8.1-1,12.7-1.5
			c7-0.1,12,3.2,15,9.6l4.1,4l5.8,5.5l6.4,6.2c2.2,2.2,3.7,4.9,4.7,8.3c1,3.4,1.5,7.1,1.5,11.1c0.1,4-0.6,8.5-1.6,13.3
			c-0.2,1-0.5,2.1-0.6,3c-1,3.4-2,6.5-3.3,9.5c-1,2.3-2.1,4.4-3.2,6.5c-16.4,0-32.1,0.6-47,1.4c-14.9,0.8-28.9,1.9-42.1,3.1
			c-13.2,1.2-27,2.1-41.1,3c-14.1,0.8-29.3,1.3-45.5,1.4c-5.2-0.7-9.3-2.8-12.6-6l-15.4-15.3c-3.2-1.5-5.8-3.6-7.9-6.2
			c-0.9-1.2-1.8-2.5-2.4-3.8c-2.3-4.6-3.4-9.7-3.5-15.4c0-4.5,0.7-9.1,2.2-13.6c0.5-1.7,1.2-3.1,1.9-4.6c1.5-2.9,3.4-5.9,5.9-8.9
			c7.5-9.2,14.4-17.6,20.6-25.4c6.2-7.7,12-15,17.7-21.9c5.7-6.9,11.3-13.7,16.9-20.3c5.7-6.7,11.6-13.6,17.8-20.9
			c-4.6-0.3-9.6-0.6-15.1-0.8c-5.5-0.3-11.3-0.3-17.2-0.3c-1.7,0-3.2-0.7-4.9-2.5l-17.1-16.5c-2-0.5-3.7-1.8-5.3-3.9
			c-1.7-2.2-3.1-4.5-4.3-7.5c-1.1-3-2.2-6.2-2.9-9.8c-0.7-3.6-1-7.1-1-10.7c-0.1-7.1,1.2-13.2,3.7-18.8c2.6-5.4,6.9-8.3,13.2-8.3
			l0.4,0c7.3,0.5,14.2,0.9,20.6,1.3c6.5,0.4,12.7,0.9,18.7,1.3c1.4-0.1,2.9,0.1,4.9,0.4c1.9,0.3,3.5,0.4,4.9,0.4
			c11.4,0.9,22.3,1.9,32.8,2.5c10.4,0.6,21.5,1,32.8,0.8c9.9-0.1,20.9-0.5,32.9-1.3c8.9-0.8,15.5,2.9,20,11.2l14.7,14.5
			c0-0.3-0.1-0.4-0.2-0.4c-0.1,0-0.2-0.1-0.2-0.4l1.2,1.2c0.1,0.1,0.2,0.2,0.3,0.3C331.8,425.6,334.1,431.9,334.1,440.1z"/>
		<path id="XMLID_24_" d="M327.4,421c-0.1-0.1-0.2-0.2-0.3-0.3l-1.2-1.2c0,0.3,0.1,0.4,0.2,0.4s0.2,0.1,0.2,0.4l-14.6-14.5
			c-4.4-8.4-10.9-12.1-20-11.2c-11.8,0.8-22.9,1.3-32.9,1.3c-11.3,0-22.2-0.3-32.8-0.8c-10.5-0.5-21.5-1.4-32.8-2.5
			c-1.4,0.1-2.9-0.1-4.9-0.4c-2-0.3-3.5-0.4-4.9-0.4c-5.9-0.5-12.1-0.9-18.7-1.3c-6.5-0.3-13.3-0.9-20.6-1.3l-0.4,0
			c-6.3,0.1-10.6,2.8-13.2,8.3c-2.5,5.6-3.8,11.8-3.7,18.8c0.1,3.6,0.3,7.1,1,10.7c0.7,3.7,1.7,7,2.9,9.8c1.1,3,2.7,5.5,4.3,7.5
			c1.7,2.2,3.4,3.3,5.3,3.9l17.1,16.5c1.7,1.6,3.3,2.4,4.9,2.5c6,0,11.7,0,17.2,0.3c5.5,0.3,10.5,0.5,15.1,0.8
			c-6.2,7.4-12,14.3-17.8,20.9c-5.7,6.7-11.3,13.4-16.9,20.3c-5.7,6.9-11.6,14.2-17.7,21.9c-6.2,7.7-13,16.2-20.6,25.4
			c-2.4,2.9-4.3,6-5.9,8.9c-0.8,1.6-1.5,3.1-1.9,4.6c-1.4,4.4-2.2,9-2.2,13.6c0,5.6,1.3,10.8,3.5,15.4c0.7,1.3,1.6,2.7,2.4,3.8
			c2.1,2.8,4.7,4.8,7.9,6.2l15.4,15.3c3.2,3.1,7.4,5.3,12.6,6c16.2,0,31.3-0.6,45.5-1.4s27.9-1.9,41.1-3c13.1-1.2,27.2-2.1,42.1-3.1
			c14.8-0.8,30.5-1.4,47-1.4c1.1-2,2.2-4.2,3.2-6.5c1.3-2.9,2.3-6.2,3.3-9.5c0.2-1,0.5-2.1,0.6-3c1-4.9,1.6-9.5,1.6-13.3
			c-0.1-4-0.5-7.6-1.5-11.1c-1-3.4-2.6-6.2-4.7-8.3l-6.4-6.2l-5.8-5.5l-4.1-4c-3-6.4-8-9.6-15-9.6c-4.6,0.6-8.8,1-12.7,1.5
			c-3.9,0.4-7.8,1-11.5,1.5l-10.5,1.3l-6.9,1.2l19.8-26.5l-0.4,0c7.2-9.5,14.9-19.3,23-29.5c8.1-10.2,17.1-21.3,27.3-33.5
			c3.2-6.5,4.9-12.8,5.1-18.9c0-0.5,0-1.1,0.1-1.8C334.1,431.9,331.8,425.6,327.4,421z M306.7,423.6c-0.4,4.4-1.6,8.7-3.8,12.9
			c-10.2,12.2-19.1,23.3-26.9,33.3s-15.4,19.8-22.8,29.5c-7.5,9.6-15,19.4-22.8,29.5c-7.8,10-16.8,21.1-26.9,33.3
			c9.9-0.1,18.9-0.4,26.9-1c8-0.7,15.5-1.4,23-2.3c7.2-1,14.7-2.1,22.5-3.2c7.8-1.1,16.4-2.1,26.1-2.9c3.2,0,5.6,1.5,7,4.6
			c1.5,3.1,2.3,6.9,2.3,11.4c-0.1,4.5-0.7,9.1-1.7,13.7c-1,4.8-2.5,8.8-4.4,12.4c-16.2,0-31.2,0.5-44.9,1.4
			c-13.8,0.9-27.2,1.9-40.4,3c-13.1,1.2-26.7,2.2-40.4,3c-13.8,0.9-28.7,1.4-44.9,1.4c-3.7-0.6-6.9-2.2-9.4-5
			c-2.4-2.9-4.1-6.3-4.7-10.3c-0.7-4-0.4-8.5,0.8-13.1c1.2-4.8,3.5-9.2,7.1-13.5c10-12.5,18.8-23.6,26.6-33.1
			c7.8-9.5,15.4-18.8,23-27.6c7.4-8.8,15.3-17.9,23.4-27.2c8.1-9.3,17.2-20.2,27.7-32.2c-8.8,0.5-17,0.7-23.8,0.5
			c-7-0.3-13.8-0.5-20.1-0.7c-6.4-0.2-12.9-0.5-19.6-0.7c-6.8-0.2-14.5-0.3-23.1-0.3c-1.7,0-3.1-2.2-4.5-6.6
			c-1.4-4.4-2.2-9.4-2.5-14.7c-0.2-5.4,0.2-10.3,1.6-14.8c1.3-4.4,3.8-6.8,7.4-6.7c14.8,0.7,28.3,1.6,40.3,2.7
			c12.1,1,23.7,1.9,34.9,2.6c11.3,0.8,22.7,1.2,34.4,1.3s24.9-0.3,39.4-1.3c2.9-0.5,5.5,0.1,7.8,2.1c2.2,2,3.8,4.4,4.9,7.7
			C306.7,415.5,307.1,419.5,306.7,423.6z"/>
	</g>
</g>
<g id="Layer_1_copy">
	<g id="Layer_2_1_">
	</g>
	<g>
		<path class="st2" d="M411.7,516.4c0,0.3,0,0.7,0,1.1c-0.1,3.9-1.1,7.7-3,11.7c-6.2,7.6-11.7,14.6-16.6,20.9
			c-4.9,6.3-9.6,12.4-13.9,18.4l0.3,0l-12,16.5l4.3-0.8l6.5-0.9c2.3-0.4,4.7-0.7,7.1-1c2.3-0.3,5-0.7,7.8-1.1
			c4.3-0.1,7.4,1.8,9.4,5.8l2.6,2.4l3.6,3.4l4,3.8c1.4,1.3,2.3,3,3,5.1c0.7,2.1,1,4.3,1,6.9c0.1,2.5-0.3,5.3-0.9,8.2
			c-0.1,0.6-0.3,1.3-0.4,1.9c-0.6,2.1-1.2,4-1.9,5.9c-0.6,1.4-1.3,2.7-1.9,4c-10.1,0.2-19.8,0.7-29,1.3c-9.2,0.6-17.8,1.4-26,2.3
			c-8.1,0.9-16.7,1.6-25.3,2.2c-8.7,0.7-18.1,1.1-28.1,1.3c-3.2-0.4-5.8-1.7-7.9-3.6l-9.7-9.3c-2-0.9-3.6-2.1-4.9-3.8
			c-0.6-0.7-1.1-1.5-1.5-2.4c-1.5-2.8-2.2-6-2.3-9.5c-0.1-2.8,0.4-5.6,1.2-8.4c0.3-1,0.7-1.9,1.2-2.9c0.9-1.8,2-3.7,3.5-5.5
			c4.6-5.8,8.7-11,12.5-15.9c3.8-4.8,7.3-9.4,10.7-13.7c3.4-4.3,6.8-8.6,10.3-12.7c3.4-4.2,7-8.5,10.8-13.1
			c-2.8-0.1-5.9-0.3-9.3-0.3c-3.4-0.1-7-0.1-10.6,0c-1,0-2-0.4-3.1-1.5l-10.7-10c-1.2-0.3-2.3-1.1-3.3-2.3c-1.1-1.3-1.9-2.7-2.7-4.6
			c-0.7-1.8-1.4-3.8-1.9-6s-0.7-4.4-0.7-6.6c-0.1-4.4,0.6-8.2,2.1-11.6c1.6-3.4,4.2-5.2,8-5.2l0.3,0c4.5,0.2,8.8,0.4,12.8,0.6
			c4,0.2,7.9,0.4,11.5,0.6c0.8,0,1.8,0,3,0.2c1.2,0.2,2.2,0.2,3,0.2c7,0.5,13.8,0.9,20.3,1.2c6.4,0.3,13.3,0.4,20.2,0.2
			c6.1-0.1,12.9-0.5,20.3-1.1c5.5-0.6,9.6,1.6,12.4,6.7l9.2,8.8c0-0.2-0.1-0.3-0.1-0.3c-0.1,0-0.1-0.1-0.1-0.3l0.8,0.7
			c0.1,0.1,0.1,0.1,0.2,0.2C410.2,507.5,411.7,511.4,411.7,516.4z"/>
		<path id="XMLID_3_" d="M407.4,504.7c-0.1-0.1-0.1-0.1-0.2-0.2l-0.8-0.7c0,0.2,0.1,0.3,0.1,0.3c0.1,0,0.1,0.1,0.1,0.3l-9.2-8.8
			c-2.8-5.2-6.9-7.4-12.4-6.7c-7.3,0.6-14.1,1-20.3,1.1c-7,0.1-13.7,0-20.2-0.2s-13.3-0.7-20.3-1.2c-0.8,0-1.8,0-3-0.2
			c-1.2-0.2-2.2-0.2-3-0.2c-3.7-0.3-7.5-0.4-11.5-0.6c-4-0.1-8.2-0.4-12.8-0.6l-0.3,0c-3.9,0.1-6.5,1.8-8,5.2
			c-1.5,3.4-2.2,7.3-2.1,11.6c0.1,2.2,0.2,4.4,0.7,6.6c0.5,2.3,1.1,4.3,1.9,6c0.7,1.8,1.7,3.4,2.7,4.6c1.1,1.3,2.2,2,3.3,2.3
			l10.7,10c1.1,1,2,1.5,3.1,1.5c3.7-0.1,7.2-0.1,10.6,0c3.4,0.1,6.5,0.2,9.3,0.3c-3.8,4.6-7.3,8.9-10.8,13.1
			c-3.4,4.2-6.8,8.4-10.3,12.7s-7,8.9-10.7,13.7c-3.8,4.8-7.9,10.1-12.5,15.9c-1.5,1.8-2.6,3.7-3.5,5.5c-0.5,1-0.9,1.9-1.2,2.9
			c-0.8,2.8-1.3,5.6-1.2,8.4c0.1,3.5,0.9,6.7,2.3,9.5c0.4,0.8,1,1.6,1.5,2.4c1.3,1.7,3,2.9,4.9,3.8l9.7,9.3c2,1.9,4.6,3.2,7.9,3.6
			c10-0.2,19.3-0.7,28.1-1.3c8.8-0.6,17.2-1.4,25.3-2.2c8.1-0.9,16.8-1.6,26-2.3c9.1-0.6,18.8-1.1,29-1.3c0.7-1.3,1.3-2.6,1.9-4
			c0.7-1.8,1.4-3.8,1.9-5.9c0.1-0.6,0.3-1.3,0.4-1.9c0.6-3,0.9-5.8,0.9-8.2c-0.1-2.5-0.4-4.7-1-6.9c-0.7-2.1-1.7-3.8-3-5.1l-4-3.8
			l-3.6-3.4l-2.6-2.4c-1.9-3.9-5-5.8-9.4-5.8c-2.8,0.4-5.4,0.7-7.8,1.1c-2.4,0.3-4.8,0.7-7.1,1l-6.5,0.9l-4.3,0.8l12-16.5l-0.3,0
			c4.4-5.9,9-12.1,13.9-18.4c4.9-6.3,10.3-13.3,16.6-20.9c1.9-4,2.9-7.9,3-11.7c0-0.3,0-0.7,0-1.1
			C411.7,511.4,410.2,507.5,407.4,504.7z M394.7,506.5c-0.2,2.7-0.9,5.4-2.2,8c-6.2,7.6-11.6,14.6-16.3,20.8
			c-4.7,6.2-9.3,12.4-13.8,18.4c-4.5,6-9.1,12.1-13.8,18.4c-4.7,6.2-10.1,13.2-16.3,20.8c6.1-0.1,11.7-0.4,16.6-0.9
			c4.9-0.5,9.6-1,14.2-1.6c4.5-0.7,9.1-1.4,13.8-2.2c4.8-0.7,10.1-1.5,16.1-2c2,0,3.5,0.8,4.4,2.8c0.9,1.9,1.5,4.2,1.5,7
			c0,2.8-0.4,5.6-0.9,8.5c-0.6,3-1.5,5.4-2.6,7.7c-10,0.2-19.2,0.6-27.7,1.3c-8.5,0.7-16.8,1.4-24.9,2.2c-8.1,0.9-16.5,1.6-24.9,2.2
			c-8.5,0.7-17.7,1.1-27.7,1.3c-2.3-0.3-4.3-1.3-5.9-3c-1.5-1.8-2.6-3.9-3-6.3c-0.5-2.5-0.3-5.2,0.4-8.1c0.7-3,2.1-5.7,4.2-8.4
			c6-7.8,11.4-14.7,16.1-20.7s9.3-11.7,13.9-17.2c4.5-5.5,9.3-11.2,14.2-17c4.9-5.8,10.5-12.6,16.8-20.1c-5.4,0.4-10.5,0.6-14.7,0.5
			c-4.3-0.1-8.5-0.2-12.4-0.3c-3.9-0.1-8-0.2-12.1-0.3c-4.2-0.1-9-0.1-14.3,0c-1,0-1.9-1.3-2.8-4.1c-0.9-2.7-1.4-5.8-1.7-9.1
			c-0.2-3.4,0-6.4,0.8-9.1c0.8-2.8,2.3-4.2,4.5-4.2c9.1,0.3,17.5,0.7,24.9,1.3c7.5,0.5,14.6,1,21.6,1.3c7,0.4,14,0.6,21.3,0.5
			c7.2-0.1,15.4-0.4,24.3-1.2c1.8-0.3,3.4,0,4.8,1.2c1.4,1.2,2.4,2.7,3.1,4.7C394.6,501.4,394.9,503.9,394.7,506.5z"/>
	</g>
	<g>
		<path class="st2" d="M333.6,441.9c0,0.4,0,1-0.1,1.5c-0.2,5.4-1.7,10.7-4.4,16.3c-8.8,10.5-16.7,20.1-23.6,28.9
			c-7,8.8-13.6,17.2-19.9,25.4l0.4,0l-17.1,22.8l6-1l9.1-1.1c3.3-0.5,6.6-0.8,10-1.3c3.3-0.3,7-0.8,11-1.3c6-0.1,10.4,2.7,12.9,8.3
			l3.6,3.5l5,4.8l5.5,5.3c1.9,1.9,3.2,4.3,4.1,7.2c0.9,2.9,1.3,6.1,1.3,9.6c0.1,3.4-0.5,7.4-1.4,11.5c-0.2,0.9-0.4,1.8-0.5,2.6
			c-0.8,2.9-1.7,5.6-2.8,8.2c-0.9,2-1.9,3.8-2.7,5.6c-14.1,0-27.7,0.5-40.5,1.2s-24.9,1.6-36.3,2.6c-11.4,1-23.3,1.9-35.4,2.6
			c-12.2,0.7-25.3,1.2-39.2,1.2c-4.5-0.6-8-2.5-10.9-5.2l-13.3-13.2c-2.7-1.3-5-3.1-6.8-5.4c-0.8-1-1.5-2.1-2-3.3
			c-2-3.9-2.9-8.4-3-13.3c0-3.9,0.6-7.8,1.9-11.7c0.4-1.4,1-2.7,1.7-4c1.3-2.5,2.9-5.1,5.1-7.7c6.5-8,12.4-15.1,17.7-21.9
			c5.4-6.7,10.4-13,15.3-18.9s9.7-11.8,14.6-17.5c4.9-5.8,10-11.7,15.3-18c-4-0.2-8.3-0.5-13-0.7c-4.8-0.3-9.7-0.3-14.9-0.3
			c-1.4,0-2.8-0.6-4.2-2.1L166.9,449c-1.7-0.4-3.2-1.6-4.6-3.3c-1.5-1.9-2.7-3.9-3.7-6.4c-1-2.6-1.9-5.4-2.5-8.5
			c-0.6-3.1-0.9-6.2-0.8-9.2c0-6.1,1-11.4,3.2-16.2c2.2-4.7,5.9-7.2,11.3-7.2l0.4,0c6.3,0.4,12.2,0.8,17.8,1.1
			c5.6,0.4,11,0.8,16.1,1.1c1.2,0,2.5,0.1,4.2,0.3c1.6,0.2,3,0.4,4.2,0.3c9.8,0.8,19.2,1.6,28.3,2.1c9,0.5,18.5,0.9,28.3,0.7
			c8.6,0,18-0.4,28.3-1.1c7.7-0.7,13.3,2.5,17.2,9.6l12.7,12.5c0-0.3-0.1-0.4-0.2-0.4c-0.1,0-0.2-0.1-0.2-0.4l1,1
			c0.1,0.1,0.2,0.2,0.3,0.3C331.7,429.4,333.6,434.8,333.6,441.9z"/>
		<path id="XMLID_2_" d="M327.8,425.4c-0.1-0.1-0.2-0.2-0.3-0.3l-1-1c0,0.3,0.1,0.4,0.2,0.4s0.2,0.1,0.2,0.4l-12.6-12.5
			c-3.8-7.3-9.4-10.4-17.2-9.6c-10.2,0.7-19.8,1.1-28.3,1.1c-9.7,0-19.2-0.2-28.3-0.7c-9.1-0.4-18.5-1.2-28.3-2.1
			c-1.2,0-2.5-0.1-4.2-0.3c-1.7-0.2-3-0.4-4.2-0.3c-5.1-0.5-10.4-0.7-16.1-1.1c-5.6-0.3-11.5-0.8-17.8-1.1l-0.4,0
			c-5.4,0.1-9.1,2.4-11.3,7.2c-2.2,4.8-3.3,10.2-3.2,16.2c0.1,3.1,0.2,6.1,0.8,9.2c0.6,3.2,1.5,6,2.5,8.5c1,2.6,2.3,4.8,3.7,6.4
			c1.5,1.9,3,2.8,4.6,3.3l14.7,14.2c1.5,1.4,2.8,2.1,4.2,2.1c5.1,0,10.1,0,14.9,0.3c4.8,0.3,9.1,0.4,13,0.7
			c-5.4,6.4-10.4,12.3-15.3,18c-4.9,5.8-9.7,11.5-14.6,17.5c-4.9,5.9-10,12.3-15.3,18.9c-5.4,6.7-11.2,14-17.7,21.9
			c-2.1,2.5-3.7,5.2-5.1,7.7c-0.7,1.4-1.3,2.7-1.7,4c-1.2,3.8-1.9,7.8-1.9,11.7c0,4.9,1.1,9.3,3,13.3c0.6,1.1,1.4,2.3,2,3.3
			c1.8,2.4,4.1,4.1,6.8,5.4l13.3,13.2c2.8,2.7,6.4,4.6,10.9,5.2c14,0,27-0.5,39.2-1.2c12.3-0.6,24-1.6,35.4-2.6
			c11.3-1,23.5-1.8,36.3-2.6c12.7-0.7,26.3-1.2,40.5-1.2c1-1.8,1.9-3.6,2.7-5.6c1.1-2.5,2-5.3,2.8-8.2c0.2-0.9,0.4-1.8,0.5-2.6
			c0.9-4.2,1.4-8.1,1.4-11.5c-0.1-3.4-0.4-6.6-1.3-9.6c-0.9-2.9-2.2-5.3-4.1-7.2l-5.5-5.3l-5-4.8l-3.6-3.5
			c-2.6-5.5-6.9-8.3-12.9-8.3c-4,0.5-7.6,0.9-11,1.3c-3.3,0.3-6.7,0.8-10,1.3l-9.1,1.1l-6,1l17.1-22.8l-0.4,0
			c6.2-8.2,12.9-16.7,19.9-25.4c7-8.8,14.7-18.4,23.6-28.9c2.7-5.6,4.2-11,4.4-16.3c0-0.4,0-1,0.1-1.5
			C333.6,434.8,331.7,429.4,327.8,425.4z M310,427.7c-0.3,3.8-1.4,7.5-3.3,11.1c-8.8,10.5-16.5,20.1-23.2,28.7
			c-6.7,8.6-13.2,17.1-19.7,25.4c-6.4,8.2-13,16.7-19.7,25.4c-6.7,8.6-14.5,18.2-23.2,28.7c8.6,0,16.3-0.3,23.2-0.9
			c6.9-0.6,13.4-1.2,19.8-2c6.2-0.9,12.7-1.8,19.4-2.7c6.7-0.9,14.1-1.8,22.5-2.5c2.8,0,4.8,1.3,6.1,4c1.3,2.7,1.9,5.9,2,9.8
			c-0.1,3.9-0.6,7.8-1.4,11.8c-0.9,4.1-2.2,7.6-3.8,10.7c-14,0-26.9,0.5-38.7,1.2c-11.9,0.7-23.5,1.7-34.9,2.6
			c-11.3,1-23,1.9-34.9,2.6c-11.9,0.7-24.7,1.2-38.7,1.2c-3.2-0.5-6-1.9-8.1-4.4c-2.1-2.5-3.5-5.4-4.1-8.9
			c-0.6-3.4-0.4-7.3,0.7-11.3c1.1-4.1,3-7.9,6.1-11.7c8.6-10.8,16.2-20.3,22.9-28.5c6.7-8.2,13.3-16.2,19.8-23.8
			c6.4-7.6,13.2-15.5,20.1-23.4c7-8,14.9-17.4,23.9-27.8c-7.6,0.4-14.6,0.6-20.6,0.4c-6-0.2-11.9-0.4-17.4-0.6
			c-5.5-0.2-11.2-0.4-16.9-0.6c-5.8-0.2-12.5-0.3-19.9-0.3c-1.4,0-2.6-1.9-3.8-5.7c-1.2-3.8-1.9-8.1-2.2-12.7
			c-0.2-4.7,0.1-8.9,1.4-12.7c1.1-3.8,3.3-5.8,6.3-5.8c12.8,0.6,24.4,1.3,34.8,2.4c10.4,0.8,20.4,1.6,30.1,2.3
			c9.7,0.7,19.6,1.1,29.7,1.1s21.5-0.3,34-1.1c2.5-0.4,4.8,0.1,6.7,1.8c1.9,1.7,3.3,3.8,4.3,6.6C310,420.6,310.3,424.1,310,427.7z"
			/>
	</g>
	<g>
		<path class="st2" d="M158.9,470.2c-3.2,3.4-7.6,5.6-13.1,6.5c-3.8,0.5-6.9,0.4-9.6-0.4c-2.7-0.9-4.9-2.2-6.8-4.1L119.4,462
			c-3.4-1.4-5.9-3.9-7.6-7.3c-1.7-3.4-2.4-6.8-2.5-10.6c0-2.6,0.5-5.2,1.5-7.8c1-2.5,2.4-4.7,4.3-6.4c1.8-1.8,4.3-3.1,7.2-4
			c3-0.8,6.2-1,10-0.4c8.9,1.9,14.4,5.9,16.8,11.9l9.2,9.3c0-0.2,0-0.3-0.1-0.3c-0.1,0-0.2-0.2-0.1-0.3l0.9,0.8
			c3.2,3.2,4.8,6.9,4.7,11.2C163.8,462.8,162.1,466.7,158.9,470.2z"/>
		<path class="st3" d="M175.5,643.5c-0.4,2.6-2.7,4.6-7.1,5.8c-4.2,1.4-9.2,1.9-14.7,1.9c-5.7-0.1-11.3-0.7-17.2-2
			c-5.8-1.3-9.8-3.2-12.3-5.9L113,632c-2.5-1.5-4-3-4.8-4.3c-0.1-1.3,0.2-2.7,0.2-4c0-1.4,0.2-2.9,0.2-4.4l0.1-15.8
			c0.2-8.9,0.5-17.1,0.6-24.7c0.1-7.7,0.2-15.4,0.3-23.1c0.1-5.7,0-11.5,0-17.2c0-4.4-0.1-8.9-0.1-13.2c-0.1-4-0.1-8.2-0.2-12.5
			c-0.1-6.5-0.3-13.4-0.5-20.6l-0.1-1.4c0.7-3.7,3.6-6.4,8.5-7.9c4.9-1.6,10.2-2.4,15.8-2.4c5.7,0.1,10.9,0.8,15.8,2.5
			c4.8,1.7,7.5,3.8,8.2,6.7l11.5,11.6c1,0.9,1.6,1.8,1.6,2.8c0.3,13.7,0.6,26.1,1,37.4c0.3,11.2,0.8,22.1,1.4,32.6
			c0.4,9.5,0.9,19.1,1.4,29.1c0.1,1.1,0.2,2.2,0.2,3.4c0.3,7,0.6,14.6,0.8,22.7C175.3,633.5,175.3,638.4,175.5,643.5z"/>
		<path id="XMLID_4_" d="M175,629c-0.3-8.1-0.6-15.7-0.8-22.7c-0.1-1.2-0.1-2.2-0.2-3.4c-0.4-9.9-0.8-19.6-1.4-29.1
			c-0.5-10.6-0.9-21.4-1.4-32.6c-0.3-11.2-0.7-23.7-1-37.4c-0.2-0.9-0.8-1.9-1.6-2.8L157,489.3c-0.6-2.8-3.3-5.1-8.2-6.7
			c-4.8-1.7-10.1-2.4-15.8-2.5c-5.7-0.1-11,0.7-15.8,2.4c-4.9,1.6-7.7,4.3-8.5,7.9l0.1,1.4c0.3,7.3,0.2,14,0.5,20.6
			c0,4.4,0.1,8.5,0.2,12.5c0,4.4,0.1,8.9,0.1,13.2c-0.1,5.7,0,11.5,0,17.2c0,7.6-0.1,15.5-0.3,23.1c-0.1,7.7-0.3,16-0.6,24.7
			l-0.1,15.8c0,1.5-0.1,3-0.2,4.4s-0.2,2.9-0.2,4c0.7,1.4,2.3,2.8,4.8,4.3l11.3,11.3c2.4,2.7,6.5,4.6,12.3,5.9
			c5.8,1.3,11.4,1.9,17.2,2c5.5,0.1,10.3-0.6,14.7-1.9c4.2-1.4,6.7-3.3,7.1-5.8C175.3,638.4,175.3,633.5,175,629z M150.3,631.5
			c-4,0.6-8.6,0.8-13.6,0.7c-5.1-0.1-9.9-0.6-14.4-1.6c-4.6-1-7.3-2.3-8.1-4c0.3-13.2,0.4-25.2,0.6-36.4c0.1-11.1,0.2-21.8,0.2-32.2
			c0-10.4,0.1-21,0-31.5c-0.1-10.6-0.2-22.1-0.5-34.5c0.3-2.1,2.5-3.5,6.3-4.5c3.9-0.9,7.9-1.4,12.4-1.3c4.4,0,8.5,0.5,12.2,1.3
			s5.7,1.9,5.8,3.3c0.3,13.7,0.7,26,1.1,37c0.5,10.9,0.9,21.7,1.4,32.2c0.4,10.3,1,21.1,1.4,32.2c0.5,11,0.9,23.3,1.1,37
			C156.5,630.1,154.3,630.9,150.3,631.5z M163.8,458.4c0-4.3-1.6-8.1-4.7-11.2l-0.9-0.8c0,0.2,0,0.3,0.1,0.3c0.1,0,0.2,0.2,0.1,0.3
			l-9.2-9.3c-2.3-6-7.9-10-16.8-11.9c-3.7-0.5-7.1-0.5-10,0.4c-3,0.8-5.3,2.2-7.2,4c-1.9,1.8-3.3,3.9-4.3,6.4
			c-1,2.5-1.5,5.2-1.5,7.8c0,3.8,0.8,7.3,2.5,10.6c1.7,3.3,4.2,5.7,7.6,7.3l10.1,10.2c1.9,1.9,4.2,3.3,6.8,4.1
			c2.7,0.9,5.8,1.1,9.6,0.4c5.5-0.9,9.8-3,13.1-6.5C162.1,466.7,163.8,462.8,163.8,458.4z M140.7,453.3c-2.4,2.4-5.7,4-9.5,4.4
			c-5.5,0.7-9.5-0.3-12-3.6c-2.7-3.1-3.9-6.4-3.8-10.2c0-3.8,1.4-7,4-10.1c2.7-2.9,6.7-3.9,12.2-2.9c5.2,0.9,8.6,2.8,10.8,5.6
			c2.2,2.7,3.1,5.5,2.8,8.6C144.5,448.2,143.1,450.8,140.7,453.3z"/>
	</g>
	<g>
		<path class="st3" d="M132.7,613.9c-4.1-5.8-7.6-11-10.9-15.8c-3.3-4.7-6.2-9.5-9-14c-4.7-7.2-9.3-14.2-13.8-20.9
			c-4.6-6.7-9.9-13.7-16.3-21.1c12.6-7.7,22.6-18.3,29.9-31.5c7.3-13.2,11-29,11.1-47.5c0.1-11.7-1.4-21.9-4.6-30.5
			c-3.1-8.6-7.3-15.4-12.6-20.8l-8.7-8.4c-6-9.3-14-16-24.2-19.9c-10.2-4-22-6-35.1-6.1c-8.9-0.1-16.8,0.8-24.1,2.2
			C7.4,381.2,0.2,382.9-7,385l-6.3,1.6l-3.9,1.2l-4.3-4c0-0.5,0.1-0.7,0.1-1c0.2-0.2,0.1-0.5,0.1-1c-4.7-0.7-9.7-1.1-15.1-1.7
			c-5.3-0.4-9.9-0.7-14.1-0.7c-7.9,0-14.4,1.1-19.8,3.5c-5.4,2.4-7.9,5.9-7.4,10.6c-0.5,10.5-0.7,20.2-0.9,28.9s-0.2,17.5-0.3,26.2
			c0,12.6,0,24.5,0.1,36.1c0.1,11.5,0.4,23,0.7,34.7l0,5.3c0.4,11.4,0.5,23.1,0.5,35.4s0.1,25.7,0.2,40.5l0.1,0.6
			c0.6,4.5,3.1,7.7,7.4,9.6l12.1,12.1c1.9,1.9,4.3,3.2,7.2,3.9c3.1,0.7,6.4,1.2,10.3,1.2c5-0.1,10.8-0.6,17.6-1.8
			c6.8-1.1,12.7-2.7,18.1-4.6c-0.1-11.2-0.2-22.2-0.3-33.4c0-11-0.3-21.3-0.6-30.8c1.5,0,2.5,0,3.5,0c0.9,0,1.8,0,2.5,0.1
			c0.7,0.1,1.5,0.1,2.3,0.1c0.9,0,2,0,3.4,0l17.1,0.1l0.3,0.6l4,7.2c3.5,6.2,7.1,12.7,10.9,19.7c3.7,7,8.1,13.5,13.1,19.4
			c0.8,1.2,2.4,2.4,4.6,3.4l12.3,12.4c2.5,2.4,6.5,4.2,12.3,5.5c5.7,1.1,12,1.8,18.5,1.8c5-0.1,9.6-0.4,13.9-1.1
			c4.3-0.8,8-1.9,11.2-3.2c3.1-1.3,5.3-2.9,6.8-4.6C133.2,617.6,133.5,615.8,132.7,613.9z M46.3,481.1c-3.6,4.6-8,8.1-13.3,10.7
			c-5.2,2.5-11,4.3-17.1,5.2c-6.2,0.9-11.9,1.4-17,1.3l-6.2-0.1c-0.3-6.6-0.3-13.3-0.3-20.1s0-13.8,0-21l0.1-6.5
			c6-1.8,12.7-3.5,20.1-4.8c7.5-1.4,14.3-2.2,20.8-2.1c5.4,0,10.2,1,14.5,2.8c2.6,5.3,3.9,10.9,4,16.7
			C51.7,470.6,49.8,476.6,46.3,481.1z"/>
		<g>
			<path d="M57.8,463.2c0.1-11.7-3.6-21.4-11-29c-7.3-7.5-17.1-11.3-29.2-11.3c-3.5,0-7.3,0.2-11.3,0.7c-4,0.5-8.1,1.3-12.2,2.2
				c-4.1,0.9-8.1,1.9-12.1,2.9c-3.9,1-7.4,2-10.5,2.8c-0.3,13.1-0.2,25.2,0.1,36.7c0.4,11.5,0.7,22.9,1,34.5c9.2,1.3,18,1.9,26,2
				c5.8,0,12.1-0.4,19-1.6c6.9-1,13.3-3,19.2-6.1c5.9-3,10.8-7.2,14.8-12.7C55.7,478.9,57.7,471.8,57.8,463.2z M46.3,481.1
				c-3.6,4.6-8,8.1-13.3,10.7c-5.2,2.5-11,4.3-17.1,5.2c-6.2,0.9-11.9,1.4-17,1.3l-6.2-0.1c-0.3-6.6-0.3-13.3-0.3-20.1s0-13.8,0-21
				l0.1-6.5c6-1.8,12.7-3.5,20.1-4.8c7.5-1.4,14.3-2.2,20.8-2.1c5.4,0,10.2,1,14.5,2.8c2.6,5.3,3.9,10.9,4,16.7
				C51.7,470.6,49.8,476.6,46.3,481.1z M57.8,463.2c0.1-11.7-3.6-21.4-11-29c-7.3-7.5-17.1-11.3-29.2-11.3c-3.5,0-7.3,0.2-11.3,0.7
				c-4,0.5-8.1,1.3-12.2,2.2c-4.1,0.9-8.1,1.9-12.1,2.9c-3.9,1-7.4,2-10.5,2.8c-0.3,13.1-0.2,25.2,0.1,36.7
				c0.4,11.5,0.7,22.9,1,34.5c9.2,1.3,18,1.9,26,2c5.8,0,12.1-0.4,19-1.6c6.9-1,13.3-3,19.2-6.1c5.9-3,10.8-7.2,14.8-12.7
				C55.7,478.9,57.7,471.8,57.8,463.2z M46.3,481.1c-3.6,4.6-8,8.1-13.3,10.7c-5.2,2.5-11,4.3-17.1,5.2c-6.2,0.9-11.9,1.4-17,1.3
				l-6.2-0.1c-0.3-6.6-0.3-13.3-0.3-20.1s0-13.8,0-21l0.1-6.5c6-1.8,12.7-3.5,20.1-4.8c7.5-1.4,14.3-2.2,20.8-2.1
				c5.4,0,10.2,1,14.5,2.8c2.6,5.3,3.9,10.9,4,16.7C51.7,470.6,49.8,476.6,46.3,481.1z M132.7,613.9c-4.1-5.8-7.6-11-10.9-15.8
				c-3.3-4.7-6.2-9.5-9-14c-4.7-7.2-9.3-14.2-13.8-20.9c-4.6-6.7-9.9-13.7-16.3-21.1c12.6-7.7,22.6-18.3,29.9-31.5
				c7.3-13.2,11-29,11.1-47.5c0.1-11.7-1.4-21.9-4.6-30.5c-3.1-8.6-7.3-15.4-12.6-20.8l-8.7-8.4c-6-9.3-14-16-24.2-19.9
				c-10.2-4-22-6-35.1-6.1c-8.9-0.1-16.8,0.8-24.1,2.2C7.4,381.2,0.2,382.9-7,385l-6.3,1.6l-3.9,1.2l-4.3-4c0-0.5,0.1-0.7,0.1-1
				c0.2-0.2,0.1-0.5,0.1-1c-4.7-0.7-9.7-1.1-15.1-1.7c-5.3-0.4-9.9-0.7-14.1-0.7c-7.9,0-14.4,1.1-19.8,3.5
				c-5.4,2.4-7.9,5.9-7.4,10.6c-0.5,10.5-0.7,20.2-0.9,28.9s-0.2,17.5-0.3,26.2c0,12.6,0,24.5,0.1,36.1c0.1,11.5,0.4,23,0.7,34.7
				l0,5.3c0.4,11.4,0.5,23.1,0.5,35.4s0.1,25.7,0.2,40.5l0.1,0.6c0.6,4.5,3.1,7.7,7.4,9.6l12.1,12.1c1.9,1.9,4.3,3.2,7.2,3.9
				c3.1,0.7,6.4,1.2,10.3,1.2c5-0.1,10.8-0.6,17.6-1.8c6.8-1.1,12.7-2.7,18.1-4.6c-0.1-11.2-0.2-22.2-0.3-33.4
				c0-11-0.3-21.3-0.6-30.8c1.5,0,2.5,0,3.5,0c0.9,0,1.8,0,2.5,0.1c0.7,0.1,1.5,0.1,2.3,0.1c0.9,0,2,0,3.4,0l17.1,0.1l0.3,0.6l4,7.2
				c3.5,6.2,7.1,12.7,10.9,19.7c3.7,7,8.1,13.5,13.1,19.4c0.8,1.2,2.4,2.4,4.6,3.4l12.3,12.4c2.5,2.4,6.5,4.2,12.3,5.5
				c5.7,1.1,12,1.8,18.5,1.8c5-0.1,9.6-0.4,13.9-1.1c4.3-0.8,8-1.9,11.2-3.2c3.1-1.3,5.3-2.9,6.8-4.6
				C133.2,617.6,133.5,615.8,132.7,613.9z M110.6,604.2c-2.2,0.9-5.1,1.4-8.9,2.1c-3.6,0.6-7.8,0.8-12.8,1.1s-9.3,0.1-13.6-0.2
				c-4.4-0.4-8.3-0.9-11.8-1.8c-3.5-0.9-5.8-2.1-6.7-3.5c-4.4-5.8-8.3-11.8-12-18c-3.8-6.2-7.1-12.2-10.3-17.8
				c-3.1-5.7-6.1-11.1-8.7-16c-2.7-5.1-5-9.1-7.2-12.4c-2,0.1-4.1,0.3-6.1,0.3c-2,0-4,0-6-0.1c-5.4,0-10.6,0-15.9-0.3
				c-5.3-0.1-10.9-0.3-16.8-0.2c0.4,9.9,0.6,20.2,0.7,30.8c0.2,10.7,0.3,22.3,0.5,34.6c-3.9,1.2-8.5,2.3-13.6,3.2
				c-5.1,0.9-10,1.5-14.7,1.7c-4.6,0.2-8.7-0.3-12.2-1.3c-3.4-1-5.1-2.8-5.4-5.3c-0.1-20.7-0.3-39.1-0.8-55.6s-0.7-32.6-0.9-48.1
				c-0.3-15.6-0.3-31.6-0.3-48.1c0-16.5,0.5-35,1.1-55.7c-0.7-2.3,0.5-4,3.3-4.9c2.7-0.9,6.4-1.7,10.9-1.9c4.6-0.3,9.3-0.3,14.8-0.2
				s10.3,0.7,15,1.4c-0.2,1.6-0.3,3.2-0.3,4.7c0,1.5-0.1,3,0.1,4.5c6.4-1.3,12.2-2.8,17.7-4.4c5.4-1.5,10.5-2.9,15.6-4.3
				c5-1.3,10.3-2.5,15.7-3.2c5.4-0.9,11.2-1.2,17.3-1.1c9.5,0,18.2,1.2,26.1,3.4c7.9,2.3,14.8,6.1,20.4,11.1
				c5.7,5.1,10,11.6,13.2,19.8c3.2,8.1,4.7,17.9,4.6,29.3c-0.1,18.7-4.1,34.6-12.1,47.6c-7.9,13-18.5,23-31.8,30.1
				c5.8,6.6,10.8,12.8,15,18.7c4.4,5.8,8.5,11.7,12.1,17.5c3.8,5.9,7.8,12,12,18.5c4.2,6.5,9,13.6,14.7,21.4
				C113.5,602.5,112.8,603.4,110.6,604.2z M47,434.1c-7.3-7.5-17.1-11.3-29.2-11.3c-3.5,0-7.3,0.2-11.3,0.7c-4,0.5-8.1,1.3-12.2,2.2
				c-4.1,0.9-8.1,1.9-12.1,2.9c-3.9,1-7.4,2-10.5,2.8c-0.3,13.1-0.2,25.2,0.1,36.7c0.4,11.5,0.7,22.9,1,34.5c9.2,1.3,18,1.9,26,2
				c5.8,0,12.1-0.4,19-1.6c6.9-1,13.3-3,19.2-6.1c5.9-3,10.8-7.2,14.8-12.7c3.9-5.5,6-12.3,5.9-21C57.9,451.5,54.2,441.9,47,434.1z
				 M46.3,481.1c-3.6,4.6-8,8.1-13.3,10.7c-5.2,2.5-11,4.3-17.1,5.2c-6.2,0.9-11.9,1.4-17,1.3l-6.2-0.1c-0.3-6.6-0.3-13.3-0.3-20.1
				s0-13.8,0-21l0.1-6.5c6-1.8,12.7-3.5,20.1-4.8c7.5-1.4,14.3-2.2,20.8-2.1c5.4,0,10.2,1,14.5,2.8c2.6,5.3,3.9,10.9,4,16.7
				C51.7,470.6,49.8,476.6,46.3,481.1z M57.8,463.2c0.1-11.7-3.6-21.4-11-29c-7.3-7.5-17.1-11.3-29.2-11.3c-3.5,0-7.3,0.2-11.3,0.7
				c-4,0.5-8.1,1.3-12.2,2.2c-4.1,0.9-8.1,1.9-12.1,2.9c-3.9,1-7.4,2-10.5,2.8c-0.3,13.1-0.2,25.2,0.1,36.7
				c0.4,11.5,0.7,22.9,1,34.5c9.2,1.3,18,1.9,26,2c5.8,0,12.1-0.4,19-1.6c6.9-1,13.3-3,19.2-6.1c5.9-3,10.8-7.2,14.8-12.7
				C55.7,478.9,57.7,471.8,57.8,463.2z M46.3,481.1c-3.6,4.6-8,8.1-13.3,10.7c-5.2,2.5-11,4.3-17.1,5.2c-6.2,0.9-11.9,1.4-17,1.3
				l-6.2-0.1c-0.3-6.6-0.3-13.3-0.3-20.1s0-13.8,0-21l0.1-6.5c6-1.8,12.7-3.5,20.1-4.8c7.5-1.4,14.3-2.2,20.8-2.1
				c5.4,0,10.2,1,14.5,2.8c2.6,5.3,3.9,10.9,4,16.7C51.7,470.6,49.8,476.6,46.3,481.1z M57.8,463.2c0.1-11.7-3.6-21.4-11-29
				c-7.3-7.5-17.1-11.3-29.2-11.3c-3.5,0-7.3,0.2-11.3,0.7c-4,0.5-8.1,1.3-12.2,2.2c-4.1,0.9-8.1,1.9-12.1,2.9
				c-3.9,1-7.4,2-10.5,2.8c-0.3,13.1-0.2,25.2,0.1,36.7c0.4,11.5,0.7,22.9,1,34.5c9.2,1.3,18,1.9,26,2c5.8,0,12.1-0.4,19-1.6
				c6.9-1,13.3-3,19.2-6.1c5.9-3,10.8-7.2,14.8-12.7C55.7,478.9,57.7,471.8,57.8,463.2z M46.3,481.1c-3.6,4.6-8,8.1-13.3,10.7
				c-5.2,2.5-11,4.3-17.1,5.2c-6.2,0.9-11.9,1.4-17,1.3l-6.2-0.1c-0.3-6.6-0.3-13.3-0.3-20.1s0-13.8,0-21l0.1-6.5
				c6-1.8,12.7-3.5,20.1-4.8c7.5-1.4,14.3-2.2,20.8-2.1c5.4,0,10.2,1,14.5,2.8c2.6,5.3,3.9,10.9,4,16.7
				C51.7,470.6,49.8,476.6,46.3,481.1z"/>
		</g>
	</g>
</g>
</svg>
